<svg width="351" height="612" viewBox="0 0 351 612" fill="none" xmlns="http://www.w3.org/2000/svg">
<path fill-rule="evenodd" clip-rule="evenodd" d="M-176.504 268.073C-176.958 348.335 -127.245 508.229 59.522 498.656H62.2457L64.243 499.028L65.3382 499.35L66.4979 500.252L67.1421 501.025V502.829L66.4979 503.667L65.3382 505.02C54.5398 512.84 22.3389 525.555 -27.7994 515.616C25.589 540.988 186.714 527.378 228.325 361.603L229.465 358.456L230.252 356.934L231.196 355.099C231.546 354.714 232.308 353.892 232.56 353.682C232.812 353.473 233.714 352.861 234.133 352.581H235.812L236.756 353L237.438 353.945L238.015 355.833L238.539 357.669C242.311 375.305 240.793 406.569 220.028 450.325C268.13 394.917 286.551 239.031 152.463 157.759L150.015 155.818L148.099 154.049L147.067 152.477L146.035 150.953L145.642 149.429V147.758L146.379 146.284L148.099 145.596H153.307L156.747 145.939C174.715 148.852 214.281 167.886 256.12 216.218C217.074 153.154 85.783 46.898 -71.0539 168.013L-73.0115 169.208L-74.5233 169.68H-76.3186L-77.6414 169.208L-78.1138 168.013L-77.8776 166.279L-77.3579 164.294L-76.5548 161.979C-61.7829 133.923 -24.1029 98.2644 48.8213 80.7611C-34.8165 90.6955 -194.283 181.503 -124.993 380.97L-124.508 382.408L-124.148 384.211V385.773L-124.508 387.396L-125.59 388.477H-127.273L-128.844 387.98L-130.788 386.446C-142.201 378.046 -165.502 342.671 -176.504 268.073ZM-119.786 258.133C-135.713 326.339 -92.3397 458.999 52.7125 452.792H55.2706L58.0468 453.098L59.9857 453.627L61.5281 454.376L62.2332 455.082V456.227L60.8671 457.814L59.0603 458.959L56.5926 460.193C35.8759 469.052 -12.016 473.128 -53.371 453.627C-1.97067 487.75 143.145 497.022 187.185 347.869L188.074 345.562L189.081 343.736C189.291 343.442 189.748 342.804 189.899 342.603C190.05 342.402 190.718 341.89 191.032 341.659H191.851L192.606 342.918L193.236 344.743L193.802 346.695L194.243 349.275C196.676 369.756 193.236 399.553 153.988 451.767C205.685 407.896 252.244 274.335 126.482 189.704L125.088 188.502L123.995 187.172L123.377 186.173L122.901 184.888L123.377 184.034L123.995 183.511H127.608L130.936 183.795C150.227 189.313 181.105 200.338 216.926 254.886C178.139 176.223 68.4706 113.137 -39.4638 197.34L-41.5036 198.862L-43.7437 200.016L-45.4407 200.762H-46.8662L-48.0881 200.016V198.183L-47.4772 196.079L-46.459 193.703C-35.933 174.816 -11.1643 149.149 46.8434 133.488C-17.8804 138.182 -137.603 215.703 -85.7692 360.196L-84.967 362.661L-84.5322 364.472V366.139L-84.967 367.733L-85.7692 368.095L-88.0103 367.153L-90.0392 365.559C-103.905 353.648 -123.226 320.055 -119.786 258.133Z" fill="#3E3E3F" fill-opacity="0.05"/>
<path d="M-1.72121 404.8C-102.782 357.608 -80.967 248.088 -46.9873 212.503C-67.5319 242.106 -72.0884 282.657 -65.5029 297.038L-64.9599 298.208L-64.2497 299.085H-63.5396L-63.0383 298.751L-62.4535 297.999L-61.9523 297.038L-61.53 295.298C-48.5206 189.841 49.9308 164.889 109.08 188.557C57.1609 176.412 32.6254 189.952 22.8868 196.869L21.7939 197.742L21.2942 198.71V199.803L21.7939 200.427L23.1054 200.799H26.137C138.146 180.692 184.892 277.324 179.722 330.443C175.534 282.394 158.109 259.471 144.969 250.469L143.589 249.631L142.372 249.336L141.618 249.631L141.273 250.469V251.75L141.618 252.982L142.372 254.738C197.006 352.72 122.127 426.617 67.1304 440.802C114.017 420.53 127.155 396.746 131.706 384.072L132.126 381.676V380.358L131.227 379.699H129.729L127.812 380.358L126.195 381.676L124.877 383.039C51.6649 461.71 -43.2864 417.18 -73.0345 368.117C-42.8971 403.385 -15.2303 411.82 0.501221 411.82H2.14453L3.63824 411.371L4.23575 410.401V409.43L3.63824 408.608L2.14453 407.264L0.501221 406.143L-1.72121 404.8Z" fill="#3E3E3F" fill-opacity="0.05"/>
<path d="M-18.6176 258.366C-18.6176 250.284 -12.0662 243.733 -3.9847 243.733C4.09683 243.733 10.6482 250.284 10.6482 258.366V325.146C10.6482 333.228 4.09683 339.779 -3.9847 339.779C-12.0662 339.779 -18.6176 333.228 -18.6176 325.146V258.366Z" fill="white"/>
<path d="M18.596 248.743C18.596 240.662 25.1474 234.11 33.2289 234.11C41.3105 234.11 47.8618 240.662 47.8618 248.743V325.146C47.8618 333.228 41.3105 339.779 33.2289 339.779C25.1474 339.779 18.596 333.228 18.596 325.146V248.743Z" fill="white"/>
<path d="M55.7447 252.112C55.7447 244.031 62.2961 237.48 70.3776 237.48C78.4592 237.48 85.0106 244.031 85.0106 252.112V325.146C85.0106 333.228 78.4592 339.779 70.3776 339.779C62.2961 339.779 55.7447 333.228 55.7447 325.146V252.112Z" fill="white"/>
<path d="M92.8934 264.863C92.8934 256.782 99.4448 250.23 107.526 250.23C115.608 250.23 122.159 256.782 122.159 264.863V325.146C122.159 333.228 115.608 339.779 107.526 339.779C99.4448 339.779 92.8934 333.228 92.8934 325.146V264.863Z" fill="white"/>
<path d="M-29.9898 348.72L-29.7541 349.096C-29.5428 349.433 -29.3068 349.754 -29.0481 350.056L-9.19405 373.239C-8.85631 373.633 -8.4532 373.966 -8.0024 374.224C-7.74371 374.372 -7.47108 374.494 -7.18845 374.588L-7.09152 374.62C-6.75227 374.733 -6.40288 374.813 -6.04823 374.859L-5.51123 374.929H-4.55177L42.7678 371.255C43.6178 371.189 44.444 370.943 45.1918 370.533L45.6169 370.242C46.016 369.969 46.3767 369.644 46.6896 369.275L46.8314 369.108C46.9266 368.996 47.0126 368.876 47.0885 368.75C47.3435 368.326 47.4782 367.841 47.4782 367.346V353.684C47.4782 353.29 47.4073 352.898 47.2688 352.529C47.1819 352.298 47.0692 352.076 46.9327 351.87L46.474 351.176L46.1949 350.85C45.8747 350.475 45.5111 350.14 45.1119 349.85L44.9974 349.767C44.73 349.574 44.4436 349.408 44.1425 349.272C43.6806 349.064 43.189 348.929 42.6855 348.873L42.0319 348.8L-13.2635 346.364C-13.733 346.343 -14.203 346.254 -14.6478 346.102C-15.0056 345.98 -15.3525 345.816 -15.6725 345.615C-15.9561 345.436 -16.2206 345.229 -16.4617 344.996L-16.5015 344.958C-16.7343 344.733 -16.944 344.485 -17.1274 344.219C-17.3236 343.933 -17.4885 343.628 -17.6194 343.307L-21.001 335.025C-21.1581 334.64 -21.345 334.268 -21.5602 333.912L-21.7485 333.601C-21.8571 333.422 -21.9808 333.252 -22.1182 333.093L-22.2555 332.935C-22.4741 332.682 -22.7388 332.474 -23.0356 332.322C-23.4054 332.132 -23.8153 332.033 -24.2312 332.033H-24.8311C-25.3194 332.033 -25.8029 332.128 -26.2548 332.313L-26.2861 332.325C-26.6541 332.476 -26.9942 332.687 -27.2924 332.95C-27.5784 333.203 -27.822 333.5 -28.0138 333.829L-28.064 333.916C-28.2689 334.268 -28.4211 334.648 -28.5158 335.044L-30.6221 343.859C-30.7141 344.244 -30.7758 344.635 -30.8066 345.03L-30.8284 345.309C-30.8694 345.833 -30.8364 346.359 -30.7306 346.874C-30.5958 347.529 -30.345 348.154 -29.9898 348.72Z" fill="white"/>
<path fill-rule="evenodd" clip-rule="evenodd" d="M46.9417 527.262C169.071 527.262 268.085 428.204 268.085 305.999C268.085 183.794 169.071 84.7366 46.9417 84.7366C-75.1873 84.7366 -174.202 183.794 -174.202 305.999C-174.202 428.204 -75.1873 527.262 46.9417 527.262ZM46.9417 537.551C174.758 537.551 278.374 433.882 278.374 305.999C278.374 178.117 174.758 74.4477 46.9417 74.4477C-80.8748 74.4477 -184.49 178.117 -184.49 305.999C-184.49 433.882 -80.8748 537.551 46.9417 537.551Z" fill="#3E3E3F" fill-opacity="0.05"/>
<path fill-rule="evenodd" clip-rule="evenodd" d="M46.9416 600.763C208.753 600.763 340.023 468.847 340.023 306C340.023 143.153 208.753 11.2372 46.9416 11.2372C-114.87 11.2372 -246.14 143.153 -246.14 306C-246.14 468.847 -114.87 600.763 46.9416 600.763ZM46.9416 611.052C214.489 611.052 350.312 474.475 350.312 306C350.312 137.525 214.489 0.948242 46.9416 0.948242C-120.605 0.948242 -256.429 137.525 -256.429 306C-256.429 474.475 -120.605 611.052 46.9416 611.052Z" fill="#3E3E3F" fill-opacity="0.05"/>
<path d="M218.882 505.756L225.7 513.469C283.671 465.937 321.484 395.599 324.751 316.545H314.453C311.185 392.463 274.743 460.081 218.882 505.756Z" fill="#3E3E3F" fill-opacity="0.05"/>
<path d="M212.361 498.38L205.545 490.67C255.324 448.312 287.818 386.25 290.967 316.545H301.266C298.112 389.321 264.272 454.138 212.361 498.38Z" fill="#3E3E3F" fill-opacity="0.05"/>
<path d="M-117.153 497.649L-110.369 489.912C-159.679 447.544 -191.817 385.752 -194.91 316.405H-205.209C-202.11 388.837 -168.613 453.396 -117.153 497.649Z" fill="#3E3E3F" fill-opacity="0.05"/>
<path d="M-130.442 512.806L-123.657 505.068C-179.079 459.374 -215.183 391.999 -218.396 316.405H-228.694C-225.48 395.149 -187.992 465.256 -130.442 512.806Z" fill="#3E3E3F" fill-opacity="0.05"/>
<path d="M-193.049 265.465L-193.8 272.628L-200.972 274.437L-202.542 289.429L-195.898 292.659L-196.651 299.848L-231.163 281.93L-230.52 275.791L-193.049 265.465ZM-221.414 280.21L-208.224 286.635L-207.107 275.967L-221.344 279.545L-222.607 279.749L-221.414 280.21Z" fill="#3E3E3F" fill-opacity="0.05"/>
<path d="M-186.806 242.718C-187.675 246.054 -189.276 248.897 -191.608 251.249C-193.935 253.584 -196.694 255.195 -199.885 256.082C-203.071 256.953 -206.324 256.956 -209.643 256.091C-212.978 255.221 -215.815 253.631 -218.155 251.32C-220.49 248.992 -222.095 246.244 -222.97 243.074C-223.857 239.883 -223.866 236.62 -222.997 233.285C-222.408 231.028 -221.471 228.995 -220.184 227.186C-218.91 225.357 -217.385 223.822 -215.609 222.584L-211.499 227.722C-212.659 228.572 -213.689 229.632 -214.588 230.905C-215.499 232.156 -216.144 233.511 -216.525 234.972C-217.048 236.979 -217.021 238.98 -216.442 240.974C-215.863 242.968 -214.819 244.711 -213.312 246.203C-211.8 247.678 -209.974 248.694 -207.834 249.252C-205.693 249.81 -203.603 249.814 -201.564 249.265C-199.52 248.699 -197.759 247.687 -196.28 246.23C-194.802 244.772 -193.801 243.039 -193.277 241.031C-192.884 239.521 -192.761 238.065 -192.909 236.662C-193.074 235.254 -193.506 233.75 -194.205 232.15L-188.08 229.76C-187.122 231.728 -186.523 233.816 -186.283 236.023C-186.043 238.23 -186.217 240.462 -186.806 242.718Z" fill="#3E3E3F" fill-opacity="0.05"/>
<path d="M-169.793 195.96L-172.654 202.569L-180.039 202.147L-186.028 215.979L-180.657 221.052L-183.529 227.685L-211.089 200.251L-208.636 194.586L-169.793 195.96ZM-201.272 201.531L-190.612 211.612L-186.351 201.769L-201.006 200.917L-202.272 200.733L-201.272 201.531Z" fill="#3E3E3F" fill-opacity="0.05"/>
<path d="M-166.005 189.027L-196.475 169.593L-189.462 158.598C-187.599 155.678 -185.221 153.432 -182.328 151.86C-179.448 150.28 -176.393 149.523 -173.162 149.591C-169.93 149.659 -166.898 150.596 -164.064 152.404C-161.23 154.211 -159.101 156.565 -157.677 159.467C-156.258 162.345 -155.651 165.427 -155.856 168.713C-156.066 171.976 -157.097 175.061 -158.951 177.967L-166.005 189.027ZM-164.4 174.217C-163.247 172.41 -162.62 170.501 -162.518 168.492C-162.406 166.468 -162.814 164.571 -163.739 162.801C-164.67 161.007 -166.046 159.529 -167.868 158.368C-169.689 157.206 -171.609 156.581 -173.628 156.493C-175.647 156.406 -177.551 156.839 -179.339 157.794C-181.127 158.748 -182.602 160.136 -183.764 161.958L-187.153 167.271L-167.83 179.595L-164.4 174.217Z" fill="#3E3E3F" fill-opacity="0.05"/>
<path d="M-127.32 137.116L-144.473 156.9L-171.78 133.227L-154.879 113.733L-150.059 117.912L-162.393 132.138L-156.058 137.631L-146.201 126.262L-141.653 130.205L-151.51 141.574L-144.727 147.455L-132.14 132.937L-127.32 137.116Z" fill="#3E3E3F" fill-opacity="0.05"/>
<path d="M-119.042 128.913L-124.467 133.372L-144.017 102.66L-137.937 97.6621L-114.466 112.566L-124.563 86.67L-118.483 81.6721L-92.1005 106.802L-97.5452 111.277L-115.448 93.6282L-105.927 118.133L-110.597 121.972L-132.795 107.887L-119.042 128.913Z" fill="#3E3E3F" fill-opacity="0.05"/>
<path d="M-77.5276 98.221L-83.4482 101.9L-102.524 71.2049L-96.6032 67.5256L-77.5276 98.221Z" fill="#3E3E3F" fill-opacity="0.05"/>
<path d="M-43.2881 80.6884L-49.7828 83.8014L-55.081 78.6393L-68.6735 85.1544L-67.9448 92.5067L-74.4627 95.6309L-77.2786 56.8467L-71.7117 54.1783L-43.2881 80.6884ZM-70.7062 64.2505L-69.2701 78.8512L-59.5976 74.215L-70.1031 63.9614L-70.9384 62.9925L-70.7062 64.2505Z" fill="#3E3E3F" fill-opacity="0.05"/>
<path d="M-23.1793 73.7089L-31.4934 38.5384L-18.802 35.5382C-15.4309 34.7414 -12.1602 34.7875 -8.98967 35.6768C-5.8231 36.5493 -3.10452 38.1357 -0.833939 40.4359C1.43668 42.7361 2.95856 45.5217 3.73178 48.7926C4.505 52.0635 4.39145 55.2356 3.39114 58.3091C2.40359 61.3618 0.691437 63.9956 -1.7453 66.2104C-4.1693 68.4045 -7.05844 69.8981 -10.4128 70.691L-23.1793 73.7089ZM-11.7083 64.2044C-9.62227 63.7113 -7.84254 62.7796 -6.36916 61.4093C-4.87907 60.035 -3.8493 58.3907 -3.27983 56.4764C-2.69762 54.5414 -2.65504 52.5226 -3.15211 50.4199C-3.64919 48.3172 -4.59122 46.5311 -5.97821 45.0616C-7.3652 43.5922 -9.03255 42.5767 -10.9803 42.0151C-12.9279 41.4535 -14.9532 41.4212 -17.0559 41.9183L-23.1888 43.3681L-17.9163 65.672L-11.7083 64.2044Z" fill="#3E3E3F" fill-opacity="0.05"/>
<path d="M40.6672 63.4623L14.5764 65.6851L11.5087 29.6757L37.2151 27.4857L37.7566 33.8418L18.9958 35.4401L19.7076 43.7953L34.7008 42.518L35.2118 48.5153L20.2185 49.7926L20.9805 58.7373L40.1257 57.1062L40.6672 63.4623Z" fill="#3E3E3F" fill-opacity="0.05"/>
<path d="M75.8228 65.3861L68.8836 64.7236L71.6997 35.2257L61.1501 34.2185L61.7686 27.7402L89.8326 30.4194L89.2141 36.8977L78.6389 35.8881L75.8228 65.3861Z" fill="#3E3E3F" fill-opacity="0.05"/>
<path d="M119.016 73.9397L112.006 72.2891L111.119 64.9453L96.4465 61.4908L92.4011 67.6732L85.3655 66.0167L107.506 34.0487L113.515 35.4635L119.016 73.9397ZM107.979 43.9375L99.9365 56.2082L110.377 58.6664L108.63 44.0908L108.587 42.8124L107.979 43.9375Z" fill="#3E3E3F" fill-opacity="0.05"/>
<path d="M150.817 86.2966L126.492 76.6036L139.87 43.031L163.837 52.5811L161.475 58.5071L143.984 51.5373L140.88 59.3271L154.859 64.8972L152.63 70.4887L138.652 64.9186L135.329 73.258L153.178 80.3706L150.817 86.2966Z" fill="#3E3E3F" fill-opacity="0.05"/>
<path d="M184.507 105.093L177.244 100.952L175.366 81.553L167.756 84.2018L162.876 92.76L156.821 89.3071L174.722 57.9123L180.778 61.3652L172.445 75.9788L193.246 68.4747L200.665 72.7047L181.921 79.2498L184.507 105.093Z" fill="#3E3E3F" fill-opacity="0.05"/>
<path d="M199.424 116.965L194.784 113.091L207.087 76.2825L212.852 81.0964L203.441 107.619L227.384 93.2299L233.051 97.9613L220.671 105.284L216.054 118.117L240.317 104.028L246.063 108.825L212.021 127.483L207.46 123.675L212.14 109.923L199.424 116.965Z" fill="#3E3E3F" fill-opacity="0.05"/>
<path d="M235.988 154.186C233.812 151.513 232.464 148.541 231.946 145.27C231.438 142.013 231.769 138.835 232.939 135.737C234.12 132.652 236.041 130.027 238.7 127.861C241.373 125.684 244.332 124.336 247.579 123.815C250.837 123.307 254.003 123.637 257.077 124.805C260.175 125.975 262.812 127.896 264.989 130.569C267.165 133.242 268.507 136.207 269.015 139.464C269.547 142.724 269.229 145.891 268.061 148.965C266.904 152.053 264.99 154.685 262.317 156.861C259.658 159.027 256.692 160.369 253.422 160.888C250.161 161.419 246.982 161.1 243.884 159.93C240.797 158.773 238.165 156.858 235.988 154.186ZM241.174 149.963C242.495 151.585 244.126 152.745 246.065 153.443C248.016 154.155 250.033 154.337 252.116 153.989C254.21 153.655 256.115 152.789 257.83 151.393C259.559 149.985 260.799 148.289 261.55 146.306C262.312 144.337 262.536 142.33 262.221 140.287C261.919 138.232 261.113 136.401 259.803 134.792C258.493 133.183 256.862 132.023 254.912 131.311C252.961 130.6 250.939 130.411 248.845 130.745C246.761 131.093 244.862 131.965 243.147 133.362C241.432 134.759 240.193 136.442 239.431 138.412C238.679 140.395 238.454 142.414 238.756 144.468C239.058 146.522 239.864 148.354 241.174 149.963Z" fill="#3E3E3F" fill-opacity="0.05"/>
<path d="M255.166 179.852L251.807 173.891L283.294 156.151L286.741 162.269L273.86 189.189L295.15 177.195L298.508 183.156L267.022 200.896L263.84 195.248L277.083 167.504L255.166 179.852Z" fill="#3E3E3F" fill-opacity="0.05"/>
<path d="M286.884 220.913L280.231 204.459L285.406 202.366L292.059 218.82L286.884 220.913Z" fill="#3E3E3F" fill-opacity="0.05"/>
<path d="M278.906 230.035L313.822 220.709L317.188 233.308C318.082 236.655 318.13 239.925 317.333 243.12C316.552 246.311 315.045 249.074 312.811 251.41C310.578 253.746 307.837 255.348 304.59 256.215C301.343 257.083 298.169 257.061 295.068 256.15C291.988 255.251 289.305 253.616 287.021 251.244C284.758 248.884 283.182 246.039 282.292 242.709L278.906 230.035ZM288.738 241.227C289.292 243.298 290.274 245.05 291.687 246.483C293.103 247.933 294.777 248.915 296.707 249.429C298.658 249.955 300.677 249.939 302.764 249.381C304.852 248.824 306.61 247.831 308.039 246.402C309.468 244.973 310.434 243.277 310.94 241.314C311.445 239.351 311.418 237.325 310.861 235.238L309.234 229.149L287.092 235.064L288.738 241.227Z" fill="#3E3E3F" fill-opacity="0.05"/>
<path d="M289.247 284.177C288.919 280.746 289.448 277.526 290.832 274.517C292.218 271.526 294.257 269.066 296.95 267.138C299.644 265.228 302.699 264.11 306.113 263.784C309.544 263.457 312.755 263.978 315.745 265.346C318.736 266.732 321.187 268.763 323.096 271.441C325.023 274.134 326.151 277.196 326.478 280.627C326.805 284.058 326.276 287.27 324.89 290.261C323.523 293.268 321.501 295.727 318.824 297.636C316.148 299.562 313.094 300.688 309.663 301.015C306.249 301.341 303.037 300.812 300.029 299.428C297.022 298.061 294.554 296.031 292.626 293.338C290.7 290.662 289.574 287.608 289.247 284.177ZM295.904 283.542C296.103 285.625 296.815 287.495 298.041 289.152C299.269 290.827 300.846 292.098 302.771 292.965C304.699 293.849 306.764 294.186 308.966 293.976C311.185 293.765 313.158 293.042 314.883 291.81C316.61 290.594 317.91 289.049 318.782 287.175C319.671 285.298 320.017 283.328 319.82 281.262C319.623 279.196 318.911 277.326 317.683 275.652C316.456 273.978 314.878 272.698 312.951 271.814C311.025 270.947 308.961 270.618 306.759 270.828C304.557 271.038 302.592 271.751 300.865 272.966C299.139 274.199 297.832 275.753 296.942 277.63C296.053 279.506 295.707 281.477 295.904 283.542Z" fill="#3E3E3F" fill-opacity="0.05"/>
<path d="M-121.212 528.324C-122.237 527.386 -123.087 526.143 -123.762 524.595C-124.413 523.046 -124.808 521.37 -124.949 519.568L-118.77 518.494C-118.626 519.556 -118.383 520.51 -118.042 521.357C-117.677 522.203 -117.236 522.863 -116.717 523.338C-115.794 524.183 -114.8 524.558 -113.736 524.462C-112.672 524.367 -111.637 523.769 -110.629 522.668L-93.382 503.829L-88.2594 508.518L-105.819 527.699C-107.313 529.331 -108.939 530.447 -110.696 531.046C-112.442 531.657 -114.222 531.736 -116.039 531.282C-117.843 530.815 -119.568 529.83 -121.212 528.324Z" fill="#3E3E3F" fill-opacity="0.05"/>
<path d="M-86.4935 551.871C-89.3796 549.987 -91.5668 547.565 -93.0553 544.607C-94.5294 541.658 -95.18 538.53 -95.0071 535.222C-94.8198 531.925 -93.7887 528.84 -91.9136 525.968C-90.0292 523.082 -87.6196 520.897 -84.6849 519.414C-81.7358 517.94 -78.6196 517.292 -75.336 517.469C-72.0288 517.642 -68.9321 518.671 -66.0461 520.555C-63.16 522.44 -60.9799 524.857 -59.5058 527.806C-58.008 530.75 -57.348 533.864 -57.5259 537.147C-57.6894 540.44 -58.7134 543.529 -60.5978 546.416C-62.4729 549.287 -64.8896 551.467 -67.8481 552.956C-70.7921 554.454 -73.9178 555.116 -77.2251 554.943C-80.518 554.78 -83.6075 553.756 -86.4935 551.871ZM-82.8372 546.271C-81.0854 547.415 -79.1795 548.025 -77.1193 548.1C-75.0447 548.185 -73.0679 547.745 -71.1889 546.781C-69.2955 545.826 -67.7442 544.422 -66.5347 542.57C-65.316 540.703 -64.6501 538.711 -64.5372 536.593C-64.4099 534.485 -64.8069 532.506 -65.7283 530.655C-66.6404 528.789 -67.965 527.29 -69.7024 526.155C-71.4398 525.021 -73.3457 524.411 -75.4203 524.326C-77.4948 524.242 -79.4788 524.677 -81.3722 525.632C-83.2512 526.596 -84.7954 528.005 -86.0048 529.857C-87.2142 531.709 -87.8826 533.689 -88.0099 535.798C-88.1228 537.915 -87.7233 539.907 -86.8112 541.772C-85.8992 543.637 -84.5745 545.137 -82.8372 546.271Z" fill="#3E3E3F" fill-opacity="0.05"/>
<path d="M-32.6617 573.249L-39.9463 570.268L-40.5659 556.841C-41.2772 556.587 -41.8154 556.385 -42.1804 556.236L-47.7748 553.946L-52.3731 565.183L-58.8245 562.543L-45.1369 529.095L-31.3293 534.746C-29.0598 535.674 -27.2517 536.961 -25.905 538.605C-24.5359 540.24 -23.7195 542.094 -23.4557 544.166C-23.1695 546.228 -23.4746 548.355 -24.3708 550.545C-25.2736 552.751 -26.5338 554.449 -28.1514 555.64C-29.7625 556.815 -31.6101 557.504 -33.6944 557.708L-32.6617 573.249ZM-45.4464 548.257L-38.6617 551.033C-37.5825 551.475 -36.5282 551.638 -35.4987 551.522C-34.4692 551.406 -33.5587 551.037 -32.7672 550.416C-31.9692 549.779 -31.3559 548.937 -30.9273 547.89C-30.4856 546.81 -30.3405 545.776 -30.4919 544.788C-30.6432 543.8 -31.0551 542.927 -31.7274 542.17C-32.3773 541.404 -33.226 540.807 -34.2735 540.378L-41.082 537.592L-45.4464 548.257Z" fill="#3E3E3F" fill-opacity="0.05"/>
<path d="M7.33679 566.028L13.811 567.364L11.1592 580.212C9.28702 581.138 7.2218 581.728 4.96359 581.98C2.7222 582.235 0.493103 582.134 -1.72374 581.676C-5.09938 580.979 -8.02139 579.527 -10.4898 577.319C-12.9379 575.098 -14.6871 572.417 -15.7372 569.276C-16.7672 566.122 -16.9355 562.865 -16.2422 559.507C-15.5489 556.148 -14.1085 553.241 -11.9208 550.786C-9.7164 548.334 -7.05212 546.581 -3.92804 545.528C-0.787186 544.478 2.47104 544.301 5.84668 544.998C8.09711 545.462 10.1671 546.292 12.0565 547.487C13.9494 548.666 15.5515 550.109 16.8627 551.815L11.7862 556.178C10.8817 555.046 9.79642 554.069 8.53021 553.247C7.28427 552.412 5.93915 551.845 4.49484 551.547C2.46274 551.128 0.465942 551.259 -1.49557 551.939C-3.45708 552.62 -5.14391 553.751 -6.55603 555.334C-7.96817 556.916 -8.89783 558.79 -9.34497 560.956C-9.79213 563.123 -9.68575 565.237 -9.0258 567.299C-8.3624 569.345 -7.26831 571.085 -5.74356 572.521C-4.19853 573.943 -2.41837 574.862 -0.403046 575.278C1.57867 575.687 3.52252 575.685 5.42859 575.273L7.33679 566.028Z" fill="#3E3E3F" fill-opacity="0.05"/>
<path d="M52.5042 585.082L26.3294 584.338L27.3558 548.213L53.1449 548.946L52.9637 555.322L34.1426 554.788L33.9044 563.17L48.9459 563.597L48.775 569.614L33.7335 569.186L33.4785 578.16L52.6853 578.706L52.5042 585.082Z" fill="#3E3E3F" fill-opacity="0.05"/>
<path d="M108.38 577.56L100.708 579.318L92.4695 568.697C91.7417 568.899 91.1855 569.044 90.8011 569.132L84.909 570.482L87.62 582.316L80.8252 583.872L72.7554 548.645L87.2976 545.314C89.6879 544.766 91.907 544.777 93.9549 545.346C96.0157 545.894 97.7504 546.939 99.1592 548.481C100.581 550.003 101.556 551.917 102.084 554.224C102.617 556.547 102.564 558.661 101.928 560.566C101.287 562.455 100.173 564.082 98.5864 565.448L108.38 577.56ZM83.5363 564.489L90.682 562.852C91.8186 562.592 92.7744 562.118 93.5493 561.43C94.3241 560.742 94.8563 559.917 95.1458 558.953C95.4314 557.973 95.4478 556.931 95.1951 555.828C94.9347 554.691 94.4581 553.763 93.7652 553.042C93.0723 552.321 92.2331 551.845 91.2476 551.613C90.275 551.361 89.2371 551.361 88.1339 551.614L80.9631 553.256L83.5363 564.489Z" fill="#3E3E3F" fill-opacity="0.05"/>
<path d="M130.994 572.615L124.47 575.072L111.732 541.251L118.255 538.794L130.994 572.615Z" fill="#3E3E3F" fill-opacity="0.05"/>
<path d="M162.477 559.638C159.461 561.307 156.297 562.106 152.986 562.036C149.69 561.959 146.622 561.069 143.78 559.368C140.953 557.659 138.71 555.304 137.05 552.303C135.382 549.287 134.579 546.135 134.642 542.847C134.719 539.551 135.605 536.494 137.3 533.676C139 530.834 141.359 528.579 144.375 526.911C147.391 525.242 150.547 524.447 153.843 524.525C157.146 524.579 160.207 525.454 163.025 527.148C165.858 528.834 168.109 531.185 169.777 534.201C171.437 537.202 172.233 540.358 172.163 543.669C172.109 546.972 171.231 550.044 169.53 552.886C167.844 555.719 165.493 557.97 162.477 559.638ZM159.24 553.786C161.071 552.773 162.502 551.375 163.533 549.589C164.579 547.796 165.115 545.843 165.143 543.731C165.185 541.611 164.671 539.583 163.6 537.647C162.521 535.696 161.072 534.175 159.254 533.084C157.451 531.985 155.515 531.409 153.448 531.357C151.373 531.29 149.428 531.759 147.612 532.763C145.796 533.767 144.366 535.166 143.32 536.96C142.274 538.753 141.729 540.71 141.687 542.83C141.66 544.942 142.182 546.966 143.252 548.902C144.323 550.838 145.76 552.355 147.563 553.454C149.382 554.545 151.329 555.125 153.404 555.192C155.479 555.259 157.425 554.79 159.24 553.786Z" fill="#3E3E3F" fill-opacity="0.05"/>
<path d="M197.403 538.513C195.198 540.312 192.764 541.589 190.104 542.343C187.446 543.072 184.733 543.205 181.965 542.742L182.571 536.404C184.567 536.68 186.479 536.57 188.309 536.073C190.139 535.576 191.771 534.742 193.207 533.572C194.708 532.347 195.641 531.076 196.007 529.761C196.385 528.434 196.135 527.233 195.257 526.156C194.672 525.439 193.972 525.014 193.156 524.883C192.354 524.74 191.375 524.842 190.218 525.188C189.064 525.509 187.55 526.081 185.675 526.902C183.787 527.734 181.994 528.344 180.297 528.733C178.613 529.11 176.903 529.089 175.166 528.669C173.43 528.249 171.873 527.195 170.496 525.508C169.304 524.046 168.585 522.419 168.341 520.627C168.085 518.822 168.388 516.982 169.248 515.107C170.122 513.221 171.583 511.443 173.629 509.774C175.582 508.181 177.66 507.039 179.863 506.348C182.069 505.634 184.316 505.35 186.604 505.497L186.539 511.724C185.108 511.652 183.606 511.859 182.034 512.346C180.45 512.819 179.06 513.543 177.864 514.519C177.014 515.212 176.358 515.968 175.897 516.787C175.439 517.581 175.212 518.375 175.217 519.168C175.235 519.95 175.504 520.659 176.024 521.297C176.534 521.922 177.162 522.272 177.91 522.348C178.658 522.424 179.485 522.325 180.39 522.051C181.285 521.764 182.546 521.289 184.173 520.625L184.725 520.407C187.175 519.449 189.313 518.801 191.139 518.462C192.967 518.099 194.687 518.146 196.298 518.602C197.912 519.034 199.353 520.027 200.621 521.582C202.041 523.323 202.844 525.202 203.029 527.219C203.216 529.213 202.82 531.196 201.84 533.168C200.862 535.117 199.383 536.898 197.403 538.513Z" fill="#3E3E3F" fill-opacity="0.05"/>
</svg>
