<svg width="575" height="802" viewBox="0 0 575 802" fill="none" xmlns="http://www.w3.org/2000/svg">
<path fill-rule="evenodd" clip-rule="evenodd" d="M-190.83 356.363C-191.363 450.825 -132.855 639.009 86.9575 627.743H90.1632L92.5137 628.181L93.8028 628.56L95.1676 629.621L95.9259 630.531V632.654L95.1676 633.64L93.8028 635.232C81.0938 644.437 43.1956 659.401 -15.8138 647.704C47.0207 677.564 236.654 661.546 285.628 466.441L286.969 462.736L287.895 460.946L289.006 458.785C289.418 458.333 290.315 457.366 290.611 457.119C290.908 456.872 291.969 456.151 292.463 455.822H294.439L295.55 456.316L296.352 457.427L297.032 459.65L297.649 461.81C302.088 482.568 300.302 519.363 275.862 570.86C332.475 505.649 354.155 322.182 196.343 226.53L193.462 224.245L191.206 222.164L189.992 220.314L188.777 218.52L188.314 216.726V214.76L189.182 213.025L191.206 212.216H197.336L201.385 212.619C222.532 216.047 269.098 238.449 318.34 295.333C272.386 221.11 117.865 96.0543 -66.7214 238.598L-69.0254 240.005L-70.8047 240.561H-72.9176L-74.4744 240.005L-75.0304 238.598L-74.7524 236.557L-74.1408 234.222L-73.1956 231.497C-55.8101 198.477 -11.4633 156.509 74.3635 135.909C-24.0725 147.601 -211.754 254.475 -130.204 489.234L-129.633 490.927L-129.209 493.048V494.887L-129.633 496.797L-130.907 498.07H-132.887L-134.737 497.485L-137.025 495.679C-150.456 485.793 -177.88 444.159 -190.83 356.363ZM-124.076 344.663C-142.821 424.937 -91.7733 581.069 78.9432 573.764H81.9539L85.2213 574.125L87.5033 574.747L89.3186 575.629L90.1484 576.459V577.807L88.5406 579.674L86.4142 581.023L83.5098 582.475C59.1277 592.9 2.76219 597.698 -45.9099 574.747C14.5848 614.907 185.376 625.82 237.208 450.276L238.254 447.561L239.44 445.413C239.687 445.067 240.225 444.316 240.403 444.079C240.581 443.842 241.366 443.239 241.736 442.968H242.699L243.588 444.449L244.329 446.598L244.996 448.894L245.515 451.932C248.378 476.036 244.329 511.105 198.137 572.558C258.982 520.924 313.779 363.733 165.765 264.127L164.125 262.713L162.838 261.147L162.11 259.971L161.551 258.459L162.11 257.454L162.838 256.838H167.09L171.007 257.173C193.711 263.667 230.052 276.643 272.212 340.842C226.561 248.261 97.4894 174.014 -29.5421 273.114L-31.9427 274.905L-34.5791 276.263L-36.5764 277.142H-38.2542L-39.6922 276.263V274.106L-38.9732 271.63L-37.7748 268.834C-25.3866 246.605 3.76459 216.396 72.0357 197.965C-4.13987 203.489 -145.045 294.727 -84.0403 464.785L-83.0962 467.685L-82.5845 469.817V471.779L-83.0962 473.655L-84.0403 474.081L-86.6779 472.973L-89.0658 471.097C-105.385 457.079 -128.124 417.541 -124.076 344.663ZM14.8784 517.281C-104.063 461.738 -78.3885 332.841 -38.3967 290.96C-62.5763 325.801 -67.9389 373.526 -60.1883 390.452L-59.5491 391.829L-58.7134 392.861H-57.8776L-57.2877 392.468L-56.5994 391.583L-56.0094 390.452L-55.5125 388.404C-40.2012 264.288 75.6693 234.921 145.284 262.777C84.1787 248.484 55.302 264.419 43.8404 272.559L42.5541 273.587L41.9661 274.727V276.013L42.5541 276.748L44.0977 277.186H47.6656C179.492 253.52 234.51 367.251 228.424 429.767C223.495 373.217 202.988 346.238 187.523 335.644L185.899 334.658L184.466 334.31L183.579 334.658L183.173 335.644V337.151L183.579 338.601L184.466 340.668C248.766 455.986 160.64 542.958 95.9121 559.652C151.095 535.793 166.556 507.802 171.913 492.885L172.407 490.065V488.514L171.349 487.739H169.587L167.331 488.514L165.427 490.065L163.875 491.67C77.7103 584.26 -34.041 531.851 -69.0524 474.107C-33.5828 515.616 -1.02087 525.542 17.4941 525.542H19.4282L21.1862 525.015L21.8894 523.872V522.729L21.1862 521.762L19.4282 520.18L17.4941 518.862L14.8784 517.281ZM38.7906 333.612C38.7906 324.101 46.5011 316.39 56.0125 316.39C65.5239 316.39 73.2344 324.101 73.2344 333.612V423.534C73.2344 433.045 65.5239 440.756 56.0125 440.756C46.5011 440.756 38.7906 433.045 38.7906 423.534V333.612ZM-5.0073 344.937C-5.0073 335.426 2.70322 327.715 12.2146 327.715C21.726 327.715 29.4366 335.426 29.4366 344.937V423.534C29.4366 433.045 21.726 440.756 12.2146 440.756C2.70322 440.756 -5.0073 433.045 -5.0073 423.534V344.937ZM99.9001 320.356C90.3886 320.356 82.6781 328.066 82.6781 337.578V423.534C82.6781 433.045 90.3886 440.756 99.9001 440.756C109.411 440.756 117.122 433.045 117.122 423.534V337.578C117.122 328.066 109.411 320.356 99.9001 320.356ZM126.234 352.584C126.234 343.073 133.944 335.362 143.456 335.362C152.967 335.362 160.677 343.073 160.677 352.584V423.534C160.677 433.045 152.967 440.756 143.456 440.756C133.944 440.756 126.234 433.045 126.234 423.534V352.584ZM-18.1142 451.721L-18.3916 451.278C-18.8096 450.612 -19.1049 449.876 -19.2635 449.105C-19.388 448.5 -19.4268 447.88 -19.3786 447.264L-19.3529 446.935C-19.3166 446.471 -19.244 446.01 -19.1358 445.557L-16.6568 435.183C-16.5453 434.717 -16.3662 434.269 -16.1251 433.854L-16.066 433.753C-15.8403 433.365 -15.5536 433.015 -15.2169 432.718C-14.866 432.409 -14.4657 432.16 -14.0326 431.983L-13.9957 431.968C-13.4639 431.75 -12.8948 431.638 -12.3202 431.638H-11.6141C-11.1246 431.638 -10.6422 431.755 -10.207 431.979C-9.85773 432.158 -9.54609 432.403 -9.28889 432.7L-9.12727 432.886C-8.96552 433.073 -8.81996 433.273 -8.69213 433.484L-8.47052 433.851C-8.21735 434.269 -7.9973 434.707 -7.81242 435.16L-3.83253 444.908C-3.67848 445.285 -3.48433 445.645 -3.25342 445.981C-3.03762 446.294 -2.79084 446.586 -2.51679 446.85L-2.46992 446.896C-2.18621 447.17 -1.87494 447.413 -1.54106 447.623C-1.16452 447.86 -0.756152 448.054 -0.335129 448.197C0.188429 448.375 0.741551 448.481 1.29409 448.505L66.373 451.372L67.1422 451.458C67.7348 451.524 68.3134 451.683 68.8571 451.928C69.2114 452.087 69.5485 452.283 69.8633 452.511L69.9979 452.608C70.4678 452.949 70.8957 453.344 71.2727 453.785L71.6011 454.169L72.1409 454.986C72.3015 455.229 72.4342 455.489 72.5365 455.762C72.6994 456.196 72.7829 456.656 72.7829 457.12V473.2C72.7829 473.782 72.6244 474.353 72.3243 474.852C72.235 475.001 72.1338 475.142 72.0217 475.274L71.8548 475.47C71.4866 475.904 71.062 476.287 70.5923 476.609L70.092 476.951C69.2119 477.433 68.2395 477.722 67.2392 477.8L11.5472 482.124H10.418L9.786 482.042C9.3686 481.988 8.95741 481.894 8.55811 481.761L8.44405 481.723C8.11139 481.612 7.7905 481.469 7.48605 481.295C6.95549 480.991 6.48108 480.599 6.08359 480.135L-17.2832 452.85C-17.5877 452.495 -17.8655 452.117 -18.1142 451.721Z" fill="#40916C" fill-opacity="0.15"/>
<path fill-rule="evenodd" clip-rule="evenodd" d="M72.1514 661.41C215.889 661.41 332.422 544.826 332.422 400.999C332.422 257.172 215.889 140.588 72.1514 140.588C-71.5862 140.588 -188.119 257.172 -188.119 400.999C-188.119 544.826 -71.5862 661.41 72.1514 661.41ZM72.1514 673.519C222.583 673.519 344.531 551.508 344.531 400.999C344.531 250.49 222.583 128.478 72.1514 128.478C-78.2799 128.478 -200.229 250.49 -200.229 400.999C-200.229 551.508 -78.2799 673.519 72.1514 673.519Z" fill="#40916C" fill-opacity="0.15"/>
<path fill-rule="evenodd" clip-rule="evenodd" d="M72.1513 747.916C262.592 747.916 417.089 592.659 417.089 401C417.089 209.34 262.592 54.084 72.1513 54.084C-118.289 54.084 -272.786 209.34 -272.786 401C-272.786 592.659 -118.289 747.916 72.1513 747.916ZM72.1513 760.025C269.343 760.025 429.198 599.284 429.198 401C429.198 202.716 269.343 41.9746 72.1513 41.9746C-125.04 41.9746 -284.896 202.716 -284.896 401C-284.896 599.284 -125.04 760.025 72.1513 760.025Z" fill="#40916C" fill-opacity="0.15"/>
<path d="M274.513 636.099L282.537 645.176C350.766 589.235 395.269 506.452 399.115 413.411H386.994C383.148 502.761 340.258 582.342 274.513 636.099Z" fill="#40916C" fill-opacity="0.15"/>
<path d="M266.839 627.418L258.817 618.344C317.403 568.491 355.646 495.449 359.353 413.411H371.474C367.762 499.063 327.935 575.348 266.839 627.418Z" fill="#40916C" fill-opacity="0.15"/>
<path d="M-120.976 626.557L-112.993 617.451C-171.028 567.588 -208.851 494.863 -212.492 413.246H-224.613C-220.965 498.493 -181.542 574.475 -120.976 626.557Z" fill="#40916C" fill-opacity="0.15"/>
<path d="M-136.617 644.396L-128.632 635.289C-193.859 581.511 -236.351 502.215 -240.133 413.246H-252.253C-248.471 505.923 -204.35 588.434 -136.617 644.396Z" fill="#40916C" fill-opacity="0.15"/>
<path d="M-210.302 353.293L-211.185 361.724L-219.626 363.853L-221.474 381.497L-213.654 385.299L-214.54 393.759L-255.159 372.672L-254.402 365.446L-210.302 353.293ZM-243.685 370.647L-228.161 378.209L-226.846 365.654L-243.603 369.865L-245.089 370.105L-243.685 370.647Z" fill="#40916C" fill-opacity="0.15"/>
<path d="M-202.953 326.522C-203.977 330.448 -205.86 333.794 -208.605 336.562C-211.344 339.31 -214.592 341.206 -218.347 342.251C-222.097 343.275 -225.925 343.279 -229.831 342.261C-233.757 341.237 -237.096 339.366 -239.849 336.646C-242.597 333.907 -244.486 330.672 -245.516 326.941C-246.56 323.186 -246.571 319.345 -245.548 315.42C-244.855 312.764 -243.752 310.371 -242.238 308.242C-240.738 306.089 -238.943 304.283 -236.853 302.826L-232.015 308.873C-233.381 309.873 -234.593 311.121 -235.651 312.618C-236.723 314.091 -237.483 315.686 -237.931 317.405C-238.547 319.768 -238.514 322.123 -237.833 324.47C-237.151 326.817 -235.924 328.868 -234.15 330.623C-232.37 332.359 -230.221 333.556 -227.702 334.212C-225.183 334.869 -222.723 334.874 -220.323 334.227C-217.917 333.561 -215.844 332.37 -214.104 330.655C-212.364 328.939 -211.186 326.9 -210.57 324.537C-210.107 322.76 -209.962 321.046 -210.137 319.394C-210.331 317.738 -210.839 315.968 -211.662 314.085L-204.453 311.271C-203.326 313.588 -202.621 316.045 -202.338 318.642C-202.056 321.24 -202.261 323.866 -202.953 326.522Z" fill="#40916C" fill-opacity="0.15"/>
<path d="M-182.93 271.489L-186.298 279.267L-194.99 278.77L-202.038 295.05L-195.716 301.02L-199.096 308.827L-231.533 276.54L-228.646 269.872L-182.93 271.489ZM-219.979 278.045L-207.433 289.91L-202.418 278.325L-219.666 277.323L-221.156 277.107L-219.979 278.045Z" fill="#40916C" fill-opacity="0.15"/>
<path d="M-178.472 263.332L-214.333 240.46L-206.08 227.519C-203.888 224.082 -201.089 221.438 -197.683 219.589C-194.294 217.729 -190.698 216.838 -186.895 216.918C-183.092 216.998 -179.523 218.101 -176.188 220.228C-172.853 222.356 -170.347 225.127 -168.671 228.541C-167.001 231.928 -166.287 235.556 -166.527 239.424C-166.774 243.264 -167.989 246.894 -170.17 250.314L-178.472 263.332ZM-176.583 245.901C-175.226 243.774 -174.488 241.528 -174.368 239.163C-174.237 236.781 -174.716 234.548 -175.805 232.465C-176.901 230.354 -178.52 228.615 -180.664 227.248C-182.809 225.88 -185.068 225.145 -187.444 225.042C-189.82 224.939 -192.061 225.449 -194.165 226.572C-196.27 227.695 -198.006 229.329 -199.374 231.473L-203.362 237.726L-180.62 252.231L-176.583 245.901Z" fill="#40916C" fill-opacity="0.15"/>
<path d="M-132.943 202.235L-153.131 225.521L-185.269 197.658L-165.378 174.716L-159.705 179.634L-174.222 196.377L-166.765 202.842L-155.164 189.461L-149.811 194.102L-161.412 207.483L-153.429 214.404L-138.616 197.317L-132.943 202.235Z" fill="#40916C" fill-opacity="0.15"/>
<path d="M-123.201 192.58L-129.585 197.828L-152.594 161.682L-145.438 155.8L-117.814 173.34L-129.698 142.863L-122.542 136.98L-91.4917 166.557L-97.8998 171.824L-118.97 151.052L-107.765 179.893L-113.261 184.41L-139.387 167.833L-123.201 192.58Z" fill="#40916C" fill-opacity="0.15"/>
<path d="M-74.3403 156.457L-81.3085 160.787L-103.759 124.66L-96.7909 120.33L-74.3403 156.457Z" fill="#40916C" fill-opacity="0.15"/>
<path d="M-34.0429 135.822L-41.6867 139.486L-47.9223 133.411L-63.9198 141.078L-63.0622 149.732L-70.7333 153.409L-74.0474 107.762L-67.4955 104.622L-34.0429 135.822ZM-66.3122 116.476L-64.622 133.66L-53.2381 128.204L-65.6024 116.136L-66.5854 114.996L-66.3122 116.476Z" fill="#40916C" fill-opacity="0.15"/>
<path d="M-10.3762 127.608L-20.1613 86.2151L-5.22441 82.6841C-1.25694 81.7462 2.59256 81.8006 6.32404 82.8472C10.0509 83.8741 13.2504 85.7412 15.9228 88.4484C18.5951 91.1555 20.3863 94.4339 21.2963 98.2836C22.2064 102.133 22.0727 105.867 20.8954 109.484C19.7331 113.077 17.718 116.177 14.8502 118.783C11.9973 121.365 8.59692 123.123 4.64909 124.057L-10.3762 127.608ZM3.12437 116.422C5.57949 115.842 7.67409 114.745 9.40817 113.133C11.1619 111.515 12.3739 109.58 13.0441 107.327C13.7294 105.05 13.7795 102.674 13.1944 100.199C12.6094 97.724 11.5007 95.6219 9.86832 93.8925C8.23592 92.1631 6.27354 90.9679 3.98123 90.3069C1.68892 89.646 -0.694621 89.608 -3.16938 90.193L-10.3874 91.8993L-4.18203 118.149L3.12437 116.422Z" fill="#40916C" fill-opacity="0.15"/>
<path d="M64.7666 115.547L34.0596 118.163L30.4491 75.7827L60.7037 73.2053L61.341 80.686L39.2608 82.567L40.0986 92.4005L57.7446 90.8972L58.3459 97.9556L40.6999 99.4589L41.5967 109.986L64.1294 108.067L64.7666 115.547Z" fill="#40916C" fill-opacity="0.15"/>
<path d="M106.142 117.811L97.9755 117.032L101.29 82.3147L88.8737 81.1293L89.6016 73.5048L122.631 76.6581L121.903 84.2826L109.457 83.0944L106.142 117.811Z" fill="#40916C" fill-opacity="0.15"/>
<path d="M156.978 127.88L148.727 125.938L147.683 117.295L130.415 113.229L125.654 120.505L117.374 118.555L143.431 80.9313L150.504 82.5965L156.978 127.88ZM143.988 92.5698L134.523 107.011L146.811 109.905L144.754 92.7501L144.704 91.2455L143.988 92.5698Z" fill="#40916C" fill-opacity="0.15"/>
<path d="M194.406 142.424L165.777 131.016L181.521 91.5033L209.729 102.743L206.95 109.718L186.364 101.515L182.71 110.683L199.162 117.238L196.54 123.819L180.088 117.264L176.177 127.078L197.185 135.45L194.406 142.424Z" fill="#40916C" fill-opacity="0.15"/>
<path d="M234.056 164.546L225.509 159.672L223.299 136.84L214.342 139.958L208.599 150.03L201.472 145.967L222.541 109.017L229.668 113.081L219.861 130.28L244.342 121.448L253.073 126.427L231.013 134.13L234.056 164.546Z" fill="#40916C" fill-opacity="0.15"/>
<path d="M251.612 178.519L246.151 173.959L260.631 130.638L267.417 136.304L256.34 167.519L284.52 150.584L291.189 156.152L276.619 164.771L271.186 179.875L299.741 163.293L306.503 168.939L266.438 190.898L261.07 186.416L266.578 170.23L251.612 178.519Z" fill="#40916C" fill-opacity="0.15"/>
<path d="M294.646 222.325C292.085 219.18 290.499 215.682 289.889 211.832C289.291 207.998 289.681 204.258 291.058 200.612C292.448 196.981 294.708 193.892 297.838 191.343C300.983 188.781 304.467 187.194 308.288 186.58C312.122 185.983 315.848 186.371 319.466 187.746C323.112 189.123 326.216 191.384 328.778 194.53C331.339 197.675 332.919 201.165 333.517 204.999C334.143 208.836 333.768 212.563 332.394 216.181C331.032 219.815 328.779 222.912 325.633 225.474C322.503 228.023 319.014 229.603 315.164 230.213C311.327 230.839 307.585 230.463 303.939 229.086C300.306 227.724 297.208 225.471 294.646 222.325ZM300.75 217.355C302.305 219.264 304.223 220.63 306.506 221.451C308.802 222.289 311.176 222.503 313.628 222.094C316.092 221.701 318.334 220.682 320.353 219.038C322.387 217.381 323.847 215.386 324.731 213.052C325.628 210.733 325.891 208.372 325.52 205.967C325.165 203.549 324.217 201.394 322.675 199.5C321.132 197.606 319.214 196.241 316.918 195.404C314.622 194.566 312.242 194.344 309.777 194.738C307.326 195.147 305.09 196.173 303.071 197.817C301.053 199.461 299.595 201.442 298.698 203.761C297.813 206.095 297.549 208.47 297.904 210.888C298.259 213.306 299.208 215.461 300.75 217.355Z" fill="#40916C" fill-opacity="0.15"/>
<path d="M317.217 252.534L313.264 245.518L350.322 224.639L354.378 231.84L339.219 263.523L364.275 249.406L368.228 256.421L331.171 277.3L327.426 270.654L343.012 238L317.217 252.534Z" fill="#40916C" fill-opacity="0.15"/>
<path d="M354.547 300.857L346.717 281.491L352.807 279.029L360.637 298.395L354.547 300.857Z" fill="#40916C" fill-opacity="0.15"/>
<path d="M345.158 311.595L386.252 300.618L390.213 315.447C391.265 319.386 391.322 323.235 390.384 326.995C389.465 330.75 387.691 334.003 385.062 336.752C382.433 339.501 379.208 341.387 375.386 342.407C371.564 343.428 367.829 343.403 364.179 342.33C360.554 341.272 357.397 339.348 354.709 336.556C352.045 333.779 350.19 330.431 349.143 326.512L345.158 311.595ZM356.73 324.767C357.381 327.205 358.538 329.267 360.2 330.953C361.867 332.66 363.837 333.815 366.108 334.42C368.404 335.039 370.781 335.021 373.238 334.364C375.694 333.708 377.764 332.539 379.445 330.857C381.127 329.176 382.265 327.18 382.859 324.869C383.454 322.559 383.423 320.175 382.766 317.718L380.852 310.553L354.792 317.514L356.73 324.767Z" fill="#40916C" fill-opacity="0.15"/>
<path d="M357.328 375.317C356.943 371.279 357.565 367.489 359.194 363.948C360.825 360.427 363.225 357.532 366.394 355.263C369.565 353.015 373.16 351.699 377.178 351.316C381.217 350.931 384.995 351.543 388.514 353.154C392.035 354.785 394.919 357.176 397.166 360.327C399.435 363.497 400.762 367.1 401.147 371.139C401.532 375.177 400.909 378.957 399.278 382.478C397.669 386.017 395.289 388.91 392.138 391.157C388.989 393.423 385.395 394.749 381.357 395.134C377.338 395.518 373.559 394.895 370.018 393.266C366.479 391.657 363.575 389.268 361.306 386.098C359.039 382.949 357.713 379.355 357.328 375.317ZM365.164 374.57C365.397 377.021 366.236 379.222 367.679 381.173C369.123 383.143 370.979 384.639 373.246 385.659C375.514 386.7 377.945 387.097 380.536 386.85C383.148 386.601 385.47 385.751 387.501 384.3C389.533 382.87 391.063 381.051 392.089 378.845C393.136 376.637 393.543 374.317 393.311 371.886C393.079 369.455 392.241 367.254 390.796 365.283C389.351 363.313 387.495 361.807 385.226 360.766C382.959 359.746 380.53 359.359 377.939 359.606C375.347 359.853 373.034 360.692 371.002 362.123C368.971 363.573 367.432 365.403 366.385 367.611C365.339 369.819 364.932 372.139 365.164 374.57Z" fill="#40916C" fill-opacity="0.15"/>
<path d="M-125.755 662.661C-126.96 661.557 -127.961 660.094 -128.755 658.272C-129.521 656.449 -129.987 654.477 -130.152 652.356L-122.88 651.092C-122.71 652.342 -122.425 653.465 -122.024 654.461C-121.594 655.456 -121.074 656.233 -120.464 656.792C-119.377 657.787 -118.208 658.228 -116.956 658.116C-115.704 658.003 -114.485 657.3 -113.299 656.005L-93.0003 633.831L-86.9713 639.351L-107.638 661.926C-109.396 663.846 -111.309 665.159 -113.378 665.865C-115.432 666.584 -117.528 666.676 -119.666 666.142C-121.79 665.593 -123.819 664.433 -125.755 662.661Z" fill="#40916C" fill-opacity="0.15"/>
<path d="M-84.893 690.373C-88.2896 688.156 -90.8639 685.306 -92.6157 681.824C-94.3506 678.353 -95.1163 674.671 -94.9129 670.779C-94.6925 666.898 -93.4789 663.267 -91.2721 659.887C-89.0542 656.49 -86.2183 653.919 -82.7644 652.173C-79.2935 650.438 -75.6259 649.675 -71.7614 649.885C-67.8689 650.088 -64.2244 651.299 -60.8277 653.517C-57.431 655.735 -54.8652 658.579 -53.1303 662.05C-51.3674 665.515 -50.5907 669.18 -50.8001 673.044C-50.9925 676.92 -52.1977 680.556 -54.4155 683.952C-56.6223 687.332 -59.4666 689.898 -62.9485 691.65C-66.4135 693.413 -70.0922 694.192 -73.9846 693.989C-77.8602 693.796 -81.4963 692.591 -84.893 690.373ZM-80.5897 683.783C-78.528 685.129 -76.2848 685.846 -73.8601 685.935C-71.4185 686.035 -69.092 685.517 -66.8805 684.382C-64.6521 683.258 -62.8263 681.606 -61.4029 679.426C-59.9684 677.229 -59.1848 674.885 -59.0519 672.392C-58.902 669.911 -59.3693 667.581 -60.4538 665.403C-61.5271 663.208 -63.0862 661.443 -65.131 660.107C-67.1757 658.772 -69.4189 658.055 -71.8605 657.955C-74.3021 657.855 -76.6371 658.367 -78.8655 659.491C-81.077 660.627 -82.8944 662.284 -84.3178 664.464C-85.7412 666.644 -86.5278 668.975 -86.6776 671.456C-86.8105 673.948 -86.3403 676.292 -85.2669 678.487C-84.1935 680.682 -82.6344 682.448 -80.5897 683.783Z" fill="#40916C" fill-opacity="0.15"/>
<path d="M-21.5367 715.535L-30.1102 712.026L-30.8394 696.223C-31.6766 695.924 -32.31 695.687 -32.7396 695.511L-39.3238 692.817L-44.7357 706.041L-52.3286 702.934L-36.2191 663.569L-19.9686 670.219C-17.2976 671.312 -15.1695 672.826 -13.5845 674.761C-11.9732 676.685 -11.0123 678.867 -10.7019 681.305C-10.3651 683.733 -10.7241 686.236 -11.7789 688.813C-12.8414 691.41 -14.3246 693.409 -16.2284 694.81C-18.1245 696.193 -20.2991 697.004 -22.7521 697.243L-21.5367 715.535ZM-36.5835 686.12L-28.5983 689.388C-27.3282 689.908 -26.0873 690.1 -24.8756 689.963C-23.664 689.826 -22.5924 689.393 -21.6609 688.662C-20.7217 687.912 -19.9999 686.921 -19.4954 685.688C-18.9756 684.418 -18.8048 683.201 -18.983 682.038C-19.1611 680.875 -19.6458 679.848 -20.4371 678.957C-21.202 678.055 -22.2008 677.352 -23.4336 676.848L-31.4468 673.568L-36.5835 686.12Z" fill="#40916C" fill-opacity="0.15"/>
<path d="M25.5391 707.034L33.1588 708.606L30.0379 723.727C27.8344 724.818 25.4038 725.511 22.7461 725.808C20.1081 726.108 17.4846 725.989 14.8755 725.451C10.9026 724.631 7.4636 722.921 4.55846 720.323C1.67717 717.708 -0.381489 714.553 -1.61746 710.856C-2.82959 707.144 -3.02768 703.311 -2.21176 699.358C-1.39583 695.405 0.299496 691.984 2.87421 689.094C5.4687 686.209 8.60434 684.146 12.2812 682.906C15.9777 681.67 19.8125 681.462 23.7854 682.282C26.434 682.829 28.8701 683.806 31.0939 685.213C33.3217 686.6 35.2072 688.298 36.7504 690.306L30.7757 695.441C29.7113 694.108 28.4339 692.958 26.9437 691.991C25.4773 691.009 23.8942 690.342 22.1943 689.991C19.8027 689.497 17.4526 689.651 15.144 690.452C12.8355 691.253 10.8502 692.585 9.18819 694.447C7.52621 696.309 6.43207 698.515 5.9058 701.065C5.37953 703.614 5.50477 706.103 6.28148 708.53C7.06227 710.938 8.34993 712.986 10.1445 714.675C11.9628 716.349 14.058 717.43 16.4298 717.92C18.7622 718.401 21.05 718.399 23.2933 717.914L25.5391 707.034Z" fill="#40916C" fill-opacity="0.15"/>
<path d="M78.6979 729.461L47.892 728.586L49.1 686.069L79.452 686.931L79.2387 694.436L57.0875 693.807L56.8072 703.672L74.5101 704.175L74.3088 711.256L56.6061 710.753L56.306 721.314L78.9111 721.956L78.6979 729.461Z" fill="#40916C" fill-opacity="0.15"/>
<path d="M144.46 720.608L135.431 722.676L125.735 710.176C124.878 710.414 124.223 710.585 123.771 710.688L116.836 712.277L120.027 726.205L112.03 728.037L102.532 686.577L119.648 682.656C122.461 682.012 125.073 682.024 127.483 682.694C129.908 683.339 131.95 684.569 133.608 686.384C135.281 688.175 136.429 690.428 137.051 693.142C137.677 695.877 137.616 698.365 136.866 700.607C136.112 702.83 134.801 704.745 132.934 706.353L144.46 720.608ZM115.221 705.224L123.631 703.298C124.969 702.991 126.093 702.433 127.005 701.624C127.917 700.815 128.544 699.843 128.884 698.709C129.22 697.555 129.24 696.329 128.942 695.031C128.636 693.693 128.075 692.6 127.259 691.752C126.444 690.903 125.456 690.343 124.296 690.07C123.152 689.773 121.93 689.773 120.632 690.071L112.192 692.004L115.221 705.224Z" fill="#40916C" fill-opacity="0.15"/>
<path d="M171.075 714.788L163.397 717.68L148.405 677.876L156.082 674.984L171.075 714.788Z" fill="#40916C" fill-opacity="0.15"/>
<path d="M208.128 699.516C204.579 701.48 200.855 702.42 196.958 702.339C193.079 702.247 189.467 701.2 186.123 699.199C182.796 697.187 180.156 694.415 178.202 690.883C176.239 687.333 175.294 683.624 175.368 679.754C175.46 675.875 176.502 672.277 178.496 668.96C180.498 665.615 183.274 662.962 186.824 660.998C190.373 659.035 194.088 658.099 197.967 658.19C201.854 658.254 205.456 659.283 208.773 661.277C212.108 663.261 214.757 666.028 216.72 669.578C218.674 673.11 219.61 676.825 219.528 680.722C219.464 684.609 218.431 688.225 216.429 691.569C214.445 694.904 211.678 697.553 208.128 699.516ZM204.319 692.628C206.473 691.437 208.157 689.79 209.371 687.689C210.602 685.578 211.234 683.28 211.266 680.794C211.315 678.299 210.71 675.912 209.45 673.634C208.18 671.338 206.475 669.548 204.335 668.264C202.212 666.97 199.935 666.293 197.502 666.231C195.06 666.152 192.77 666.704 190.633 667.886C188.496 669.068 186.812 670.714 185.581 672.825C184.35 674.936 183.71 677.239 183.66 679.734C183.628 682.22 184.242 684.602 185.502 686.88C186.762 689.158 188.453 690.944 190.576 692.238C192.716 693.522 195.008 694.204 197.45 694.283C199.892 694.362 202.182 693.81 204.319 692.628Z" fill="#40916C" fill-opacity="0.15"/>
<path d="M249.234 674.653C246.638 676.771 243.775 678.273 240.644 679.16C237.515 680.019 234.322 680.175 231.064 679.63L231.778 672.171C234.126 672.496 236.377 672.366 238.531 671.781C240.685 671.196 242.606 670.215 244.295 668.837C246.062 667.396 247.161 665.901 247.59 664.352C248.036 662.791 247.742 661.377 246.708 660.11C246.02 659.265 245.195 658.766 244.236 658.611C243.291 658.443 242.139 658.563 240.778 658.97C239.42 659.348 237.637 660.021 235.431 660.988C233.208 661.967 231.099 662.685 229.101 663.142C227.12 663.587 225.107 663.562 223.063 663.067C221.019 662.573 219.187 661.333 217.566 659.346C216.163 657.626 215.318 655.711 215.03 653.602C214.729 651.478 215.085 649.312 216.098 647.105C217.126 644.886 218.845 642.794 221.253 640.829C223.552 638.954 225.998 637.61 228.591 636.797C231.187 635.956 233.831 635.622 236.525 635.795L236.448 643.125C234.764 643.04 232.996 643.283 231.145 643.856C229.281 644.413 227.645 645.265 226.238 646.413C225.237 647.23 224.465 648.119 223.923 649.083C223.383 650.018 223.116 650.952 223.122 651.885C223.143 652.805 223.46 653.64 224.073 654.391C224.672 655.126 225.412 655.538 226.292 655.628C227.173 655.717 228.146 655.601 229.211 655.278C230.264 654.941 231.748 654.381 233.663 653.6L234.313 653.343C237.196 652.216 239.712 651.453 241.861 651.054C244.013 650.627 246.037 650.682 247.934 651.219C249.833 651.727 251.529 652.896 253.021 654.726C254.692 656.775 255.637 658.986 255.855 661.361C256.076 663.707 255.61 666.041 254.456 668.362C253.305 670.655 251.565 672.752 249.234 674.653Z" fill="#40916C" fill-opacity="0.15"/>
<rect x="30.7767" y="10.5254" width="5.38834" height="780.95" fill="#40916C"/>
<rect x="558.835" y="10.5254" width="5.38834" height="780.95" fill="#40916C"/>
<rect x="30.7767" y="10.5254" width="533.446" height="5.26246" fill="#40916C"/>
<rect x="30.7767" y="786.213" width="533.446" height="5.26246" fill="#40916C"/>
<rect x="20" width="5.38834" height="802" fill="#40916C"/>
<rect x="569.612" width="5.38834" height="802" fill="#40916C"/>
<rect x="20" width="555" height="5.26246" fill="#40916C"/>
<rect x="20" y="796.737" width="555" height="5.26246" fill="#40916C"/>
<rect x="41.5532" y="21.0498" width="5.38834" height="759.9" fill="#40916C"/>
<rect x="548.058" y="21.0498" width="5.38834" height="759.9" fill="#40916C"/>
<rect x="41.5532" y="21.0498" width="511.893" height="5.26246" fill="#40916C"/>
<rect x="41.5532" y="775.688" width="511.893" height="5.26246" fill="#40916C"/>
</svg>
