<svg width="95" height="95" viewBox="0 0 95 95" fill="none" xmlns="http://www.w3.org/2000/svg">
<path d="M39.0751 43.482L38.2718 42.545C38.2072 42.4696 38.1501 42.3875 38.1132 42.2953C37.92 41.8123 37.7939 40.9203 38.5236 40.3445C39.3289 39.709 40.264 39.3076 40.6308 39.1864C41.2525 38.9918 42.5526 38.836 43.2974 39.5494C43.4923 39.7361 43.6312 39.9992 43.6982 40.261C43.7683 40.5351 43.8608 40.9806 43.9729 41.6773C44.1984 43.0776 44.334 48.7838 44.3735 51.4618V53.1764C44.3735 53.3007 44.3593 53.4269 44.2976 53.5347C44.142 53.8068 43.7826 54.1463 43.1391 54.1076C42.3483 54.06 41.3927 53.9621 41.0138 53.9191C40.5722 53.8068 39.6911 53.3857 39.699 52.6003C39.7069 51.8149 39.6367 48.129 39.6006 46.3842L39.3694 44.1665C39.343 43.9136 39.2404 43.6748 39.0751 43.482Z" fill="#3E3E3F"/>
<path d="M46.485 38.3226C46.0844 38.3986 45.752 38.5823 45.4839 38.8086C44.7225 39.4511 44.6681 40.5497 44.7163 41.5466L45.2636 52.8795C45.2878 53.2337 45.435 53.5422 45.6333 53.7991C46.186 54.5155 47.1641 54.6568 48.0648 54.722L48.7634 54.7727C49.0478 54.7995 49.2845 54.7368 49.4759 54.6313C50.0177 54.3328 50.1162 53.6315 50.1968 53.0167L50.8562 47.9882L51.2468 41.9426V40.7363C51.2468 40.3748 51.1752 40.0169 51.036 39.6835C50.9536 39.486 50.8524 39.2947 50.709 39.1362C49.5725 37.8802 47.7813 38.0766 46.485 38.3226Z" fill="#3E3E3F"/>
<path d="M52.173 40.413C52.211 40.0444 52.4942 39.3531 53.323 39.5361C54.3589 39.7648 55.3949 40.0602 57.1436 40.9659C57.6439 41.225 57.9793 41.4927 58.1981 41.7436C58.624 42.2319 58.5368 42.9254 58.4535 43.5884C58.4391 43.7025 58.4249 43.8159 58.4134 43.9271L58.3696 44.3504L58.0534 46.1455C57.6949 47.9313 56.609 51.8294 54.9329 54.4458C54.5762 55.0027 53.9554 55.314 53.2967 55.3523C53.1287 55.3621 52.9602 55.3536 52.794 55.3268L51.977 55.1953C51.5471 55.1261 51.1793 54.8475 50.9953 54.4516C50.9142 54.2773 50.8723 54.0874 50.8723 53.8951V53.2708C50.8723 52.9054 50.9226 52.5421 51.0052 52.1862C51.4614 50.2189 52.173 45.8455 52.173 40.413Z" fill="#3E3E3F"/>
<path d="M38.2313 54.0935C37.657 54.3395 36.8876 54.3276 36.3183 54.2547C36.0514 54.2205 35.7944 54.4289 35.8947 54.6793C36.2817 55.6455 37.754 55.9309 38.775 55.957C38.997 55.9627 39.1716 55.7783 39.1716 55.5555V55.23C39.1716 55.1653 39.1566 55.1016 39.1277 55.0438L38.734 54.2539C38.7038 54.1933 38.6571 54.1426 38.5992 54.1078C38.4881 54.0409 38.3505 54.0424 38.2313 54.0935Z" fill="#3E3E3F"/>
<path d="M39.8387 54.6905C40.0774 55.3732 40.7791 56.1855 42.4235 56.2103C44.0615 56.235 44.6696 55.5289 44.8304 54.9224C44.8979 54.6679 44.6364 54.4961 44.3876 54.5804L43.899 54.7459C43.8563 54.7604 43.8114 54.7678 43.7663 54.7678H41.8412C41.7996 54.7678 41.7583 54.7615 41.7186 54.7492L40.2772 54.3022C40.0092 54.2191 39.7458 54.4249 39.8387 54.6905Z" fill="#3E3E3F"/>
<path d="M18.666 44.3516V53.0683C18.666 53.2983 18.8518 53.4846 19.081 53.4846H23.6673C23.8965 53.4846 24.0823 53.2983 24.0823 53.0683V51.9959C24.0823 51.766 23.8965 51.5796 23.6673 51.5796H21.1444C20.9151 51.5796 20.7293 51.3932 20.7293 51.1633V46.3274C20.7293 46.0975 20.9151 45.9111 21.1444 45.9111H23.6673C23.8965 45.9111 24.0823 45.7247 24.0823 45.4947V44.3516C24.0823 44.1217 23.8965 43.9353 23.6673 43.9353H19.081C18.8518 43.9353 18.666 44.1217 18.666 44.3516Z" fill="#3E3E3F"/>
<path d="M24.9702 53.1918V41.5334C24.9702 41.3035 25.156 41.1171 25.3852 41.1171H26.5268C26.7528 41.1171 26.9373 41.2985 26.9418 41.5252L27.018 45.368C27.0225 45.5946 27.2069 45.776 27.4329 45.776H27.7429C27.9721 45.776 28.1579 45.5896 28.1579 45.3597V41.5334C28.1579 41.3035 28.3437 41.1171 28.5729 41.1171L29.6601 41.117C29.8894 41.117 30.0752 41.3034 30.0752 41.5333V53.1918C30.0752 53.4217 29.8894 53.6081 29.6602 53.6081L28.6564 53.6081C28.4262 53.6081 28.24 53.4202 28.2414 53.1892L28.2709 48.3962C28.2723 48.1653 28.0861 47.9773 27.8558 47.9773H27.3487C27.1195 47.9773 26.9337 48.1637 26.9337 48.3936V53.1918C26.9337 53.4217 26.7478 53.6081 26.5186 53.6081H25.3852C25.156 53.6081 24.9702 53.4217 24.9702 53.1918Z" fill="#3E3E3F"/>
<path d="M18.5815 42.5881V41.5334C18.5815 41.3035 18.7673 41.1171 18.9965 41.1171H23.5914C23.8206 41.1171 24.0064 41.3035 24.0064 41.5334V42.5881C24.0064 42.818 23.8206 43.0044 23.5914 43.0044H18.9965C18.7673 43.0044 18.5815 42.818 18.5815 42.5881Z" fill="#3E3E3F"/>
<path d="M64.6669 41.2286V42.558C64.6669 42.7419 64.8156 42.891 64.9989 42.891H68.6587C68.9271 42.891 69.0845 43.1937 68.9311 43.4145L68.2024 44.4633C68.1403 44.5526 68.0386 44.6059 67.93 44.6059H65.9141C65.7308 44.6059 65.5821 44.755 65.5821 44.9389V46.2996C65.5821 46.4835 65.7308 46.6326 65.9141 46.6326H66.3078C66.5732 46.6326 66.7313 46.9295 66.5839 47.1508L65.0121 49.5098C64.8647 49.7311 65.0228 50.0279 65.2882 50.0279H66.7561C66.8645 50.0279 66.9661 49.9748 67.0282 49.8857L69.1958 46.7749C69.2579 46.6858 69.3595 46.6326 69.4679 46.6326H71.156C71.3393 46.6326 71.488 46.4835 71.488 46.2996V44.9389C71.488 44.755 71.3393 44.6059 71.156 44.6059H70.8188C70.5525 44.6059 70.3945 44.3072 70.5439 44.086L71.5863 42.5424C71.6235 42.4873 71.6434 42.4222 71.6434 42.3557V41.1659C71.6434 40.9806 71.4927 40.831 71.3081 40.8328L64.9956 40.8956C64.8136 40.8974 64.6669 41.046 64.6669 41.2286Z" fill="#3E3E3F"/>
<path d="M66.3221 50.7834H65.1116C64.8824 50.7834 64.6966 50.9698 64.6966 51.1998V53.2464C64.6966 53.4763 64.8824 53.6627 65.1116 53.6627H75.1147C75.3439 53.6627 75.5297 53.4763 75.5297 53.2464V52.0986C75.5297 51.8687 75.3439 51.6823 75.1147 51.6823H67.1521C66.9229 51.6823 66.7371 51.4959 66.7371 51.266V51.1998C66.7371 50.9698 66.5513 50.7834 66.3221 50.7834Z" fill="#3E3E3F"/>
<path d="M70.954 47.2512H73.0737C73.3029 47.2512 73.4887 47.0648 73.4887 46.8349V41.2955C73.4887 41.0656 73.6746 40.8792 73.9038 40.8792H75.0514C75.2806 40.8792 75.4664 41.0656 75.4664 41.2955V50.0294C75.4664 50.2593 75.2806 50.4457 75.0514 50.4457H73.9038C73.6746 50.4457 73.4887 50.2593 73.4887 50.0294V49.6011C73.4887 49.3711 73.3029 49.1847 73.0737 49.1847H70.954C70.7248 49.1847 70.5389 48.9983 70.5389 48.7684V47.6675C70.5389 47.4376 70.7248 47.2512 70.954 47.2512Z" fill="#3E3E3F"/>
<path fill-rule="evenodd" clip-rule="evenodd" d="M47.0555 13.2752C42.584 13.2752 38.3131 14.1372 34.3991 15.7046L34.3949 15.7015L34.3901 15.7082C21.7978 20.755 12.9012 33.1037 12.9012 47.5368C12.9012 66.459 28.1926 81.7985 47.0555 81.7985C65.9185 81.7985 81.2099 66.459 81.2099 47.5368C81.2099 28.6146 65.9185 13.2752 47.0555 13.2752ZM67.3473 73.5289C75.0292 67.4855 79.9649 58.0894 79.9649 47.5368C79.9649 37.0745 75.1133 27.749 67.5438 21.7006C66.3595 22.7437 65.1362 23.6609 63.8843 24.4614C64.636 26.3206 65.1577 28.5631 65.2078 31.2285L64.1705 31.2482C64.1243 28.7951 63.6591 26.7296 62.9866 25.0128C61.0645 26.1459 59.082 27.015 57.0753 27.6535C57.1909 28.826 57.2458 30.0729 57.2138 31.3767L56.1766 31.3511C56.2057 30.1648 56.1603 29.0283 56.0619 27.956C53.2632 28.737 50.4297 29.0834 47.6586 29.0847V31.3014H46.621V29.0691C45.9436 29.0485 45.2707 29.0077 44.6038 28.948C42.3232 28.744 40.1082 28.3189 38.0164 27.7246C37.9169 28.842 37.8929 30.0101 37.977 31.2016L36.9421 31.2751C36.8486 29.9502 36.8822 28.6543 37.0027 27.4205C34.8439 26.7381 32.832 25.8774 31.0343 24.8989C30.5664 25.8405 30.1818 26.8433 29.8978 27.8871C28.7791 31.9974 29.2357 36.6849 32.2594 40.674L32.7624 40.1143C32.8256 40.044 32.8965 39.9812 32.9738 39.9269L32.9942 39.9126C33.4091 39.5513 34.4058 38.7684 35.0733 38.5269L35.327 38.4529C35.44 38.4199 35.557 38.4032 35.6747 38.4032H37.4806C37.6632 38.4032 37.8368 38.3242 37.9571 38.1864L38.5339 37.5253C38.8165 37.1731 39.6363 36.4687 40.654 36.4687L43.0203 36.5923C43.1471 36.5923 43.2639 36.5232 43.3253 36.4119L43.6723 35.7828C43.986 35.2906 45.0449 34.3624 46.544 34.294C48.0407 34.2256 48.3128 34.2978 48.7981 34.4265L48.8003 34.4271C49.1982 34.5326 50.0455 34.9251 50.7476 35.7209C51.0498 36.0634 51.4728 36.3002 51.9277 36.2679C52.0527 36.2591 52.1771 36.2496 52.2858 36.2404C52.9316 36.1852 53.9956 36.2354 54.0894 36.24L54.1031 36.2408C55.0222 36.302 57.2719 37.1126 57.7541 40.2384C57.7581 40.2641 57.7513 40.2909 57.7355 40.3115C57.705 40.3508 57.6495 40.36 57.6081 40.3325L57.0836 39.9841C56.2709 39.3867 54.3049 38.3891 52.3493 38.642C51.8956 38.7007 51.4247 38.5906 51.0569 38.3178C50.2863 37.7462 49.0457 37.0834 47.7284 37.1116C46.5032 37.1377 45.5452 37.6251 44.9566 38.0735C44.6003 38.3449 44.1562 38.5254 43.7127 38.4665C43.5755 38.4483 43.4144 38.4273 43.2258 38.4032C43.1214 38.3898 42.9899 38.3666 42.8393 38.34C42.4112 38.2643 41.8284 38.1614 41.2732 38.18C40.5716 38.2036 39.3303 38.5304 37.8042 40.064C37.5912 40.278 37.3155 40.421 37.0158 40.4538L36.269 40.5355C35.8944 40.601 34.0644 41.4914 33.851 41.71C33.8196 41.7421 33.8736 41.7579 33.9186 41.7587C34.0834 41.7617 34.5167 41.768 34.8161 41.7573C35.1945 41.7439 35.4058 41.6829 35.699 41.5982C35.7662 41.5788 35.838 41.5581 35.9167 41.5365C36.2372 41.4487 36.5386 41.451 36.7532 41.5365C36.9679 41.6221 37.0023 41.7175 37.0761 41.9487L37.0837 41.9726C37.0905 41.9942 37.0972 42.0157 37.1037 42.0368L37.1131 42.0676L37.1222 42.0975C37.2125 42.3975 37.4033 42.6591 37.6145 42.89C37.9071 43.2101 38.2451 43.7242 38.403 44.4151C38.4196 44.4879 38.4267 44.5626 38.4278 44.6373L38.5339 52.316C38.5339 52.7549 38.0633 53.5341 37.3913 53.5774C36.5627 53.6308 35.8833 53.4831 35.5416 52.925C35.0605 52.1393 34.071 49.838 33.9024 46.8435C33.8971 46.7482 33.8819 46.6531 33.856 46.5613L33.305 44.6115L32.4129 42.2158L32.2816 42.3338C28.2794 37.85 27.6081 32.3484 28.8968 27.613C29.2024 26.4901 29.6194 25.4065 30.1303 24.3865C28.7557 23.5749 27.5248 22.6949 26.4716 21.7773C18.957 27.8277 14.1462 37.1187 14.1462 47.5368C14.1462 57.9402 18.9434 67.2197 26.4397 73.2706C27.3637 72.335 28.5236 71.424 29.876 70.5815C28.7688 67.9435 28.5533 65.3852 28.7029 63.7996L29.7358 63.8977C29.6008 65.3279 29.7932 67.6416 30.7775 70.0463C32.5853 69.0235 34.6843 68.1247 36.9872 67.4381C36.8606 65.9382 36.8723 64.6809 36.9398 63.8618L37.9738 63.9475C37.913 64.6853 37.9011 65.8086 38.0049 67.1522C39.5546 66.7431 41.1868 66.4311 42.8766 66.2409C44.0433 66.1096 45.2389 66.0363 46.4556 66.0293V63.8487H47.4931V66.0395C50.3194 66.1113 53.2452 66.5473 56.1735 67.4504C56.3115 65.978 56.3117 64.7143 56.2527 63.8859L57.2876 63.8118C57.3524 64.7214 57.3511 66.135 57.1836 67.7806C59.0649 68.4308 60.9426 69.2788 62.7909 70.3519C64.3932 67.674 64.8923 64.811 64.7053 62.165C64.5306 59.6924 63.7554 57.4026 62.7059 55.6241C62.1399 54.665 61.5058 53.8733 60.8586 53.281V53.29C60.8443 53.6334 60.6351 54.5691 59.9126 55.5639L58.6199 57.0206L58.5576 57.0945C58.3988 57.283 58.2569 57.4854 58.1338 57.6992L57.9824 57.9621L57.7699 58.3706C57.4757 59.2056 56.4568 60.8612 54.7343 60.8043C54.6629 60.8014 54.588 60.7995 54.5107 60.7974C54.1166 60.7871 53.6599 60.7752 53.2786 60.6267C52.4925 60.3205 52.2792 60.1464 52.0886 59.9909C51.9929 59.9128 51.9029 59.8394 51.749 59.7562L51.0936 59.3776C50.6967 59.1484 50.2607 58.9955 49.8079 58.927C49.6265 58.8996 49.4433 58.8858 49.2599 58.8858H48.0401C47.9512 58.8858 47.8625 58.8748 47.7763 58.8532C47.5394 58.7938 47.3292 58.6561 47.1799 58.4623C47.133 58.4014 47.0926 58.3356 47.0595 58.2662L47.0237 58.191C46.9513 58.0391 46.8996 57.878 46.87 57.7123L46.8517 57.6091C46.8242 57.4553 46.8051 57.2989 46.8228 57.1436C46.8777 56.663 47.1757 55.6523 48.7914 55.4207C50.1106 55.2316 51.7459 55.646 52.7429 55.9967C53.1017 56.1229 53.473 56.2135 53.8527 56.2332L54.5396 56.2688C54.6671 56.2754 54.794 56.2475 54.907 56.1881C55.0008 56.1388 55.0824 56.0698 55.1451 55.9842C56.2579 54.4668 58.4187 50.9968 58.8735 48.2336L58.9312 48.0455C58.962 47.945 59.0224 47.8551 59.1033 47.7883C59.1549 47.7456 59.2147 47.7127 59.2785 47.6924L59.2836 47.6907C59.3887 47.6572 59.5017 47.6588 59.6057 47.6954C59.6582 47.7138 59.7076 47.7401 59.7486 47.7778C59.8902 47.9077 60.1212 48.1686 60.3687 48.5634C60.6515 49.0146 60.7645 49.5465 60.7912 50.0788L60.8586 51.4233V51.9423C61.8695 52.6665 62.8168 53.7689 63.5987 55.0939C64.7283 57.0081 65.5539 59.4538 65.7403 62.0914C65.9423 64.95 65.3922 68.0264 63.6806 70.8874C64.9207 71.6606 66.1456 72.5383 67.3473 73.5289ZM56.0546 68.5033C53.1678 67.5927 50.2813 67.1535 47.4931 67.0805V74.6037C49.5774 74.6109 51.7585 74.8981 53.9342 75.5735C55.1289 73.3492 55.7558 70.7618 56.0546 68.5033ZM54.9305 75.9105C56.1069 73.6583 56.7411 71.0989 57.0562 68.8384C58.7897 69.4518 60.5193 70.2399 62.2236 71.2253C60.8827 73.1344 58.9376 74.9229 56.2293 76.4375C55.7977 76.2451 55.3646 76.0697 54.9305 75.9105ZM42.9923 67.2752C44.1216 67.1482 45.2785 67.077 46.4556 67.07V74.6231C45.8865 74.6463 45.3261 74.6896 44.7768 74.7509C43.1233 74.9353 41.5606 75.2827 40.1495 75.7333C38.9614 73.2107 38.3682 70.483 38.1058 68.2019C39.6513 67.7854 41.2886 67.4669 42.9923 67.2752ZM37.0953 68.4919C34.8985 69.1616 32.9096 70.0269 31.208 70.998C32.3112 73.2168 34.1346 75.4243 37.0385 77.0056C37.6842 76.6733 38.3961 76.3589 39.1627 76.0738C37.9809 73.5261 37.3745 70.8023 37.0953 68.4919ZM27.2645 73.9151C28.0887 73.0962 29.1166 72.2899 30.3146 71.5341C31.429 73.7512 33.2149 75.9489 35.9826 77.6007C35.6286 77.8196 35.3033 78.0429 35.0094 78.2679C32.2218 77.1675 29.6201 75.6964 27.2645 73.9151ZM44.8914 75.7853C41.8081 76.1291 39.0986 77.0583 37.1661 78.1152L37.1157 78.2176C37.092 78.2059 37.0684 78.1941 37.0448 78.1823C36.737 78.3544 36.4498 78.5297 36.1849 78.706C39.588 79.9003 43.2462 80.5495 47.0555 80.5495C50.9479 80.5495 54.6824 79.8717 58.1482 78.6272C53.7739 75.9229 49.0254 75.3244 44.8914 75.7853ZM57.3609 76.9838C59.9164 75.4519 61.7925 73.6661 63.1163 71.7612C64.2585 72.4723 65.3874 73.2749 66.4967 74.176C64.3062 75.7875 61.9095 77.1336 59.3537 78.1672C58.6974 77.7268 58.0321 77.3335 57.3609 76.9838ZM66.7058 21.0527C65.6525 21.9677 64.5678 22.7805 63.4593 23.4981C62.8493 22.2264 62.1377 21.1596 61.4215 20.2818C60.4933 19.1442 59.559 18.3258 58.8312 17.789C58.6583 17.6615 58.4964 17.5494 58.3484 17.4524C58.6436 17.2634 58.9347 17.0638 59.2212 16.8532C61.9084 17.9263 64.4213 19.3443 66.7058 21.0527ZM54.9039 19.1413C55.7317 18.8425 56.5439 18.482 57.3322 18.053C57.3546 18.0651 57.3787 18.0783 57.4043 18.0928C57.604 18.2054 57.8835 18.3819 58.2165 18.6275C58.8822 19.1185 59.7513 19.8781 60.6186 20.941C61.3036 21.7806 61.9886 22.8105 62.5719 24.0494C60.746 25.1371 58.8621 25.9771 56.9531 26.5997C56.5063 23.2534 55.5937 20.6131 54.9039 19.1413ZM53.9102 19.4687C54.566 20.8288 55.51 23.4857 55.9469 26.9073C53.1916 27.6941 50.3962 28.0429 47.6586 28.044V20.3503C49.7339 20.3427 51.8587 20.0821 53.9102 19.4687ZM45.1744 20.2422C45.6516 20.285 46.1344 20.3158 46.621 20.3334V28.0279C45.975 28.0076 45.3328 27.9684 44.696 27.9114C42.4166 27.7074 40.2088 27.2765 38.133 26.6757C38.5559 23.4999 39.5391 20.8347 40.259 19.3669C41.787 19.7768 43.4504 20.0878 45.1744 20.2422ZM39.2472 19.0752C38.5065 20.6332 37.5628 23.2583 37.1277 26.3683C35.0993 25.7144 33.2123 24.9004 31.5268 23.9828C33.0028 21.4382 35.1015 19.4383 37.4338 18.4429C38.0054 18.6667 38.6119 18.8791 39.2472 19.0752ZM36.1627 17.9005C33.9515 19.083 32.0192 21.0612 30.6243 23.4704C29.3834 22.7355 28.2687 21.9453 27.3078 21.1258C29.5061 19.4692 31.918 18.0822 34.4946 17.0141C34.9865 17.3154 35.5461 17.6136 36.1627 17.9005ZM47.0555 14.5241C50.9088 14.5241 54.6074 15.1884 58.0437 16.4091C54.2144 18.9667 49.5598 19.5901 45.2667 19.2055C41.462 18.8648 38.0027 17.7376 35.7389 16.5278C39.2676 15.2316 43.0792 14.5241 47.0555 14.5241Z" fill="#3E3E3F"/>
<path d="M34.6835 89.3789L36.6015 82.3716L38.0786 82.7777L36.1605 89.785L34.6835 89.3789Z" fill="#3E3E3F"/>
<path d="M29.9856 79.7752L27.1331 86.4548L28.5351 87.0555L30.329 82.8546L30.3876 82.8797L31.4691 88.3126L32.7051 88.8422L35.5576 82.1626L34.1492 81.5591L32.3538 85.7632L32.305 85.7423L31.2021 80.2964L29.9856 79.7752Z" fill="#3E3E3F"/>
<path d="M25.7678 84.245L25.0608 85.2945L20.1256 81.9617L20.8326 80.9121L22.6723 82.1545L26.0212 77.1832L27.277 78.0313L23.9281 83.0026L25.7678 84.245Z" fill="#3E3E3F"/>
<path d="M18.7737 80.7744L23.7761 75.5185L20.2281 72.1351L19.3561 73.0513L21.7941 75.3762L20.5996 76.6311L18.354 74.4896L17.482 75.4057L19.7277 77.5473L18.5357 78.7996L16.108 76.4845L15.236 77.4007L18.7737 80.7744Z" fill="#3E3E3F"/>
<path fill-rule="evenodd" clip-rule="evenodd" d="M19.6173 71.4302L13.8168 75.783L12.0995 73.4913C11.7708 73.0526 11.5686 72.6195 11.493 72.1917C11.414 71.7636 11.4562 71.3612 11.6195 70.9846C11.7794 70.6076 12.0511 70.2753 12.4344 69.9876C12.8196 69.6986 13.2133 69.5331 13.6155 69.4912C14.0159 69.4507 14.408 69.5331 14.7919 69.7384C14.813 69.7496 14.834 69.7612 14.855 69.7731L16.185 66.8497L17.2008 68.2054L15.9691 70.8487L16.6408 71.7452L18.6971 70.2021L19.6173 71.4302ZM15.6552 72.4848L15.0303 71.6509C14.8546 71.4165 14.6766 71.2458 14.4962 71.1389C14.3158 71.0321 14.1331 70.989 13.948 71.0097C13.7616 71.0285 13.573 71.1095 13.3822 71.2526C13.1897 71.3971 13.0563 71.5577 12.9822 71.7344C12.9067 71.9093 12.8938 72.1006 12.9434 72.3086C12.9897 72.5161 13.1015 72.738 13.2786 72.9743L13.8991 73.8025L15.6552 72.4848Z" fill="#3E3E3F"/>
<path d="M13.2492 60.9475L6.74531 64.1472L7.4196 65.5187L11.5099 63.5064L11.5381 63.5637L8.83075 68.3891L9.42525 69.5984L15.9291 66.3987L15.2517 65.0207L11.1582 67.0346L11.1347 66.9869L13.8343 62.1376L13.2492 60.9475Z" fill="#3E3E3F"/>
<path fill-rule="evenodd" clip-rule="evenodd" d="M12.5183 58.5351L12.9677 60.1185L5.31234 59.6834L4.7718 57.7792L11.0584 53.3925L11.5079 54.9759L10.0653 55.9442L10.7816 58.4676L12.5183 58.5351ZM6.62719 58.2521L9.02122 56.6451L9.5247 58.4188L6.64269 58.3067L6.62719 58.2521Z" fill="#3E3E3F"/>
<path d="M4.19788 55.241L5.45311 55.1031L5.20897 52.8919L11.1546 52.2387L10.988 50.7293L5.04231 51.3825L4.79817 49.1713L3.54294 49.3092L4.19788 55.241Z" fill="#3E3E3F"/>
<path d="M3.64978 46.3029L10.893 46.4047L10.8726 47.9409L3.62941 47.8391L3.64978 46.3029Z" fill="#3E3E3F"/>
<path fill-rule="evenodd" clip-rule="evenodd" d="M10.1767 38.9653C9.67405 38.5846 9.03224 38.3344 8.25132 38.215C7.4704 38.0955 6.78348 38.1424 6.19055 38.3556C5.59797 38.5665 5.1196 38.9049 4.75543 39.3708C4.38928 39.834 4.15806 40.3825 4.06178 41.0162C3.9648 41.6546 4.02228 42.2496 4.23425 42.8013C4.44388 43.3526 4.80022 43.8175 5.30327 44.1959C5.80631 44.5743 6.4483 44.8233 7.22922 44.9427C8.00781 45.0618 8.69339 45.0159 9.28596 44.8051C9.87853 44.5942 10.3579 44.2572 10.724 43.794C11.0902 43.3307 11.3218 42.7799 11.4188 42.1415C11.515 41.5078 11.4584 40.9153 11.2487 40.364C11.0371 39.81 10.6798 39.3438 10.1767 38.9653ZM6.70296 39.7871C7.07339 39.6882 7.51153 39.6775 8.01738 39.7549C8.52323 39.8322 8.93827 39.9735 9.26252 40.1786C9.58711 40.3814 9.81838 40.6333 9.95631 40.9344C10.0942 41.2354 10.1353 41.5695 10.0795 41.9367C10.0238 42.3038 9.88534 42.6104 9.66428 42.8566C9.44322 43.1027 9.14747 43.2752 8.77704 43.3741C8.40697 43.4706 7.96901 43.4802 7.46316 43.4029C6.95731 43.3255 6.54209 43.1854 6.21749 42.9826C5.89325 42.7775 5.66216 42.5244 5.52423 42.2233C5.3863 41.9223 5.34523 41.5882 5.401 41.2211C5.45678 40.8539 5.5952 40.5473 5.81626 40.3011C6.03732 40.055 6.33289 39.8836 6.70296 39.7871Z" fill="#3E3E3F"/>
<path d="M7.41189 29.7535L14.2056 32.2755L13.7454 33.5196L8.37321 34.8963L8.35475 34.9462L12.6306 36.5335L12.0979 37.9739L5.30422 35.452L5.77177 34.1879L11.132 32.8332L11.1542 32.7733L6.88159 31.1873L7.41189 29.7535Z" fill="#3E3E3F"/>
<path fill-rule="evenodd" clip-rule="evenodd" d="M14.5875 31.4942L15.4438 30.0897L14.3137 28.7676L15.6784 26.5293L17.3687 26.9327L18.2251 25.5282L10.7364 23.8836L9.70655 25.5726L14.5875 31.4942ZM14.455 26.2374L11.6498 25.568L11.6202 25.6165L13.4957 27.8106L14.455 26.2374Z" fill="#3E3E3F"/>
<path d="M18.3483 25.6291L12.8775 20.8661L13.8837 19.7079L18.4009 23.6406L20.4413 21.2921L21.395 22.1224L18.3483 25.6291Z" fill="#3E3E3F"/>
<path d="M19.5824 14.0383L20.3264 15.0618L22.1214 13.7553L25.6452 18.6034L26.8705 17.7116L23.3467 12.8635L25.1417 11.557L24.3978 10.5335L19.5824 14.0383Z" fill="#3E3E3F"/>
<path fill-rule="evenodd" clip-rule="evenodd" d="M29.6132 16.0468L28.1446 16.7818L27.1342 9.16669L28.9004 8.28286L34.383 13.6598L32.9144 14.3948L31.6938 13.1539L29.3534 14.3251L29.6132 16.0468ZM28.7849 10.1964L30.8104 12.2557L29.1654 13.079L28.7342 10.2217L28.7849 10.1964Z" fill="#3E3E3F"/>
<path d="M32.3427 6.83928L34.4393 13.7949L39.1277 12.3824L38.7622 11.1699L35.5406 12.1405L35.04 10.4797L38.0075 9.58563L37.6421 8.37314L34.6745 9.26723L34.175 7.60982L37.383 6.64327L37.0175 5.43078L32.3427 6.83928Z" fill="#3E3E3F"/>
<path d="M40.0434 12.1997L39.1462 4.98901L40.6662 4.80068L41.0618 7.98003L41.1566 7.96828L43.3482 4.46839L45.1701 4.24266L42.9039 7.80185L46.0988 11.4495L44.2804 11.6748L41.9422 8.95421L41.3084 9.96227L41.5634 12.0114L40.0434 12.1997Z" fill="#3E3E3F"/>
<path d="M46.5611 4.1458L47.9863 11.5684L49.4731 11.7011L51.2616 7.09096L51.318 7.096L52.274 11.9511L53.7608 12.0838L56.4647 5.02978L54.7983 4.88104L53.1587 9.8144L53.0953 9.80873L52.2264 4.65147L50.7995 4.52411L49.0376 9.43586L48.9777 9.43051L48.2276 4.29455L46.5611 4.1458Z" fill="#3E3E3F"/>
<path fill-rule="evenodd" clip-rule="evenodd" d="M62.7242 11.0635C62.4801 11.8171 62.1301 12.412 61.674 12.848C61.2201 13.2848 60.7035 13.5632 60.1242 13.6832C59.5478 13.8016 58.9556 13.762 58.3477 13.5644C57.7354 13.3653 57.2309 13.0471 56.8345 12.6098C56.4381 12.1726 56.1842 11.6437 56.0728 11.0231C55.9613 10.4025 56.0273 9.71655 56.2706 8.96514C56.5147 8.21149 56.8637 7.61627 57.3175 7.17948C57.7714 6.7427 58.2865 6.46508 58.8629 6.34663C59.44 6.22594 60.0347 6.26515 60.6471 6.46426C61.255 6.66191 61.7572 6.97936 62.1536 7.41659C62.553 7.8523 62.8084 8.38045 62.9198 9.00103C63.0335 9.62234 62.9683 10.3098 62.7242 11.0635ZM61.2471 10.5832C61.4052 10.095 61.4656 9.65961 61.4284 9.277C61.3934 8.89511 61.2727 8.57489 61.0663 8.31633C60.86 8.05776 60.5807 7.87123 60.2285 7.75672C59.8764 7.64221 59.541 7.62891 59.2225 7.7168C58.9039 7.8047 58.6175 7.99254 58.3631 8.28034C58.111 8.56887 57.9059 8.95723 57.7478 9.44542C57.5897 9.93361 57.5281 10.3686 57.5631 10.7505C57.6004 11.1331 57.7222 11.4537 57.9285 11.7123C58.1349 11.9709 58.4141 12.1574 58.7663 12.2719C59.1185 12.3864 59.4538 12.3997 59.7724 12.3118C60.0909 12.2239 60.3763 12.0357 60.6284 11.7472C60.8828 11.4594 61.089 11.0714 61.2471 10.5832Z" fill="#3E3E3F"/>
<path d="M67.5434 17.8836L71.1356 11.5733L69.8106 10.817L67.5514 14.7855L67.4961 14.7539L67.0377 9.23403L65.8696 8.56717L62.2773 14.8774L63.6084 15.6373L65.8694 11.6657L65.9155 11.692L66.3936 17.2272L67.5434 17.8836Z" fill="#3E3E3F"/>
<path d="M73.3802 18.0343L72.6252 18.9642L70.0595 16.8766L70.8144 15.9467L73.3802 18.0343Z" fill="#3E3E3F"/>
<path fill-rule="evenodd" clip-rule="evenodd" d="M72.0062 21.5322L73.7198 23.4508C74.2107 24.0005 74.7406 24.3758 75.3095 24.5768C75.88 24.7796 76.4621 24.8056 77.0557 24.6549C77.6508 24.506 78.23 24.1796 78.7931 23.6758C79.3545 23.1735 79.7415 22.6356 79.9542 22.0618C80.1683 21.4899 80.2074 20.9114 80.0712 20.3265C79.9367 19.7399 79.6264 19.1745 79.1402 18.6301L77.4126 16.6956L72.0062 21.5322ZM74.6566 22.5271L74.0076 21.8003L77.4552 18.716L78.1066 19.4454C78.4087 19.7837 78.603 20.1218 78.6894 20.4596C78.7759 20.7975 78.7443 21.1379 78.5947 21.4809C78.4467 21.8257 78.173 22.1767 77.7735 22.5341C77.3705 22.8947 76.9887 23.1301 76.6281 23.2403C76.2708 23.3507 75.9276 23.344 75.5985 23.2201C75.2727 23.0963 74.9588 22.8653 74.6566 22.5271Z" fill="#3E3E3F"/>
<path fill-rule="evenodd" clip-rule="evenodd" d="M83.1042 30.7535C82.4226 31.154 81.7667 31.3653 81.1366 31.3874C80.5077 31.4115 79.9367 31.2755 79.4235 30.9794C78.9136 30.6842 78.4965 30.2603 78.1723 29.7079C77.8457 29.1515 77.6787 28.578 77.6713 27.9874C77.664 27.3968 77.824 26.8326 78.1514 26.2949C78.4788 25.7571 78.9823 25.2885 79.6619 24.8892C80.3435 24.4887 80.9988 24.2764 81.6277 24.2522C82.2566 24.2281 82.826 24.3637 83.3359 24.6589C83.8478 24.953 84.2671 25.3783 84.5938 25.9347C84.918 26.4871 85.0838 27.0586 85.0911 27.6492C85.1017 28.2406 84.9433 28.8052 84.6159 29.343C84.2897 29.8828 83.7858 30.353 83.1042 30.7535ZM82.3163 29.4112C82.7578 29.1518 83.0913 28.8668 83.3167 28.5561C83.5433 28.2475 83.6649 27.928 83.6816 27.5974C83.6983 27.2669 83.6127 26.9416 83.4248 26.6216C83.237 26.3016 82.9947 26.0683 82.6981 25.9219C82.4014 25.7755 82.0626 25.7251 81.6817 25.7708C81.3019 25.8184 80.8913 25.972 80.4498 26.2314C80.0082 26.4909 79.6742 26.7749 79.4476 27.0835C79.2222 27.3941 79.1012 27.7147 79.0845 28.0452C79.0678 28.3758 79.1534 28.7011 79.3412 29.0211C79.5291 29.3411 79.7713 29.5743 80.068 29.7208C80.3646 29.8672 80.7028 29.9166 81.0826 29.8689C81.4635 29.8232 81.8748 29.6707 82.3163 29.4112Z" fill="#3E3E3F"/>
<path d="M88.1658 33.9115L81.1914 35.8753L81.6079 37.3537L84.4889 36.5425L85.2903 39.3867L86.506 39.0444L85.7047 36.2002L87.3666 35.7323L88.2545 38.8838L89.4702 38.5415L88.1658 33.9115Z" fill="#3E3E3F"/>
<path d="M82.6494 41.4062L89.8467 40.5828L90.4058 45.447L89.1512 45.5906L88.7675 42.2526L87.0525 42.4488L87.4075 45.5365L86.1529 45.68L85.7979 42.5923L84.0795 42.7889L84.4648 46.141L83.2102 46.2845L82.6494 41.4062Z" fill="#3E3E3F"/>
<path fill-rule="evenodd" clip-rule="evenodd" d="M83.2537 47.2187L83.0889 49.7894C83.0416 50.5259 83.1458 51.1679 83.4013 51.7155C83.6567 52.2654 84.0459 52.6996 84.5689 53.0181C85.0918 53.3389 85.7298 53.5238 86.4828 53.5728C87.2334 53.6216 87.8873 53.5207 88.4445 53.2701C89.0015 53.0218 89.4405 52.6439 89.7613 52.1361C90.0845 51.6285 90.2695 51.01 90.3163 50.2806L90.4825 47.6887L83.2537 47.2187ZM84.4025 49.8108L84.4649 48.837L89.0747 49.1367L89.012 50.114C88.9829 50.5672 88.8784 50.9433 88.6986 51.2421C88.5188 51.5409 88.2544 51.7572 87.9056 51.891C87.5566 52.0271 87.115 52.0778 86.5809 52.0431C86.042 52.0081 85.607 51.9004 85.276 51.72C84.9471 51.5422 84.7115 51.2922 84.5691 50.9701C84.4289 50.6504 84.3734 50.264 84.4025 49.8108Z" fill="#3E3E3F"/>
<path d="M82.6324 54.2243L89.6667 55.9598L88.4993 60.7142L87.2731 60.4117L88.0742 57.149L86.3981 56.7355L85.657 59.7535L84.4308 59.451L85.1719 56.433L83.4923 56.0186L82.6878 59.295L81.4616 58.9924L82.6324 54.2243Z" fill="#3E3E3F"/>
<path fill-rule="evenodd" clip-rule="evenodd" d="M87.802 62.7559L81.1493 59.8803L80.5418 61.2906L82.9001 62.31L82.4566 63.3395L79.5539 63.5836L78.8832 65.1404L82.0774 64.8423C82.0774 64.8525 82.0775 64.8627 82.0777 64.8729C82.0779 64.8867 82.0782 64.9006 82.0786 64.9144C82.0913 65.35 82.2146 65.7317 82.4484 66.0595C82.6844 66.3881 83.0233 66.648 83.4651 66.8389C83.9047 67.0289 84.3276 67.0997 84.7338 67.0512C85.1413 67.0058 85.511 66.8424 85.8429 66.5608C86.1761 66.2824 86.4512 65.8913 86.6682 65.3876L87.802 62.7559ZM84.0305 62.7986L83.618 63.7562C83.502 64.0254 83.4424 64.265 83.4393 64.4749C83.4363 64.6848 83.4896 64.8649 83.5995 65.0154C83.7084 65.1681 83.8722 65.2917 84.0909 65.3863C84.3118 65.4818 84.5172 65.5177 84.7072 65.4942C84.8962 65.4729 85.0685 65.389 85.2241 65.2425C85.3809 65.0991 85.5178 64.8916 85.6347 64.6202L86.0445 63.6692L84.0305 62.7986Z" fill="#3E3E3F"/>
<path fill-rule="evenodd" clip-rule="evenodd" d="M77.8855 66.6012L78.7783 65.2198L83.5028 71.2674L82.4291 72.9287L74.9857 71.0879L75.8785 69.7064L77.5578 70.1541L78.9807 67.9526L77.8855 66.6012ZM81.5601 71.2209L78.7732 70.478L79.7733 68.9306L81.5909 71.1733L81.5601 71.2209Z" fill="#3E3E3F"/>
<path d="M80.8997 75.0309L79.9673 74.1766L78.4682 75.8162L74.0517 71.77L73.0285 72.8891L77.445 76.9353L75.9459 78.5749L76.8783 79.4291L80.8997 75.0309Z" fill="#3E3E3F"/>
<path d="M74.5724 81.3141L69.8564 75.7984L71.0212 74.8008L75.7372 80.3166L74.5724 81.3141Z" fill="#3E3E3F"/>
<path fill-rule="evenodd" clip-rule="evenodd" d="M64.7361 81.2557C64.7836 81.8851 65.021 82.5331 65.4482 83.1996C65.8755 83.8661 66.3652 84.3522 66.9172 84.6578C67.4672 84.9647 68.0371 85.1016 68.627 85.0684C69.2162 85.0385 69.7799 84.8507 70.3182 84.5053C70.8604 84.1572 71.268 83.7215 71.5409 83.1982C71.815 82.6768 71.9274 82.1021 71.8779 81.4739C71.8284 80.8457 71.5901 80.1984 71.1628 79.5319C70.7368 78.8673 70.2488 78.3816 69.6988 78.0747C69.1488 77.7678 68.5792 77.6293 67.99 77.6592C67.4008 77.6892 66.8351 77.8782 66.2928 78.2262C65.7546 78.5717 65.3484 79.0051 65.0742 79.5265C64.7994 80.0511 64.6867 80.6275 64.7361 81.2557ZM67.6501 83.3281C67.331 83.1145 67.033 82.7919 66.7562 82.3601C66.4794 81.9284 66.3106 81.5229 66.2496 81.1436C66.1867 80.7655 66.2224 80.4253 66.3565 80.123C66.4907 79.8206 66.7137 79.5694 67.0256 79.3692C67.3374 79.1691 67.6587 79.071 67.9893 79.075C68.3199 79.0791 68.6448 79.1879 68.9639 79.4015C69.2811 79.6163 69.578 79.9396 69.8548 80.3713C70.1316 80.8031 70.3014 81.208 70.3644 81.586C70.4253 81.9653 70.3887 82.3061 70.2545 82.6085C70.1203 82.9109 69.8973 83.1621 69.5854 83.3623C69.2736 83.5624 68.9524 83.6605 68.6218 83.6564C68.2912 83.6524 67.9673 83.5429 67.6501 83.3281Z" fill="#3E3E3F"/>
<path d="M59.7293 89.3893L57.1209 82.61L58.356 82.1347L62.9401 85.2692L62.9897 85.2501L61.348 80.9833L62.7779 80.433L65.3863 87.2123L64.1314 87.6952L59.5716 84.5551L59.5122 84.578L61.1526 88.8415L59.7293 89.3893Z" fill="#3E3E3F"/>
<path fill-rule="evenodd" clip-rule="evenodd" d="M50.1905 87.4811C50.1905 89.1713 48.8246 90.5414 47.1397 90.5414C45.4549 90.5414 44.089 89.1713 44.089 87.4811C44.089 85.791 45.4549 84.4208 47.1397 84.4208C48.8246 84.4208 50.1905 85.791 50.1905 87.4811ZM48.9454 87.4811C48.9454 88.4815 48.137 89.2925 47.1397 89.2925C46.1425 89.2925 45.3341 88.4815 45.3341 87.4811C45.3341 86.4808 46.1425 85.6698 47.1397 85.6698C48.137 85.6698 48.9454 86.4808 48.9454 87.4811Z" fill="#3E3E3F"/>
<path fill-rule="evenodd" clip-rule="evenodd" d="M94.0582 47.537C94.0582 73.5774 73.0144 94.6873 47.0556 94.6873C21.0968 94.6873 0.0529785 73.5774 0.0529785 47.537C0.0529785 21.4966 21.0968 0.386719 47.0556 0.386719C73.0144 0.386719 94.0582 21.4966 94.0582 47.537ZM92.8132 47.537C92.8132 72.8876 72.3268 93.4383 47.0556 93.4383C21.7844 93.4383 1.29803 72.8876 1.29803 47.537C1.29803 22.1864 21.7844 1.63568 47.0556 1.63568C72.3268 1.63568 92.8132 22.1864 92.8132 47.537Z" fill="#3E3E3F"/>
</svg>
