<svg width="117" height="53" viewBox="0 0 117 53" fill="none" xmlns="http://www.w3.org/2000/svg">
<path d="M61.8782 1.60456L58.1907 7.72653H70.2941V28.8587C70.8086 37.8052 80.0207 42.8739 85.5395 43.4877H100.773V35.6899H85.5395C80.7742 34.1393 78.9367 30.4897 78.6137 28.8587V17.6544C81.1744 17.6623 86.3905 17.6733 86.7687 17.6544C87.1469 17.6355 87.4778 17.3156 87.596 17.158L91.7562 9.87762H78.6137V1.60456H61.8782Z" fill="#3E3E3F"/>
<path d="M66.5814 8.9019H58.1907L58.1975 43.4627H66.5814V8.9019Z" fill="#3E3E3F"/>
<path d="M92.432 22.1753L88.775 28.8587H92.432V34.5272H100.773V28.8587H110.583V22.1753H100.773C99.8409 13.5689 106.382 10.1015 109.769 9.44363H116.451V1.90394H106.383C93.9941 4.93787 91.9203 16.6823 92.432 22.1753Z" fill="#3E3E3F"/>
<path d="M0.721119 21.009C-0.132804 18.5392 1.17712 15.8448 3.64691 14.9908C6.1167 14.1369 8.8111 15.4468 9.66502 17.9166L13.3758 28.6493C14.2297 31.1191 12.9198 33.8135 10.45 34.6674C7.98024 35.5214 5.28583 34.2114 4.43191 31.7416L0.721119 21.009Z" fill="#3E3E3F"/>
<path d="M45.3764 32.115C47.8693 31.3309 50.5258 32.716 51.31 35.2088C52.0941 37.7016 50.709 40.3581 48.2162 41.1423L36.731 44.7553C34.2381 45.5394 31.5816 44.1543 30.7974 41.6615C30.0133 39.1687 31.3984 36.5122 33.8912 35.728L45.3764 32.115Z" fill="#3E3E3F"/>
<path d="M9.52445 13.3588C8.67052 10.889 9.98044 8.19458 12.4502 7.34066C14.92 6.48673 17.6144 7.79665 18.4683 10.2664L25.0551 29.3173C25.909 31.7871 24.5991 34.4815 22.1293 35.3354C19.6595 36.1893 16.9651 34.8794 16.1112 32.4096L9.52445 13.3588Z" fill="#3E3E3F"/>
<path d="M19.2036 7.87848C18.3497 5.40869 19.6596 2.71429 22.1294 1.86036C24.5992 1.00644 27.2936 2.31636 28.1475 4.78615L36.1619 27.9661C37.0158 30.4358 35.7059 33.1302 33.2361 33.9842C30.7663 34.8381 28.0719 33.5282 27.218 31.0584L19.2036 7.87848Z" fill="#3E3E3F"/>
<path d="M30.4779 6.4813C29.624 4.01151 30.9339 1.31711 33.4037 0.463184C35.8735 -0.390738 38.5679 0.919182 39.4218 3.38897L46.8502 24.8741C47.7042 27.3439 46.3942 30.0383 43.9244 30.8922C41.4547 31.7461 38.7603 30.4362 37.9063 27.9664L30.4779 6.4813Z" fill="#3E3E3F"/>
<path d="M1.5935 49.2495V52.8236H0.837841V49.2495H1.5935Z" fill="#3E3E3F"/>
<path d="M5.40124 49.2495V52.8236H4.74855L3.19362 50.5741H3.16744V52.8236H2.41178V49.2495H3.07494L4.61767 51.4973H4.64908V49.2495H5.40124Z" fill="#3E3E3F"/>
<path d="M6.08603 49.8725V49.2495H9.02139V49.8725H7.92717V52.8236H7.18024V49.8725H6.08603Z" fill="#3E3E3F"/>
<path d="M9.70137 52.8236V49.2495H12.1097V49.8725H10.457V50.7242H11.9858V51.3472H10.457V52.2006H12.1167V52.8236H9.70137Z" fill="#3E3E3F"/>
<path d="M12.907 52.8236V49.2495H14.3171C14.587 49.2495 14.8174 49.2978 15.0082 49.3944C15.2002 49.4898 15.3462 49.6253 15.4462 49.801C15.5475 49.9755 15.5981 50.1809 15.5981 50.417C15.5981 50.6544 15.5469 50.8586 15.4445 51.0296C15.3421 51.1995 15.1938 51.3298 14.9995 51.4205C14.8064 51.5113 14.5725 51.5566 14.2979 51.5566H13.3538V50.9493H14.1758C14.32 50.9493 14.4399 50.9295 14.5353 50.89C14.6307 50.8504 14.7016 50.7911 14.7482 50.712C14.7959 50.6329 14.8197 50.5345 14.8197 50.417C14.8197 50.2984 14.7959 50.1983 14.7482 50.1169C14.7016 50.0354 14.6301 49.9738 14.5335 49.9319C14.4381 49.8888 14.3177 49.8673 14.1723 49.8673H13.6627V52.8236H12.907ZM14.8372 51.1971L15.7255 52.8236H14.8913L14.0222 51.1971H14.8372Z" fill="#3E3E3F"/>
<path d="M19.3181 49.2495V52.8236H18.6654L17.1105 50.5741H17.0843V52.8236H16.3287V49.2495H16.9918L18.5345 51.4973H18.566V49.2495H19.3181Z" fill="#3E3E3F"/>
<path d="M20.7551 52.8236H19.9453L21.1791 49.2495H22.1529L23.385 52.8236H22.5753L21.68 50.0663H21.6521L20.7551 52.8236ZM20.7045 51.4188H22.6172V52.0086H20.7045V51.4188Z" fill="#3E3E3F"/>
<path d="M23.4389 49.8725V49.2495H26.3743V49.8725H25.2801V52.8236H24.5331V49.8725H23.4389Z" fill="#3E3E3F"/>
<path d="M27.8099 49.2495V52.8236H27.0543V49.2495H27.8099Z" fill="#3E3E3F"/>
<path d="M31.9126 51.0366C31.9126 51.4263 31.8387 51.7579 31.691 52.0313C31.5444 52.3047 31.3443 52.5136 31.0906 52.6578C30.8382 52.8009 30.5543 52.8725 30.239 52.8725C29.9214 52.8725 29.6363 52.8003 29.3839 52.6561C29.1314 52.5118 28.9319 52.303 28.7853 52.0296C28.6387 51.7562 28.5654 51.4252 28.5654 51.0366C28.5654 50.6468 28.6387 50.3152 28.7853 50.0418C28.9319 49.7684 29.1314 49.5602 29.3839 49.4171C29.6363 49.2728 29.9214 49.2007 30.239 49.2007C30.5543 49.2007 30.8382 49.2728 31.0906 49.4171C31.3443 49.5602 31.5444 49.7684 31.691 50.0418C31.8387 50.3152 31.9126 50.6468 31.9126 51.0366ZM31.1465 51.0366C31.1465 50.7841 31.1087 50.5712 31.0331 50.3978C30.9586 50.2245 30.8533 50.093 30.7172 50.0034C30.5811 49.9139 30.4217 49.8691 30.239 49.8691C30.0563 49.8691 29.897 49.9139 29.7608 50.0034C29.6247 50.093 29.5188 50.2245 29.4432 50.3978C29.3688 50.5712 29.3315 50.7841 29.3315 51.0366C29.3315 51.289 29.3688 51.5019 29.4432 51.6753C29.5188 51.8487 29.6247 51.9801 29.7608 52.0697C29.897 52.1593 30.0563 52.2041 30.239 52.2041C30.4217 52.2041 30.5811 52.1593 30.7172 52.0697C30.8533 51.9801 30.9586 51.8487 31.0331 51.6753C31.1087 51.5019 31.1465 51.289 31.1465 51.0366Z" fill="#3E3E3F"/>
<path d="M35.6584 49.2495V52.8236H35.0057L33.4508 50.5741H33.4246V52.8236H32.6689V49.2495H33.3321L34.8748 51.4973H34.9062V49.2495H35.6584Z" fill="#3E3E3F"/>
<path d="M37.0954 52.8236H36.2856L37.5194 49.2495H38.4932L39.7253 52.8236H38.9156L38.0203 50.0663H37.9924L37.0954 52.8236ZM37.0447 51.4188H38.9574V52.0086H37.0447V51.4188Z" fill="#3E3E3F"/>
<path d="M40.3521 52.8236V49.2495H41.1077V52.2006H42.64V52.8236H40.3521Z" fill="#3E3E3F"/>
<path d="M44.5348 49.8725V49.2495H47.4702V49.8725H46.376V52.8236H45.629V49.8725H44.5348Z" fill="#3E3E3F"/>
<path d="M48.3295 52.8236H47.5197L48.7536 49.2495H49.7274L50.9594 52.8236H50.1497L49.2544 50.0663H49.2265L48.3295 52.8236ZM48.2789 51.4188H50.1916V52.0086H48.2789V51.4188Z" fill="#3E3E3F"/>
<path d="M51.5862 52.8236V49.2495H53.9945V49.8725H52.3419V50.7242H53.8706V51.3472H52.3419V52.2006H54.0015V52.8236H51.5862Z" fill="#3E3E3F"/>
<path d="M54.7919 52.8236V49.2495H55.5475V50.8254H55.5946L56.8808 49.2495H57.7866L56.4602 50.8498L57.8023 52.8236H56.8983L55.9192 51.3542L55.5475 51.8079V52.8236H54.7919Z" fill="#3E3E3F"/>
<path d="M59.1812 52.8236L58.1585 49.2495H58.984L59.5756 51.7329H59.6053L60.2579 49.2495H60.9647L61.6157 51.7381H61.6471L62.2387 49.2495H63.0642L62.0415 52.8236H61.305L60.6244 50.4868H60.5965L59.9176 52.8236H59.1812Z" fill="#3E3E3F"/>
<path d="M66.748 51.0366C66.748 51.4263 66.6741 51.7579 66.5264 52.0313C66.3798 52.3047 66.1797 52.5136 65.926 52.6578C65.6736 52.8009 65.3897 52.8725 65.0744 52.8725C64.7568 52.8725 64.4717 52.8003 64.2193 52.6561C63.9668 52.5118 63.7673 52.303 63.6207 52.0296C63.4741 51.7562 63.4008 51.4252 63.4008 51.0366C63.4008 50.6468 63.4741 50.3152 63.6207 50.0418C63.7673 49.7684 63.9668 49.5602 64.2193 49.4171C64.4717 49.2728 64.7568 49.2007 65.0744 49.2007C65.3897 49.2007 65.6736 49.2728 65.926 49.4171C66.1797 49.5602 66.3798 49.7684 66.5264 50.0418C66.6741 50.3152 66.748 50.6468 66.748 51.0366ZM65.9819 51.0366C65.9819 50.7841 65.9441 50.5712 65.8684 50.3978C65.794 50.2245 65.6887 50.093 65.5526 50.0034C65.4165 49.9139 65.2571 49.8691 65.0744 49.8691C64.8917 49.8691 64.7323 49.9139 64.5962 50.0034C64.4601 50.093 64.3542 50.2245 64.2786 50.3978C64.2041 50.5712 64.1669 50.7841 64.1669 51.0366C64.1669 51.289 64.2041 51.5019 64.2786 51.6753C64.3542 51.8487 64.4601 51.9801 64.5962 52.0697C64.7323 52.1593 64.8917 52.2041 65.0744 52.2041C65.2571 52.2041 65.4165 52.1593 65.5526 52.0697C65.6887 51.9801 65.794 51.8487 65.8684 51.6753C65.9441 51.5019 65.9819 51.289 65.9819 51.0366Z" fill="#3E3E3F"/>
<path d="M70.4938 49.2495V52.8236H69.8411L68.2862 50.5741H68.26V52.8236H67.5043V49.2495H68.1675L69.7102 51.4973H69.7416V49.2495H70.4938Z" fill="#3E3E3F"/>
<path d="M72.9709 50.7416V51.3315H71.3409V50.7416H72.9709Z" fill="#3E3E3F"/>
<path d="M75.0819 52.8236H73.8149V49.2495H75.0923C75.4519 49.2495 75.7613 49.3211 76.0208 49.4642C76.2802 49.6061 76.4798 49.8103 76.6194 50.0767C76.7601 50.3432 76.8305 50.6619 76.8305 51.0331C76.8305 51.4054 76.7601 51.7253 76.6194 51.9929C76.4798 52.2605 76.2791 52.4659 76.0173 52.609C75.7567 52.7521 75.4449 52.8236 75.0819 52.8236ZM74.5705 52.1762H75.0505C75.2738 52.1762 75.4617 52.1366 75.6142 52.0575C75.7677 51.9772 75.8829 51.8533 75.9597 51.6858C76.0376 51.5171 76.0766 51.2995 76.0766 51.0331C76.0766 50.769 76.0376 50.5532 75.9597 50.3856C75.8829 50.2181 75.7683 50.0948 75.6159 50.0157C75.4635 49.9365 75.2756 49.897 75.0522 49.897H74.5705V52.1762Z" fill="#3E3E3F"/>
<path d="M80.8713 51.0366C80.8713 51.4263 80.7974 51.7579 80.6496 52.0313C80.503 52.3047 80.3029 52.5136 80.0493 52.6578C79.7968 52.8009 79.5129 52.8725 79.1976 52.8725C78.88 52.8725 78.595 52.8003 78.3425 52.6561C78.0901 52.5118 77.8905 52.303 77.7439 52.0296C77.5973 51.7562 77.524 51.4252 77.524 51.0366C77.524 50.6468 77.5973 50.3152 77.7439 50.0418C77.8905 49.7684 78.0901 49.5602 78.3425 49.4171C78.595 49.2728 78.88 49.2007 79.1976 49.2007C79.5129 49.2007 79.7968 49.2728 80.0493 49.4171C80.3029 49.5602 80.503 49.7684 80.6496 50.0418C80.7974 50.3152 80.8713 50.6468 80.8713 51.0366ZM80.1051 51.0366C80.1051 50.7841 80.0673 50.5712 79.9917 50.3978C79.9172 50.2245 79.8119 50.093 79.6758 50.0034C79.5397 49.9139 79.3803 49.8691 79.1976 49.8691C79.015 49.8691 78.8556 49.9139 78.7195 50.0034C78.5834 50.093 78.4775 50.2245 78.4019 50.3978C78.3274 50.5712 78.2902 50.7841 78.2902 51.0366C78.2902 51.289 78.3274 51.5019 78.4019 51.6753C78.4775 51.8487 78.5834 51.9801 78.7195 52.0697C78.8556 52.1593 79.015 52.2041 79.1976 52.2041C79.3803 52.2041 79.5397 52.1593 79.6758 52.0697C79.8119 51.9801 79.9172 51.8487 79.9917 51.6753C80.0673 51.5019 80.1051 51.289 80.1051 51.0366Z" fill="#3E3E3F"/>
<path d="M82.9616 52.8236V49.2495H85.328V49.8725H83.7172V50.7242H85.1709V51.3472H83.7172V52.8236H82.9616Z" fill="#3E3E3F"/>
<path d="M86.0329 52.8236V49.2495H88.4412V49.8725H86.7885V50.7242H88.3173V51.3472H86.7885V52.2006H88.4482V52.8236H86.0329Z" fill="#3E3E3F"/>
<path d="M90.5055 52.8236H89.2385V49.2495H90.516C90.8755 49.2495 91.185 49.3211 91.4444 49.4642C91.7039 49.6061 91.9034 49.8103 92.043 50.0767C92.1838 50.3432 92.2542 50.6619 92.2542 51.0331C92.2542 51.4054 92.1838 51.7253 92.043 51.9929C91.9034 52.2605 91.7027 52.4659 91.4409 52.609C91.1803 52.7521 90.8685 52.8236 90.5055 52.8236ZM89.9942 52.1762H90.4741C90.6975 52.1762 90.8854 52.1366 91.0378 52.0575C91.1914 51.9772 91.3065 51.8533 91.3833 51.6858C91.4613 51.5171 91.5003 51.2995 91.5003 51.0331C91.5003 50.769 91.4613 50.5532 91.3833 50.3856C91.3065 50.2181 91.1919 50.0948 91.0395 50.0157C90.8871 49.9365 90.6992 49.897 90.4758 49.897H89.9942V52.1762Z" fill="#3E3E3F"/>
<path d="M93.0105 52.8236V49.2495H95.4188V49.8725H93.7662V50.7242H95.2949V51.3472H93.7662V52.2006H95.4258V52.8236H93.0105Z" fill="#3E3E3F"/>
<path d="M96.2162 52.8236V49.2495H97.6263C97.8962 49.2495 98.1265 49.2978 98.3173 49.3944C98.5093 49.4898 98.6553 49.6253 98.7554 49.801C98.8566 49.9755 98.9072 50.1809 98.9072 50.417C98.9072 50.6544 98.856 50.8586 98.7536 51.0296C98.6512 51.1995 98.5029 51.3298 98.3086 51.4205C98.1155 51.5113 97.8816 51.5566 97.6071 51.5566H96.6629V50.9493H97.4849C97.6292 50.9493 97.749 50.9295 97.8444 50.89C97.9398 50.8504 98.0108 50.7911 98.0573 50.712C98.105 50.6329 98.1289 50.5345 98.1289 50.417C98.1289 50.2984 98.105 50.1983 98.0573 50.1169C98.0108 50.0354 97.9392 49.9738 97.8427 49.9319C97.7472 49.8888 97.6268 49.8673 97.4814 49.8673H96.9718V52.8236H96.2162ZM98.1463 51.1971L99.0346 52.8236H98.2004L97.3313 51.1971H98.1463Z" fill="#3E3E3F"/>
<path d="M100.254 52.8236H99.4441L100.678 49.2495H101.652L102.884 52.8236H102.074L101.179 50.0663H101.151L100.254 52.8236ZM100.203 51.4188H102.116V52.0086H100.203V51.4188Z" fill="#3E3E3F"/>
<path d="M102.938 49.8725V49.2495H105.873V49.8725H104.779V52.8236H104.032V49.8725H102.938Z" fill="#3E3E3F"/>
<path d="M107.309 49.2495V52.8236H106.553V49.2495H107.309Z" fill="#3E3E3F"/>
<path d="M111.411 51.0366C111.411 51.4263 111.337 51.7579 111.19 52.0313C111.043 52.3047 110.843 52.5136 110.589 52.6578C110.337 52.8009 110.053 52.8725 109.738 52.8725C109.42 52.8725 109.135 52.8003 108.883 52.6561C108.63 52.5118 108.431 52.303 108.284 52.0296C108.137 51.7562 108.064 51.4252 108.064 51.0366C108.064 50.6468 108.137 50.3152 108.284 50.0418C108.431 49.7684 108.63 49.5602 108.883 49.4171C109.135 49.2728 109.42 49.2007 109.738 49.2007C110.053 49.2007 110.337 49.2728 110.589 49.4171C110.843 49.5602 111.043 49.7684 111.19 50.0418C111.337 50.3152 111.411 50.6468 111.411 51.0366ZM110.645 51.0366C110.645 50.7841 110.607 50.5712 110.532 50.3978C110.457 50.2245 110.352 50.093 110.216 50.0034C110.08 49.9139 109.92 49.8691 109.738 49.8691C109.555 49.8691 109.396 49.9139 109.26 50.0034C109.123 50.093 109.018 50.2245 108.942 50.3978C108.868 50.5712 108.83 50.7841 108.83 51.0366C108.83 51.289 108.868 51.5019 108.942 51.6753C109.018 51.8487 109.123 51.9801 109.26 52.0697C109.396 52.1593 109.555 52.2041 109.738 52.2041C109.92 52.2041 110.08 52.1593 110.216 52.0697C110.352 51.9801 110.457 51.8487 110.532 51.6753C110.607 51.5019 110.645 51.289 110.645 51.0366Z" fill="#3E3E3F"/>
<path d="M115.157 49.2495V52.8236H114.504L112.95 50.5741H112.923V52.8236H112.168V49.2495H112.831L114.374 51.4973H114.405V49.2495H115.157Z" fill="#3E3E3F"/>
</svg>
