<svg width="95" height="95" viewBox="0 0 95 95" fill="none" xmlns="http://www.w3.org/2000/svg">
<path d="M80.4378 47.537C80.4378 65.5074 65.8699 80.0752 47.8996 80.0752C29.9292 80.0752 15.3613 65.5074 15.3613 47.537C15.3613 29.5666 29.9292 14.9988 47.8996 14.9988C65.8699 14.9988 80.4378 29.5666 80.4378 47.537Z" fill="#3E3E3F"/>
<path d="M61.6631 18.0363C57.6883 20.7332 52.8484 22.3317 47.6831 22.3317C42.5724 22.3317 37.822 20.7891 33.8721 18.1442C33.4954 18.3273 33.1228 18.5175 32.7545 18.7148C36.977 21.6884 42.1261 23.4347 47.6831 23.4347C53.2972 23.4347 58.5271 21.6192 62.7737 18.5896C62.4042 18.3946 62.041 18.2171 61.6631 18.0363Z" fill="white"/>
<path fill-rule="evenodd" clip-rule="evenodd" d="M37.572 20.9014C32.6833 24.7101 29.3391 31.556 28.2101 34.5945L27.1762 34.2103C28.329 31.1075 31.7626 24.0292 36.8942 20.0313L37.572 20.9014Z" fill="white"/>
<path fill-rule="evenodd" clip-rule="evenodd" d="M59.0309 37.081C56.6942 29.8173 54.0473 24.1853 53.0276 22.2967L53.9981 21.7726C55.0517 23.7238 57.7246 29.4185 60.0809 36.7432L59.0309 37.081Z" fill="white"/>
<path fill-rule="evenodd" clip-rule="evenodd" d="M67.2621 34.6425C64.7288 27.444 60.1414 22.3046 58.2025 20.6632L58.9151 19.8214C60.9837 21.5726 65.6961 26.8698 68.3026 34.2764L67.2621 34.6425Z" fill="white"/>
<path d="M33.422 77.4226C37.4528 74.8102 42.2823 73.3361 47.4464 73.4451C52.556 73.553 57.2728 75.1955 61.166 77.9232C61.5465 77.7481 61.923 77.5658 62.2954 77.3763C58.1366 74.3142 53.0255 72.4597 47.4697 72.3424C41.8569 72.2239 36.6226 73.8961 32.313 76.8354C32.6783 77.0381 33.048 77.2339 33.422 77.4226Z" fill="white"/>
<path fill-rule="evenodd" clip-rule="evenodd" d="M36.4929 75.1869C31.861 71.0824 28.3877 64.0512 27.2261 61.0575L28.2544 60.6585C29.3935 63.5942 32.7885 70.4306 37.2244 74.3613L36.4929 75.1869Z" fill="white"/>
<path fill-rule="evenodd" clip-rule="evenodd" d="M41.861 73.299C38.8176 68.2571 36.5158 61.5718 35.7425 58.8558L36.8033 58.5538C37.5639 61.225 39.8335 67.8056 42.8053 72.729L41.861 73.299Z" fill="white"/>
<path fill-rule="evenodd" clip-rule="evenodd" d="M50.3543 72.6831C54.9154 66.6017 56.78 60.951 57.1388 58.9459L58.2245 59.1401C57.833 61.3285 55.8925 67.1372 51.2367 73.3449L50.3543 72.6831Z" fill="white"/>
<path fill-rule="evenodd" clip-rule="evenodd" d="M63.1317 67.9593C64.7449 65.4292 66.0103 62.9697 66.6785 61.4867L67.6841 61.9398C66.9949 63.4694 65.7045 65.9758 64.0617 68.5523C62.4227 71.1227 60.4104 73.7991 58.271 75.6387L57.5519 74.8024C59.5706 73.0665 61.5146 70.4954 63.1317 67.9593Z" fill="white"/>
<path d="M36.7504 24.4824L37.0262 25.8612V26.9642L36.7504 27.7914L35.9232 28.3429L35.6474 30.2731L35.0959 35.2366L35.9232 37.4426L36.4747 39.9243L35.6474 46.2665L35.9232 48.4725L35.6474 51.5057V54.2632L37.0262 58.9509L37.8534 62.8114L37.0262 66.3961L36.7504 68.8778L37.5777 70.2566L38.6807 71.6353L40.3351 72.7383L45.2986 73.014L43.9199 72.4626L42.8169 71.6353L42.5411 70.2566L43.0926 69.4293L43.9199 68.3263L44.1956 67.4991L44.7471 66.3961L45.2986 65.5689L45.8501 64.1901L45.0229 63.0871L43.6441 61.9841L43.3684 61.4326L43.6441 60.8811L44.1956 60.3297L45.2986 58.9509L45.8501 57.2964L46.1259 55.9177L45.8501 53.436L45.5744 52.0572L46.1259 51.7815L46.9531 52.0572H48.6076L49.4348 51.23L49.9863 49.8512V48.4725L51.3651 47.921L53.0195 47.6453L54.3983 47.3695L55.777 46.5423L56.6043 45.4393L57.1558 44.3363V42.6818L56.88 41.3031L55.777 40.2001L54.3983 38.5456V37.9941L54.674 37.1668V33.3064L54.9498 32.7549L56.0528 31.3761L57.4315 29.9974L60.189 27.7914L62.1192 26.1369L62.395 25.3097L62.1192 24.2067L61.5677 23.3795L60.7405 23.6552L60.4647 24.7582L59.9132 25.8612L58.8102 26.6884H57.1558L55.777 26.4127L54.9498 25.8612V24.7582L55.777 22.2765L54.9498 21.4492L53.2953 21.1735L49.1591 19.519L48.0561 18.6917L46.4016 17.0373H45.0229L44.4714 17.5888L43.6441 17.8645H43.0926L41.7139 17.313H40.8866L40.0594 17.8645L39.2322 18.6917L38.6807 19.519L38.4049 20.8977L36.7504 23.3795V24.4824Z" fill="white"/>
<path d="M38.4334 30.589C38.1846 29.8694 38.5663 29.0843 39.2859 28.8354C40.0056 28.5866 40.7907 28.9683 41.0395 29.688L42.1208 32.8153C42.3696 33.535 41.9879 34.3201 41.2682 34.5689C40.5486 34.8177 39.7635 34.436 39.5147 33.7164L38.4334 30.589Z" fill="#3E3E3F"/>
<path d="M51.4452 33.8251C52.1716 33.5967 52.9457 34.0003 53.1742 34.7266C53.4027 35.453 52.999 36.2271 52.2727 36.4555L48.9261 37.5083C48.1997 37.7368 47.4256 37.3332 47.1971 36.6068C46.9687 35.8805 47.3723 35.1064 48.0986 34.8779L51.4452 33.8251Z" fill="#3E3E3F"/>
<path d="M40.9985 28.3599C40.7497 27.6402 41.1314 26.8551 41.8511 26.6063C42.5707 26.3575 43.3558 26.7392 43.6047 27.4588L45.5239 33.0099C45.7727 33.7296 45.3911 34.5147 44.6714 34.7635C43.9517 35.0123 43.1666 34.6306 42.9178 33.911L40.9985 28.3599Z" fill="#3E3E3F"/>
<path d="M43.8189 26.763C43.5701 26.0434 43.9518 25.2583 44.6714 25.0094C45.3911 24.7606 46.1762 25.1423 46.425 25.862L48.7603 32.6162C49.0091 33.3359 48.6274 34.121 47.9077 34.3698C47.1881 34.6186 46.403 34.2369 46.1542 33.5173L43.8189 26.763Z" fill="#3E3E3F"/>
<path d="M47.104 26.3559C46.8552 25.6362 47.2369 24.8511 47.9566 24.6023C48.6762 24.3535 49.4613 24.7352 49.7101 25.4548L51.8747 31.7152C52.1235 32.4349 51.7418 33.22 51.0221 33.4688C50.3025 33.7176 49.5174 33.3359 49.2686 32.6163L47.104 26.3559Z" fill="#3E3E3F"/>
<path fill-rule="evenodd" clip-rule="evenodd" d="M47.8996 93.3923C73.2247 93.3923 93.7547 72.8622 93.7547 47.5372C93.7547 22.2121 73.2247 1.68209 47.8996 1.68209C22.5745 1.68209 2.04452 22.2121 2.04452 47.5372C2.04452 72.8622 22.5745 93.3923 47.8996 93.3923ZM47.8996 94.4952C73.8338 94.4952 94.8577 73.4714 94.8577 47.5372C94.8577 21.6029 73.8338 0.579102 47.8996 0.579102C21.9654 0.579102 0.941528 21.6029 0.941528 47.5372C0.941528 73.4714 21.9654 94.4952 47.8996 94.4952Z" fill="#3E3E3F"/>
<path d="M12.033 43.7916L6.43023 43.4184L6.70441 39.7106L7.68107 39.7757L7.49444 42.2995L8.82949 42.3884L8.99792 40.1107L9.97458 40.1757L9.80615 42.4535L12.1206 42.6076L12.033 43.7916Z" fill="#3E3E3F"/>
<path d="M12.4703 39.1177L6.96852 37.9945L7.81255 34.3061L8.7716 34.5019L8.19239 37.033L9.50336 37.3006L10.0391 34.9593L10.9982 35.1551L10.4624 37.4964L11.7761 37.7646L12.3577 35.2228L13.3167 35.4186L12.4703 39.1177Z" fill="#3E3E3F"/>
<path d="M14.3827 32.6175L13.6227 34.4573L8.35415 32.5149L9.12038 30.6599C9.33601 30.1378 9.62711 29.7273 9.99367 29.4284C10.3585 29.1288 10.7792 28.95 11.2557 28.8921C11.7329 28.8325 12.245 28.9035 12.7921 29.1052C13.3409 29.3075 13.7703 29.5836 14.0803 29.9335C14.391 30.2816 14.5734 30.6847 14.6273 31.1426C14.6819 31.5988 14.6004 32.0904 14.3827 32.6175ZM13.1215 33.0081L13.4094 32.3113C13.5434 31.9869 13.5978 31.6925 13.5726 31.4282C13.5463 31.1616 13.4328 30.927 13.2319 30.7245C13.03 30.5196 12.7326 30.3447 12.3399 30.1999C11.9506 30.0564 11.6091 29.9957 11.3153 30.0179C11.0223 30.0383 10.7718 30.1377 10.5637 30.316C10.3557 30.4943 10.1847 30.7457 10.0507 31.07L9.76181 31.7695L13.1215 33.0081Z" fill="#3E3E3F"/>
<path d="M15.9741 29.2217L11.0617 26.5015L13.0564 23.2863L13.9127 23.7605L12.5439 25.9669L13.7144 26.615L14.9806 24.574L15.8369 25.0482L14.5708 27.0892L15.7437 27.7387L17.1183 25.5229L17.9746 25.9971L15.9741 29.2217Z" fill="#3E3E3F"/>
<path d="M18.6323 25.1718L14.1621 21.7736L15.5985 20.087C15.8735 19.7642 16.1685 19.5345 16.4837 19.3981C16.7985 19.2592 17.1168 19.2135 17.4385 19.2608C17.7598 19.3057 18.0682 19.4404 18.3636 19.665C18.6605 19.8906 18.8637 20.146 18.9733 20.4311C19.0815 20.715 19.0933 21.0163 19.0089 21.335C18.9257 21.6523 18.7442 21.9751 18.4645 22.3036L17.5027 23.4328L16.7431 22.8554L17.5805 21.8722C17.7274 21.6997 17.8248 21.5375 17.8725 21.3858C17.9202 21.2341 17.9183 21.0928 17.8667 20.9619C17.8164 20.8296 17.7177 20.7076 17.5707 20.5959C17.4223 20.4831 17.2729 20.4165 17.1224 20.3961C16.9732 20.3743 16.8231 20.4013 16.6724 20.477C16.5214 20.5501 16.3718 20.6737 16.2236 20.8477L15.7045 21.4572L19.4021 24.268L18.6323 25.1718ZM18.5642 21.3167L21.5034 21.8007L20.6536 22.7985L17.734 22.2915L18.5642 21.3167Z" fill="#3E3E3F"/>
<path d="M22.8374 20.6775L21.8758 21.5105L19.4303 16.2117L20.5867 15.21L25.9605 17.9722L24.9989 18.8052L20.9188 16.6173L20.8856 16.646L22.8374 20.6775ZM21.2401 19.1457L23.5115 17.1782L24.1569 17.8432L21.8855 19.8107L21.2401 19.1457Z" fill="#3E3E3F"/>
<path d="M28.2862 12.3513L27.2659 12.9846C27.1585 12.8686 27.0417 12.7789 26.9154 12.7155C26.788 12.6506 26.6547 12.6109 26.5156 12.5963C26.3765 12.5816 26.2349 12.5922 26.0907 12.6279C25.9482 12.6627 25.8085 12.7225 25.6719 12.8073C25.4249 12.9606 25.2511 13.1534 25.1502 13.3857C25.0484 13.6165 25.0252 13.8757 25.0808 14.1635C25.1354 14.4498 25.2738 14.7527 25.496 15.0724C25.7246 15.401 25.9671 15.6458 26.2235 15.8068C26.4815 15.9668 26.7418 16.0469 27.0043 16.0473C27.2669 16.0476 27.5185 15.973 27.7593 15.8236C27.8944 15.7397 28.0074 15.6449 28.0983 15.5391C28.1908 15.4322 28.2591 15.3179 28.3033 15.1959C28.3464 15.0725 28.3641 14.9444 28.3563 14.8118C28.3501 14.6781 28.3158 14.5425 28.2536 14.405L29.2771 13.7762C29.3978 14.0042 29.4737 14.2493 29.5048 14.5114C29.5364 14.7711 29.5174 15.0332 29.4479 15.2976C29.3788 15.5596 29.2537 15.8113 29.0725 16.0527C28.8918 16.2916 28.6484 16.506 28.3425 16.6959C27.9169 16.96 27.4717 17.1031 27.0069 17.1252C26.5436 17.1464 26.0922 17.0409 25.6529 16.8087C25.2151 16.5755 24.8219 16.2084 24.4733 15.7071C24.1238 15.2044 23.9242 14.7159 23.8746 14.2418C23.8251 13.7677 23.9039 13.3342 24.111 12.9415C24.3171 12.5472 24.6297 12.2199 25.0491 11.9596C25.3255 11.788 25.6079 11.6665 25.8961 11.595C26.1859 11.5226 26.4725 11.5015 26.756 11.5319C27.0384 11.5607 27.309 11.643 27.5679 11.7788C27.8284 11.9136 28.0679 12.1044 28.2862 12.3513Z" fill="#3E3E3F"/>
<path d="M29.7752 9.52618L32.4007 14.4898L31.3271 14.9966L28.7016 10.0331L29.7752 9.52618Z" fill="#3E3E3F"/>
<path d="M37.295 9.73006C37.5106 10.3032 37.584 10.8277 37.5152 11.3037C37.4481 11.779 37.2656 12.1862 36.9677 12.5252C36.6708 12.8619 36.2876 13.109 35.818 13.2667C35.345 13.4256 34.8805 13.462 34.4247 13.3762C33.9689 13.2903 33.5562 13.083 33.1866 12.7543C32.817 12.4255 32.5247 11.9755 32.3098 11.404C32.0942 10.8309 32.0199 10.3067 32.087 9.83134C32.1541 9.35598 32.336 8.94996 32.6329 8.61327C32.9291 8.27486 33.3137 8.02624 33.7868 7.86739C34.2563 7.70971 34.7191 7.67381 35.1749 7.75969C35.6318 7.84328 36.045 8.04943 36.4146 8.37816C36.7859 8.70631 37.0794 9.15694 37.295 9.73006ZM36.154 10.1132C36.0143 9.74197 35.8402 9.4478 35.6317 9.23071C35.4249 9.01303 35.1953 8.87237 34.943 8.80871C34.6907 8.74506 34.4286 8.75891 34.1565 8.85026C33.8845 8.94161 33.6719 9.08719 33.5187 9.287C33.3655 9.48681 33.2805 9.73308 33.2638 10.0258C33.2488 10.318 33.3111 10.6497 33.4508 11.0209C33.5905 11.3921 33.7637 11.6866 33.9705 11.9043C34.179 12.1214 34.4094 12.2617 34.6617 12.3254C34.914 12.3891 35.1762 12.3752 35.4483 12.2839C35.7203 12.1925 35.9329 12.0469 36.0861 11.8471C36.2393 11.6473 36.3234 11.4013 36.3384 11.1092C36.3551 10.8164 36.2936 10.4845 36.154 10.1132Z" fill="#3E3E3F"/>
<path d="M43.0576 5.8612L44.0282 11.3919L43.0151 11.5506L39.9907 8.44767L39.9501 8.45403L40.561 11.935L39.3881 12.1188L38.4174 6.58805L39.4468 6.42681L42.4518 9.53001L42.5005 9.52237L41.8901 6.04408L43.0576 5.8612Z" fill="#3E3E3F"/>
<path d="M48.0976 6.58156L48.1547 5.6044L52.7601 5.84605L52.703 6.82321L50.9862 6.73313L50.7156 11.3616L49.5437 11.3001L49.8144 6.67164L48.0976 6.58156Z" fill="#3E3E3F"/>
<path d="M53.6494 11.6614L52.3997 11.4232L55.4766 6.2947L56.9795 6.58115L57.7083 12.435L56.4586 12.1968L55.9816 7.6969L55.9385 7.68869L53.6494 11.6614ZM54.0323 9.48799L56.9841 10.0506L56.7906 10.9569L53.8387 10.3943L54.0323 9.48799Z" fill="#3E3E3F"/>
<path d="M58.2213 12.5908L60.2415 7.35161L63.8192 8.58296L63.4671 9.49624L61.0119 8.65125L60.5305 9.89966L62.8016 10.6813L62.4495 11.5946L60.1784 10.8129L59.696 12.0639L62.1615 12.9125L61.8094 13.8258L58.2213 12.5908Z" fill="#3E3E3F"/>
<path d="M62.9332 14.2171L65.7275 9.34652L66.7842 9.88764L65.5522 12.0352L65.6181 12.0689L68.6488 10.8424L69.9153 11.491L66.8094 12.7221L67.143 16.3728L65.8788 15.7255L65.6586 13.0219L64.784 13.3741L63.9899 14.7582L62.9332 14.2171Z" fill="#3E3E3F"/>
<path d="M68.8032 17.3898L71.1775 12.1483L72.208 12.9355L70.4098 16.464L70.4469 16.4923L73.7986 14.1505L74.681 14.8246L72.9516 18.4159L72.9908 18.4459L76.2716 16.0396L77.3022 16.8268L72.3743 20.1177L71.4549 19.4153L72.9922 15.977L72.9573 15.9503L69.7227 18.0922L68.8032 17.3898Z" fill="#3E3E3F"/>
<path d="M79.2901 23.3311C78.8091 23.71 78.3231 23.9453 77.832 24.0371C77.3422 24.1302 76.8764 24.0975 76.4347 23.939C75.9956 23.7808 75.6122 23.5159 75.2844 23.1446C74.9542 22.7704 74.7469 22.3645 74.6625 21.9269C74.578 21.4892 74.6284 21.0512 74.8134 20.6127C74.9984 20.1742 75.3307 19.766 75.8103 19.3883C76.2913 19.0093 76.7767 18.7733 77.2666 18.6802C77.7564 18.587 78.2208 18.6196 78.6599 18.7779C79.1004 18.935 79.4858 19.2006 79.816 19.5748C80.1438 19.9462 80.3499 20.3507 80.4343 20.7884C80.5214 21.2262 80.4724 21.6644 80.2874 22.1029C80.1035 22.5428 79.7711 22.9522 79.2901 23.3311ZM78.4936 22.4286C78.8052 22.1832 79.0287 21.9317 79.164 21.674C79.3005 21.4178 79.3533 21.166 79.3224 20.9185C79.2914 20.6711 79.181 20.4398 78.9911 20.2246C78.8012 20.0094 78.5802 19.8652 78.3281 19.792C78.0761 19.7187 77.8037 19.7218 77.5112 19.8013C77.2198 19.8821 76.9184 20.0453 76.6068 20.2907C76.2952 20.5362 76.0711 20.787 75.9346 21.0432C75.7993 21.3009 75.7471 21.5534 75.778 21.8008C75.809 22.0483 75.9194 22.2796 76.1093 22.4947C76.2992 22.7099 76.5202 22.8541 76.7723 22.9274C77.0243 23.0006 77.2961 22.9968 77.5874 22.916C77.88 22.8365 78.182 22.6741 78.4936 22.4286Z" fill="#3E3E3F"/>
<path d="M85.1092 27.2275L80.1593 29.8787L79.6317 28.9995L81.4901 25.236L81.4689 25.2008L78.3535 26.8695L77.7426 25.8515L82.6925 23.2002L83.2286 24.0936L81.3627 27.8393L81.3881 27.8816L84.5012 26.2142L85.1092 27.2275Z" fill="#3E3E3F"/>
<path d="M84.3379 32.5396L83.4676 32.8582L82.4959 30.4888L83.3662 30.1703L84.3379 32.5396Z" fill="#3E3E3F"/>
<path d="M82.6799 36.4924L82.208 34.5586L87.6945 33.3634L88.1704 35.3132C88.3043 35.8619 88.3097 36.3582 88.1867 36.802C88.0654 37.2455 87.8263 37.6183 87.4693 37.9205C87.1128 38.2244 86.6496 38.4385 86.0799 38.5626C85.5084 38.6871 84.991 38.6866 84.5278 38.5612C84.065 38.4376 83.675 38.2 83.3578 37.8483C83.0411 37.4984 82.8151 37.0464 82.6799 36.4924ZM83.4833 35.4954L83.6621 36.2279C83.7453 36.5689 83.876 36.8424 84.0542 37.0486C84.2347 37.2561 84.4678 37.3905 84.7536 37.4517C85.0416 37.5142 85.3901 37.501 85.7991 37.4119C86.2045 37.3236 86.5213 37.1919 86.7494 37.0169C86.978 36.8437 87.1246 36.6276 87.1893 36.3685C87.254 36.1094 87.2447 35.8094 87.1615 35.4684L86.9821 34.7333L83.4833 35.4954Z" fill="#3E3E3F"/>
<path d="M86.5807 45.1631C85.969 45.1918 85.4425 45.1003 85.0013 44.8886C84.5601 44.6787 84.2159 44.3801 83.9685 43.9928C83.7231 43.6073 83.5874 43.1672 83.5614 42.6725C83.5352 42.1742 83.6249 41.7216 83.8305 41.3149C84.0361 40.9082 84.3474 40.5798 84.7644 40.3296C85.1814 40.0795 85.6948 39.9401 86.3046 39.9115C86.9163 39.8828 87.4427 39.9734 87.8839 40.1833C88.325 40.3932 88.6683 40.6909 88.9137 41.0764C89.161 41.4619 89.2977 41.9038 89.3239 42.4021C89.3499 42.8968 89.2601 43.3475 89.0545 43.7542C88.8508 44.1627 88.5405 44.492 88.1235 44.7421C87.7066 44.9941 87.1923 45.1344 86.5807 45.1631ZM86.5175 43.9611C86.9137 43.9425 87.2447 43.8675 87.5105 43.7361C87.7765 43.6065 87.9741 43.4316 88.1034 43.2115C88.2328 42.9913 88.29 42.7379 88.2749 42.4513C88.2598 42.1648 88.1764 41.918 88.0246 41.711C87.8728 41.504 87.6577 41.3476 87.3794 41.2417C87.1012 41.1377 86.764 41.0949 86.3678 41.1135C85.9716 41.1321 85.6405 41.2062 85.3746 41.3358C85.1088 41.4672 84.9112 41.643 84.7818 41.8632C84.6525 42.0833 84.5953 42.3367 84.6104 42.6233C84.6255 42.9099 84.7089 43.1566 84.8607 43.3636C85.0125 43.5706 85.2275 43.7261 85.5057 43.8301C85.784 43.936 86.1213 43.9797 86.5175 43.9611Z" fill="#3E3E3F"/>
<path d="M8.87521 60.7136L13.8614 59.1888L14.5768 61.1175C14.7137 61.4867 14.7632 61.8224 14.7253 62.1246C14.6896 62.4279 14.5745 62.6854 14.3802 62.8972C14.1881 63.1101 13.9273 63.267 13.5978 63.3677C13.2667 63.469 12.9559 63.4861 12.6653 63.419C12.3764 63.3514 12.1194 63.2041 11.8942 62.9771C11.6696 62.7516 11.4877 62.4511 11.3484 62.0755L10.8694 60.7841L11.7167 60.525L12.1337 61.6494C12.2069 61.8467 12.2953 62.0022 12.3988 62.1158C12.5024 62.2294 12.6212 62.3012 12.7552 62.3311C12.8898 62.3625 13.039 62.3532 13.2029 62.3031C13.3685 62.2525 13.496 62.1772 13.5854 62.0772C13.6754 61.9788 13.7251 61.8546 13.7346 61.7046C13.7462 61.5558 13.7152 61.3819 13.6414 61.183L13.3829 60.4859L9.25856 61.7472L8.87521 60.7136ZM12.1235 62.6598L10.305 64.5687L9.88184 63.4277L11.7101 61.545L12.1235 62.6598Z" fill="#3E3E3F"/>
<path d="M10.7531 65.7897L15.4938 63.6188L17.1997 66.6903L16.3733 67.0687L15.2027 64.961L14.0731 65.4783L15.1559 67.428L14.3295 67.8064L13.2467 65.8567L12.1148 66.375L13.2903 68.4917L12.4639 68.8701L10.7531 65.7897Z" fill="#3E3E3F"/>
<path d="M13.1968 70.2868L17.6044 67.501L18.8559 69.1336C19.0965 69.4475 19.2376 69.7553 19.2793 70.0569C19.3224 70.3576 19.2757 70.6371 19.1392 70.8953C19.0053 71.154 18.7919 71.3758 18.4992 71.5608C18.2065 71.7458 17.9029 71.8497 17.5882 71.8727C17.2735 71.8956 16.9675 71.834 16.6702 71.6879C16.374 71.5432 16.104 71.3119 15.8603 70.994L15.0626 69.9534L15.8094 69.4814L16.4987 70.3806C16.6278 70.5489 16.765 70.6682 16.9103 70.7383C17.0581 70.8089 17.2079 70.8362 17.3597 70.8202C17.5139 70.8047 17.6635 70.7512 17.8084 70.6596C17.9548 70.5671 18.0613 70.4588 18.128 70.3346C18.1972 70.2109 18.2195 70.0748 18.1951 69.9262C18.1722 69.7768 18.0956 69.6172 17.9655 69.4475L17.5132 68.8575L13.8675 71.1617L13.1968 70.2868Z" fill="#3E3E3F"/>
<path d="M22.744 73.5037L23.5446 74.2616L20.9911 76.4855C20.7044 76.7352 20.3876 76.8912 20.0407 76.9537C19.695 77.0172 19.3443 76.99 18.9885 76.8719C18.6341 76.7527 18.3003 76.5449 17.9873 76.2485C17.673 75.9509 17.4576 75.6389 17.3412 75.3123C17.2261 74.9847 17.2108 74.6653 17.2951 74.3544C17.3795 74.0434 17.5651 73.7631 17.8518 73.5134L20.4052 71.2895L21.2058 72.0474L18.7234 74.2094C18.5736 74.3398 18.4719 74.4855 18.4183 74.6465C18.3659 74.8086 18.3644 74.9735 18.4137 75.1411C18.463 75.3088 18.5647 75.4656 18.7187 75.6114C18.874 75.7584 19.0423 75.8572 19.2235 75.9078C19.4059 75.9595 19.5868 75.9644 19.7661 75.9225C19.9467 75.8817 20.1118 75.7961 20.2616 75.6657L22.744 73.5037Z" fill="#3E3E3F"/>
<path d="M21.2235 79.2491L24.5636 75.2452L26.2837 76.4283C26.5997 76.6457 26.8269 76.8707 26.9652 77.1032C27.1035 77.3358 27.1612 77.5662 27.1381 77.7944C27.116 78.0213 27.0213 78.2351 26.8539 78.4358C26.7234 78.5922 26.5751 78.7066 26.4091 78.7791C26.2441 78.8502 26.0713 78.8832 25.8908 78.878C25.7128 78.8724 25.5359 78.8338 25.3601 78.7622L25.3275 78.8013C25.4857 78.9203 25.603 79.0687 25.6793 79.2463C25.757 79.4249 25.7808 79.6166 25.7507 79.8216C25.7217 80.0252 25.6251 80.2254 25.4609 80.4222C25.2837 80.6347 25.0689 80.7854 24.8164 80.8743C24.5665 80.9628 24.2915 80.9798 23.9915 80.9253C23.6914 80.8707 23.3806 80.7328 23.059 80.5116L21.2235 79.2491ZM22.7091 79.1818L23.4496 79.6911C23.7027 79.8652 23.9248 79.9472 24.1159 79.9371C24.3081 79.9257 24.4673 79.8444 24.5934 79.6932C24.6858 79.5824 24.7387 79.465 24.752 79.3408C24.7654 79.2166 24.739 79.0939 24.6729 78.9726C24.6083 78.8522 24.5032 78.742 24.3578 78.642L23.5964 78.1182L22.7091 79.1818ZM24.0742 77.5454L24.7476 78.0086C24.872 78.0942 24.9993 78.1499 25.1295 78.1759C25.2622 78.2015 25.3881 78.1958 25.5071 78.1587C25.6275 78.1225 25.7317 78.0516 25.8198 77.9461C25.9405 77.8014 25.9825 77.6468 25.946 77.4821C25.9108 77.3185 25.7926 77.1674 25.5912 77.0289L24.9011 76.5542L24.0742 77.5454Z" fill="#3E3E3F"/>
<path d="M26.0501 82.5942L28.7834 78.1539L29.7665 78.6529L27.5096 82.3192L29.5029 83.3309L29.0265 84.1049L26.0501 82.5942Z" fill="#3E3E3F"/>
<path d="M34.0163 80.6316L31.7474 85.3262L30.7233 84.9181L32.9922 80.2235L34.0163 80.6316Z" fill="#3E3E3F"/>
<path d="M38.417 83.9612L37.3432 83.6605C37.37 83.5184 37.3712 83.3859 37.3467 83.2629C37.3228 83.1383 37.2763 83.0249 37.2071 82.9228C37.138 82.8208 37.0481 82.7322 36.9375 82.6573C36.8286 82.5828 36.7022 82.5254 36.5584 82.4851C36.2985 82.4123 36.0506 82.4124 35.8146 82.4854C35.5792 82.5567 35.3674 82.6981 35.1793 82.9094C34.9917 83.1191 34.8398 83.3951 34.7236 83.7375C34.604 84.0894 34.5567 84.4 34.5816 84.6692C34.6082 84.9389 34.6972 85.1618 34.8485 85.338C34.9999 85.5141 35.2023 85.6377 35.4556 85.7086C35.5978 85.7484 35.7357 85.7668 35.8692 85.7637C36.0043 85.761 36.1313 85.7376 36.2501 85.6935C36.3694 85.6477 36.4777 85.5821 36.5747 85.4966C36.6734 85.4116 36.7573 85.3066 36.8266 85.1817L37.8988 85.4872C37.7941 85.706 37.6504 85.9052 37.4677 86.0846C37.2873 86.2629 37.0758 86.4087 36.8332 86.522C36.5928 86.6342 36.328 86.7026 36.0386 86.7272C35.7515 86.7506 35.4469 86.7173 35.1249 86.6271C34.6771 86.5017 34.3105 86.2899 34.0251 85.9918C33.7414 85.6941 33.5615 85.3278 33.4854 84.8929C33.411 84.4585 33.465 83.9729 33.6473 83.4361C33.8301 82.8977 34.0886 82.4685 34.4228 82.1485C34.757 81.8285 35.1342 81.619 35.5544 81.5202C35.9751 81.4198 36.4061 81.4313 36.8474 81.5549C37.1384 81.6364 37.3944 81.7521 37.6156 81.902C37.8383 82.0524 38.02 82.2317 38.1604 82.44C38.3014 82.6467 38.3948 82.8779 38.4404 83.1335C38.4877 83.3896 38.4799 83.6655 38.417 83.9612Z" fill="#3E3E3F"/>
<path d="M40.2913 87.8468L39.1192 87.6989L41.694 82.7702L43.1035 82.9481L44.0978 88.3273L42.9258 88.1793L42.2387 84.0395L42.1982 84.0344L40.2913 87.8468ZM40.5281 85.8117L43.2965 86.1611L43.1663 87.0117L40.3979 86.6623L40.5281 85.8117Z" fill="#3E3E3F"/>
<path d="M49.3625 88.4728L48.1845 88.5606L49.51 83.2338L50.9267 83.1282L53.1887 88.1876L52.0106 88.2754L50.346 84.3662L50.3054 84.3692L49.3625 88.4728ZM49.1044 86.4371L51.887 86.2297L51.9645 87.0867L49.1819 87.2941L49.1044 86.4371Z" fill="#3E3E3F"/>
<path d="M54.7521 87.9802L53.4394 82.934L55.4508 82.5026C55.8358 82.42 56.1822 82.4177 56.4898 82.4957C56.7987 82.5716 57.0567 82.7183 57.264 82.9358C57.4724 83.1512 57.62 83.4256 57.7068 83.7591C57.794 84.0942 57.7959 84.3981 57.7127 84.6709C57.6291 84.9421 57.4653 85.1714 57.2215 85.359C56.9794 85.5462 56.6624 85.6818 56.2708 85.7658L54.924 86.0547L54.701 85.1972L55.8735 84.9458C56.0793 84.9016 56.2429 84.837 56.3645 84.752C56.486 84.667 56.5655 84.5615 56.6028 84.4355C56.6418 84.3092 56.6397 84.1631 56.5965 83.9972C56.553 83.8297 56.4822 83.6957 56.3842 83.5953C56.2879 83.4946 56.1632 83.4294 56.0101 83.3998C55.8582 83.3682 55.6785 83.3747 55.4711 83.4192L54.7442 83.5751L55.83 87.749L54.7521 87.9802ZM56.908 85.0933L58.7724 87.1179L57.5825 87.3731L55.7454 85.3426L56.908 85.0933Z" fill="#3E3E3F"/>
<path d="M62.3077 82.2342C62.2231 82.1338 62.131 82.0517 62.0313 81.9877C61.931 81.9222 61.8234 81.8757 61.7086 81.8481C61.5947 81.8184 61.4747 81.8081 61.3487 81.8173C61.2243 81.8259 61.0953 81.8551 60.9618 81.9051C60.7122 81.9985 60.5202 82.1408 60.3857 82.3322C60.2528 82.5229 60.1862 82.7531 60.1858 83.0226C60.1846 83.2906 60.2591 83.59 60.4092 83.9208C60.5593 84.2515 60.7386 84.5135 60.9471 84.7067C61.1557 84.8999 61.3822 85.0221 61.6268 85.0735C61.8707 85.1233 62.1214 85.1 62.3789 85.0036C62.6126 84.9162 62.7939 84.8014 62.9227 84.6592C63.0525 84.5148 63.1274 84.3521 63.1475 84.171C63.1692 83.9893 63.1341 83.7972 63.0422 83.5947L63.2657 83.5464L62.0067 84.0174L61.6638 83.2616L63.7073 82.497L63.9787 83.0952C64.1681 83.5125 64.2402 83.905 64.195 84.2727C64.1491 84.6388 64.0041 84.9624 63.7598 85.2437C63.5148 85.5234 63.1872 85.7399 62.777 85.8934C62.3192 86.0647 61.8725 86.117 61.4369 86.0504C61.0005 85.9822 60.603 85.8027 60.2442 85.5121C59.8864 85.2193 59.5938 84.8225 59.3666 84.3217C59.192 83.9368 59.0935 83.5723 59.0712 83.2281C59.0498 82.8817 59.0955 82.5645 59.2084 82.2763C59.3213 81.9882 59.4911 81.7375 59.7179 81.5243C59.9447 81.3111 60.2195 81.1441 60.5422 81.0234C60.8188 80.9199 61.0942 80.863 61.3684 80.8526C61.642 80.8406 61.9032 80.8713 62.1521 80.9445C62.4026 81.0171 62.6312 81.1295 62.8379 81.2818C63.044 81.4326 63.2169 81.6192 63.3569 81.8416L62.3077 82.2342Z" fill="#3E3E3F"/>
<path d="M66.8734 84.0863L63.9794 79.7491L67.0577 78.0555L67.5621 78.8115L65.4497 79.9737L66.1393 81.0072L68.0934 79.9321L68.5978 80.6882L66.6438 81.7632L67.3348 82.7988L69.4562 81.6317L69.9606 82.3878L66.8734 84.0863Z" fill="#3E3E3F"/>
<path d="M71.4919 74.9226L75.0323 78.7505L74.2751 79.3279L70.243 78.2942L70.2127 78.3173L72.4409 80.7266L71.5643 81.3951L68.024 77.5672L68.7933 76.9805L72.8095 78.0231L72.8459 77.9954L70.6193 75.588L71.4919 74.9226Z" fill="#3E3E3F"/>
<path d="M73.2638 74.6511L72.5495 74.089L75.5059 70.991L76.2203 71.553L75.1182 72.7079L78.5016 75.3701L77.7494 76.1584L74.3659 73.4962L73.2638 74.6511Z" fill="#3E3E3F"/>
<path d="M76.8521 69.2414L81.2548 72.035L80.5825 72.9086L76.1798 70.1151L76.8521 69.2414Z" fill="#3E3E3F"/>
<path d="M79.509 65.0978L84.1947 67.3851L83.7096 68.2044L79.6048 68.7168L79.5854 68.7497L82.5345 70.1893L81.9729 71.1379L77.2872 68.8506L77.7801 68.0181L81.8735 67.5199L81.8969 67.4805L78.95 66.042L79.509 65.0978Z" fill="#3E3E3F"/>
<path d="M85.4361 64.6785L85.02 65.7841L80.6743 62.5539L81.1748 61.2243L86.7878 61.0877L86.3716 62.1933L82.0697 62.2232L82.0553 62.2613L85.4361 64.6785ZM83.4527 64.1401L84.4358 61.5286L85.2576 61.7837L84.2746 64.3951L83.4527 64.1401Z" fill="#3E3E3F"/>
</svg>
