<svg width="101" height="101" viewBox="0 0 101 101" fill="none" xmlns="http://www.w3.org/2000/svg">
<path fill-rule="evenodd" clip-rule="evenodd" d="M13.6282 44.3919C13.5533 57.6362 21.7566 84.021 52.5759 82.4414H53.0253L53.3549 82.5027L53.5356 82.5559L53.727 82.7047L53.8333 82.8323V83.13L53.727 83.2682L53.5356 83.4914C51.7538 84.782 46.4401 86.88 38.1666 85.24C46.9765 89.4267 73.5644 87.1808 80.4308 59.8257L80.6189 59.3063L80.7487 59.0553L80.9045 58.7523C80.9622 58.6889 81.088 58.5532 81.1296 58.5186C81.1711 58.484 81.32 58.383 81.3893 58.3369H81.6662L81.822 58.4061L81.9345 58.5619L82.0297 58.8735L82.1163 59.1764C82.7387 62.0868 82.4882 67.2457 79.0617 74.466C86.9992 65.323 90.0388 39.5996 67.9125 26.1885L67.5085 25.8681L67.1923 25.5764L67.022 25.3169L66.8517 25.0654L66.7868 24.8139V24.5382L66.9085 24.295L67.1923 24.1815H68.0518L68.6194 24.238C71.5844 24.7187 78.1133 27.8596 85.0174 35.8351C78.5743 25.4286 56.9093 7.89486 31.029 27.8805L30.706 28.0777L30.4565 28.1557H30.1603L29.942 28.0777L29.864 27.8805L29.903 27.5944L29.9888 27.2669L30.1213 26.8849C32.5588 22.2552 38.7766 16.371 50.8101 13.4827C37.0087 15.1221 10.6944 30.1066 22.1283 63.0214L22.2083 63.2587L22.2678 63.5562V63.8141L22.2083 64.0818L22.0298 64.2603H21.7521L21.4928 64.1783L21.172 63.925C19.2888 62.5389 15.4438 56.7017 13.6282 44.3919ZM22.9875 42.7516C20.3593 54.0065 27.5166 75.8974 51.4522 74.8731H51.8743L52.3325 74.9237L52.6524 75.011L52.9069 75.1346L53.0233 75.2509V75.44L52.7978 75.7018L52.4997 75.8908L52.0925 76.0945C48.674 77.5562 40.7711 78.2288 33.9469 75.011C42.4287 80.6416 66.3748 82.1717 73.6421 57.5593L73.7888 57.1786L73.955 56.8774C73.9896 56.8289 74.0651 56.7236 74.09 56.6904C74.1149 56.6571 74.225 56.5727 74.277 56.5346H74.412L74.5366 56.7423L74.6405 57.0435L74.734 57.3655L74.8067 57.7914C75.2082 61.171 74.6405 66.088 68.1641 74.704C76.6949 67.4646 84.3778 45.4253 63.6252 31.4598L63.3953 31.2615L63.2148 31.042L63.1128 30.8772L63.0344 30.6652L63.1128 30.5242L63.2148 30.4379H63.811L64.3602 30.4849C67.5435 31.3954 72.6388 33.2146 78.5498 42.2158C72.1493 29.2353 54.0525 18.8253 36.2418 32.7199L35.9052 32.971L35.5356 33.1615L35.2555 33.2847H35.0203L34.8187 33.1615V32.859L34.9195 32.5118L35.0875 32.1197C36.8244 29.0031 40.9116 24.7677 50.4837 22.1835C39.8034 22.9579 20.0474 35.7501 28.6008 59.5935L28.7331 60.0002L28.8049 60.2991V60.5741L28.7331 60.8372L28.6008 60.8969L28.231 60.7415L27.8962 60.4784C25.6081 58.513 22.4199 52.9696 22.9875 42.7516Z" fill="#00282F"/>
<path d="M42.4699 66.9538C25.7934 59.1664 29.3932 41.094 35.0003 35.222C31.6102 40.1069 30.8583 46.7984 31.945 49.1715L32.0346 49.3645L32.1518 49.5093H32.269L32.3517 49.4541L32.4482 49.33L32.5309 49.1715L32.6006 48.8844C34.7473 31.4825 50.9932 27.365 60.7537 31.2706C52.1863 29.2666 48.1376 31.5007 46.5306 32.6421L46.3502 32.7862L46.2678 32.946V33.1263L46.3502 33.2294L46.5666 33.2908H47.0669C65.5499 29.9727 73.2638 45.9185 72.4105 54.6838C71.7194 46.755 68.8441 42.9724 66.6758 41.487L66.4482 41.3488L66.2473 41.3L66.123 41.3488L66.066 41.487V41.6984L66.123 41.9016L66.2473 42.1915C75.2626 58.3599 62.9066 70.5539 53.8314 72.8946C61.5684 69.5494 63.7362 65.6248 64.4873 63.5334L64.5565 63.138V62.9205L64.4082 62.8118H64.1611L63.8448 62.9205L63.5779 63.138L63.3603 63.363C51.2794 76.3448 35.611 68.9967 30.7022 60.9005C35.6753 66.7204 40.2407 68.1121 42.8366 68.1121H43.1078L43.3543 68.0382L43.4529 67.8779V67.7177L43.3543 67.5822L43.1078 67.3603L42.8366 67.1755L42.4699 66.9538Z" fill="#00282F"/>
<path d="M39.6817 42.79C39.6817 41.4564 40.7628 40.3754 42.0964 40.3754C43.4299 40.3754 44.511 41.4564 44.511 42.79V53.8098C44.511 55.1434 43.4299 56.2244 42.0964 56.2244C40.7628 56.2244 39.6817 55.1434 39.6817 53.8098V42.79Z" fill="#E8AD0A"/>
<path fill-rule="evenodd" clip-rule="evenodd" d="M44.9638 42.79V53.8098C44.9638 55.3934 43.68 56.6772 42.0964 56.6772C40.5128 56.6772 39.229 55.3934 39.229 53.8098V42.79C39.229 41.2064 40.5128 39.9226 42.0964 39.9226C43.68 39.9226 44.9638 41.2064 44.9638 42.79ZM42.0964 40.3754C40.7628 40.3754 39.6817 41.4564 39.6817 42.79V53.8098C39.6817 55.1434 40.7628 56.2244 42.0964 56.2244C43.4299 56.2244 44.511 55.1434 44.511 53.8098V42.79C44.511 41.4564 43.4299 40.3754 42.0964 40.3754Z" fill="white"/>
<path d="M45.8225 41.2022C45.8225 39.8686 46.9036 38.7875 48.2371 38.7875C49.5707 38.7875 50.6518 39.8686 50.6518 41.2022V53.8098C50.6518 55.1434 49.5707 56.2244 48.2371 56.2244C46.9036 56.2244 45.8225 55.1434 45.8225 53.8098V41.2022Z" fill="#E8AD0A"/>
<path fill-rule="evenodd" clip-rule="evenodd" d="M51.1045 41.2022V53.8098C51.1045 55.3934 49.8208 56.6772 48.2371 56.6772C46.6535 56.6772 45.3698 55.3934 45.3698 53.8098V41.2022C45.3698 39.6186 46.6535 38.3348 48.2371 38.3348C49.8208 38.3348 51.1045 39.6186 51.1045 41.2022ZM48.2371 38.7875C46.9036 38.7875 45.8225 39.8686 45.8225 41.2022V53.8098C45.8225 55.1434 46.9036 56.2244 48.2371 56.2244C49.5707 56.2244 50.6518 55.1434 50.6518 53.8098V41.2022C50.6518 39.8686 49.5707 38.7875 48.2371 38.7875Z" fill="white"/>
<path d="M51.9759 41.7582C51.9759 40.4246 53.0569 39.3435 54.3905 39.3435C55.7241 39.3435 56.8051 40.4246 56.8051 41.7582V53.8098C56.8051 55.1434 55.7241 56.2244 54.3905 56.2244C53.0569 56.2244 51.9759 55.1434 51.9759 53.8098V41.7582Z" fill="#E8AD0A"/>
<path fill-rule="evenodd" clip-rule="evenodd" d="M57.2579 41.7582V53.8098C57.2579 55.3934 55.9741 56.6772 54.3905 56.6772C52.8069 56.6772 51.5231 55.3934 51.5231 53.8098V41.7582C51.5231 40.1745 52.8069 38.8908 54.3905 38.8908C55.9741 38.8908 57.2579 40.1745 57.2579 41.7582ZM54.3905 39.3435C53.0569 39.3435 51.9759 40.4246 51.9759 41.7582V53.8098C51.9759 55.1434 53.0569 56.2244 54.3905 56.2244C55.7241 56.2244 56.8051 55.1434 56.8051 53.8098V41.7582C56.8051 40.4246 55.7241 39.3435 54.3905 39.3435Z" fill="white"/>
<path d="M58.0826 43.8622C58.0826 42.5286 59.1637 41.4476 60.4973 41.4476C61.8308 41.4476 62.9119 42.5286 62.9119 43.8622V53.8098C62.9119 55.1434 61.8308 56.2244 60.4973 56.2244C59.1637 56.2244 58.0826 55.1434 58.0826 53.8098V43.8622Z" fill="#E8AD0A"/>
<path fill-rule="evenodd" clip-rule="evenodd" d="M63.3647 43.8622V53.8098C63.3647 55.3934 62.0809 56.6772 60.4973 56.6772C58.9137 56.6772 57.6299 55.3934 57.6299 53.8098V43.8622C57.6299 42.2786 58.9137 40.9948 60.4973 40.9948C62.0809 40.9948 63.3647 42.2786 63.3647 43.8622ZM60.4973 41.4476C59.1637 41.4476 58.0826 42.5286 58.0826 43.8622V53.8098C58.0826 55.1434 59.1637 56.2244 60.4973 56.2244C61.8308 56.2244 62.9119 55.1434 62.9119 53.8098V43.8622C62.9119 42.5286 61.8308 41.4476 60.4973 41.4476Z" fill="white"/>
<path d="M37.8052 57.6998L37.8441 57.7618C37.8789 57.8174 37.9179 57.8704 37.9606 57.9202L41.2368 61.7457C41.2925 61.8108 41.359 61.8658 41.4334 61.9083C41.4761 61.9327 41.5211 61.9528 41.5677 61.9683L41.5837 61.9737C41.6397 61.9923 41.6973 62.0055 41.7559 62.0131L41.8445 62.0246H42.0028L49.8112 61.4183C49.9515 61.4074 50.0878 61.3668 50.2112 61.2993L50.2813 61.2513C50.3472 61.2062 50.4067 61.1525 50.4584 61.0917L50.4818 61.0641C50.4975 61.0456 50.5117 61.0258 50.5242 61.005C50.5663 60.9351 50.5885 60.855 50.5885 60.7734V58.5189C50.5885 58.4538 50.5768 58.3893 50.5539 58.3284C50.5396 58.2901 50.521 58.2536 50.4985 58.2196L50.4228 58.1051L50.3767 58.0512C50.3239 57.9894 50.2639 57.934 50.198 57.8863L50.1791 57.8726C50.135 57.8406 50.0877 57.8132 50.0381 57.7908C49.9618 57.7565 49.8807 57.7343 49.7976 57.725L49.6898 57.7129L40.5652 57.3109C40.4878 57.3075 40.4102 57.2928 40.3368 57.2678C40.2778 57.2477 40.2205 57.2205 40.1677 57.1873C40.1209 57.1579 40.0773 57.1237 40.0375 57.0853L40.0309 57.079C39.9925 57.0419 39.9579 57.001 39.9277 56.957C39.8953 56.9099 39.8681 56.8595 39.8465 56.8066L39.2884 55.4399C39.2625 55.3764 39.2317 55.315 39.1962 55.2563L39.1651 55.205C39.1472 55.1753 39.1268 55.1473 39.1041 55.1211L39.0814 55.095C39.0454 55.0534 39.0017 55.019 38.9527 54.9939C38.8917 54.9625 38.824 54.9461 38.7554 54.9461H38.6564C38.5759 54.9461 38.4961 54.9618 38.4215 54.9923L38.4163 54.9944C38.3556 55.0193 38.2995 55.0541 38.2503 55.0975C38.2031 55.1392 38.1629 55.1882 38.1312 55.2426L38.1229 55.2568C38.0891 55.3149 38.064 55.3777 38.0484 55.4431L37.7008 56.8976C37.6857 56.9611 37.6755 57.0257 37.6704 57.0908L37.6668 57.1369C37.66 57.2233 37.6655 57.3102 37.6829 57.3951C37.7052 57.5032 37.7466 57.6063 37.8052 57.6998Z" fill="#E8AD0A"/>
<path fill-rule="evenodd" clip-rule="evenodd" d="M38.6564 55.1725C38.6053 55.1725 38.5546 55.1824 38.5073 55.2018L38.5021 55.2039C38.4648 55.2192 38.4303 55.2406 38.4001 55.2673C38.3711 55.2929 38.3464 55.323 38.3269 55.3564L38.3186 55.3707C38.2959 55.4097 38.2791 55.4518 38.2686 55.4957L37.921 56.9502C37.9086 57.0022 37.9002 57.0551 37.8961 57.1085L37.8925 57.1545C37.8874 57.2198 37.8915 57.2854 37.9047 57.3495C37.9214 57.4311 37.9527 57.509 37.997 57.5795L38.0358 57.6415C38.0648 57.6877 38.0971 57.7316 38.1325 57.773L41.4087 61.5984C41.4475 61.6438 41.4939 61.6821 41.5457 61.7117C41.5755 61.7287 41.6068 61.7427 41.6393 61.7536L41.6553 61.7589C41.6975 61.773 41.7409 61.7829 41.7849 61.7886L41.8591 61.7982H41.994L49.7937 61.1926C49.8985 61.1845 50.0004 61.1549 50.0932 61.1057L50.1535 61.0644C50.2027 61.0308 50.2472 60.9907 50.2857 60.9452L50.3091 60.9177C50.3169 60.9085 50.324 60.8987 50.3302 60.8883C50.3511 60.8536 50.3621 60.8139 50.3621 60.7734V58.5189C50.3621 58.481 50.3553 58.4434 50.342 58.4078C50.3336 58.3856 50.3228 58.3643 50.3096 58.3444L50.2416 58.2416L50.2046 58.1983C50.1634 58.15 50.1166 58.1068 50.0652 58.0696L50.0463 58.0559C50.0146 58.033 49.9807 58.0133 49.945 57.9972C49.8903 57.9726 49.8321 57.9566 49.7725 57.9499L49.6722 57.9387L40.5553 57.5371C40.4561 57.5327 40.3573 57.5139 40.2639 57.4821C40.1884 57.4564 40.1152 57.4217 40.0473 57.379C39.9872 57.3413 39.9313 57.2974 39.8803 57.2482L39.8737 57.2418C39.8244 57.1942 39.7799 57.1417 39.7411 57.0852C39.6995 57.0248 39.6646 56.9601 39.6369 56.8921L39.0789 55.5254C39.0574 55.4729 39.0319 55.4221 39.0025 55.3735L38.9714 55.3221C38.9601 55.3035 38.9473 55.2858 38.933 55.2694L38.9104 55.2432C38.8932 55.2234 38.8725 55.2071 38.8492 55.1952C38.8202 55.1803 38.788 55.1725 38.7554 55.1725H38.6564ZM37.9273 55.143L37.9355 55.1288C37.9794 55.0534 38.0351 54.9855 38.1005 54.9278C38.1687 54.8677 38.2464 54.8194 38.3306 54.7849L38.3358 54.7828C38.3358 54.7828 38.3358 54.7828 38.3358 54.7828C38.4375 54.7411 38.5465 54.7197 38.6564 54.7197H38.7554C38.8601 54.7197 38.9632 54.7447 39.0562 54.7925C39.1309 54.8309 39.1975 54.8833 39.2525 54.9467L39.2752 54.9729C39.3062 55.0087 39.3342 55.0472 39.3588 55.0878L39.3899 55.1391C39.4315 55.2079 39.4676 55.2799 39.498 55.3543L40.056 56.721C40.0715 56.7589 40.091 56.795 40.1142 56.8287C40.1359 56.8603 40.1606 56.8895 40.1882 56.9161L40.1947 56.9225C40.2233 56.95 40.2546 56.9746 40.2882 56.9957C40.3259 57.0194 40.3672 57.039 40.4098 57.0535C40.4631 57.0716 40.5195 57.0823 40.5752 57.0848L49.7073 57.4871L49.8228 57.5C49.9293 57.5119 50.0333 57.5404 50.1311 57.5845C50.1948 57.6132 50.2554 57.6483 50.312 57.6893L50.3308 57.703C50.4112 57.7612 50.4844 57.8287 50.5488 57.9042L50.6039 57.9686L50.6873 58.0947C50.7192 58.143 50.7456 58.1947 50.7659 58.2489C50.7983 58.3352 50.8149 58.4267 50.8149 58.5189V60.7734C50.8149 60.8961 50.7814 61.0165 50.7182 61.1217C50.6993 61.153 50.678 61.1827 50.6544 61.2106L50.631 61.2381C50.5663 61.3144 50.4917 61.3816 50.4092 61.4381L50.3298 61.4924L50.3199 61.4978C50.1684 61.5808 50.001 61.6306 49.8287 61.644L42.0116 62.251H41.8299L41.7268 62.2376C41.6538 62.2282 41.5819 62.2117 41.5121 62.1884L41.4961 62.1831C41.4353 62.1628 41.3767 62.1366 41.3211 62.1048C41.2241 62.0494 41.1375 61.9778 41.0648 61.8929L37.7886 58.0675C37.7387 58.0091 37.6931 57.9472 37.6523 57.8821L37.6134 57.8201C37.5404 57.7037 37.4889 57.5753 37.4612 57.4407C37.4395 57.3351 37.4327 57.2268 37.4411 57.1193L37.4447 57.0732C37.4507 56.9963 37.4627 56.92 37.4807 56.845L37.8282 55.3905C37.849 55.3036 37.8824 55.2202 37.9273 55.143Z" fill="white"/>
<path fill-rule="evenodd" clip-rule="evenodd" d="M50.5 87.1617C70.653 87.1617 86.9917 70.8158 86.9917 50.6502C86.9917 30.4847 70.653 14.1388 50.5 14.1388C30.3469 14.1388 14.0082 30.4847 14.0082 50.6502C14.0082 70.8158 30.3469 87.1617 50.5 87.1617ZM50.5 88.8595C71.5915 88.8595 88.6895 71.7527 88.6895 50.6502C88.6895 29.5478 71.5915 12.441 50.5 12.441C29.4084 12.441 12.3104 29.5478 12.3104 50.6502C12.3104 71.7527 29.4084 88.8595 50.5 88.8595Z" fill="#00282F"/>
<path fill-rule="evenodd" clip-rule="evenodd" d="M50.4999 99.2904C77.2011 99.2904 98.8626 77.5224 98.8626 50.6504C98.8626 23.7784 77.2011 2.01032 50.4999 2.01032C23.7988 2.01032 2.13727 23.7784 2.13727 50.6504C2.13727 77.5224 23.7988 99.2904 50.4999 99.2904ZM50.4999 100.988C78.1476 100.988 100.56 78.4512 100.56 50.6504C100.56 22.8495 78.1476 0.3125 50.4999 0.3125C22.8523 0.3125 0.439453 22.8495 0.439453 50.6504C0.439453 78.4512 22.8523 100.988 50.4999 100.988Z" fill="#00282F"/>
<path d="M78.8725 83.613L79.9975 84.8856C89.5637 77.0423 95.8033 65.4355 96.3425 52.3905H94.6431C94.1038 64.918 88.0904 76.0758 78.8725 83.613Z" fill="#00282F"/>
<path d="M77.7965 82.3958L76.6718 81.1235C84.8859 74.1339 90.2479 63.8928 90.7676 52.3905H92.4671C91.9467 64.3995 86.3626 75.0952 77.7965 82.3958Z" fill="#00282F"/>
<path d="M23.4221 82.2751L24.5414 80.9984C16.4045 74.0072 11.1015 63.8106 10.591 52.3673H8.89151C9.40293 64.3197 14.9303 74.9728 23.4221 82.2751Z" fill="#00282F"/>
<path d="M21.2292 84.7763L22.3487 83.4994C13.2034 75.9593 7.2457 64.8414 6.71551 52.3673H5.01616C5.54644 65.3613 11.7325 76.9299 21.2292 84.7763Z" fill="#00282F"/>
<path d="M10.898 43.9615L10.7742 45.1435L9.59064 45.4421L9.33153 47.9158L10.428 48.4489L10.3037 49.6352L4.60868 46.6785L4.7148 45.6654L10.898 43.9615ZM6.21749 46.3947L8.39396 47.4549L8.57835 45.6945L6.22898 46.2849L6.0206 46.3186L6.21749 46.3947Z" fill="#00282F"/>
<path d="M11.9283 40.208C11.7849 40.7584 11.5207 41.2276 11.1359 41.6156C10.7519 42.0009 10.2966 42.2668 9.77004 42.4132C9.24424 42.5569 8.70752 42.5573 8.15988 42.4146C7.6095 42.2711 7.1413 42.0087 6.75528 41.6274C6.36997 41.2433 6.10512 40.7897 5.96074 40.2667C5.81432 39.7401 5.81285 39.2017 5.95631 38.6513C6.05338 38.2789 6.20807 37.9435 6.42039 37.645C6.63069 37.343 6.88236 37.0899 7.17542 36.8856L7.85361 37.7335C7.66209 37.8736 7.49219 38.0486 7.3439 38.2585C7.19358 38.465 7.08702 38.6887 7.02421 38.9297C6.93785 39.261 6.94244 39.5912 7.03798 39.9202C7.13352 40.2492 7.30565 40.5368 7.55439 40.7829C7.80384 41.0263 8.10518 41.1941 8.45841 41.2862C8.81163 41.3782 9.15651 41.3789 9.49304 41.2883C9.83028 41.1949 10.1209 41.0279 10.3649 40.7874C10.6089 40.5469 10.7741 40.261 10.8604 39.9296C10.9254 39.6805 10.9456 39.4401 10.9212 39.2086C10.894 38.9763 10.8227 38.7282 10.7073 38.4641L11.7181 38.0697C11.8761 38.3945 11.9749 38.739 12.0145 39.1032C12.0541 39.4673 12.0254 39.8356 11.9283 40.208Z" fill="#00282F"/>
<path d="M14.7357 32.4922L14.2635 33.5828L13.0448 33.5131L12.0566 35.7956L12.943 36.6327L12.4691 37.7272L7.92127 33.2004L8.32602 32.2655L14.7357 32.4922ZM9.54123 33.4115L11.3002 35.075L12.0034 33.4507L9.58508 33.3102L9.37619 33.2799L9.54123 33.4115Z" fill="#00282F"/>
<path d="M15.3608 31.3482L10.3328 28.1413L11.49 26.327C11.7973 25.845 12.1898 25.4744 12.6673 25.2151C13.1424 24.9543 13.6466 24.8295 14.1798 24.8407C14.713 24.8519 15.2134 25.0066 15.6811 25.3048C16.1487 25.603 16.5 25.9916 16.7349 26.4703C16.9691 26.9452 17.0693 27.4538 17.0355 27.9961C17.0009 28.5345 16.8306 29.0435 16.5248 29.5231L15.3608 31.3482ZM15.6256 28.9043C15.8158 28.606 15.9193 28.2911 15.9362 27.9595C15.9545 27.6255 15.8874 27.3125 15.7346 27.0205C15.5811 26.7245 15.354 26.4806 15.0534 26.2889C14.7528 26.0972 14.4359 25.9941 14.1028 25.9797C13.7697 25.9652 13.4556 26.0367 13.1605 26.1942C12.8654 26.3517 12.6219 26.5807 12.4302 26.8813L11.871 27.7581L15.0596 29.7918L15.6256 28.9043Z" fill="#00282F"/>
<path d="M21.7443 22.782L18.9138 26.0468L14.4078 22.1403L17.1966 18.9236L17.992 19.6132L15.9567 21.9607L17.0022 22.8672L18.6287 20.991L19.3792 21.6417L17.7526 23.5178L18.8719 24.4882L20.9489 22.0925L21.7443 22.782Z" fill="#00282F"/>
<path d="M23.1102 21.4285L22.215 22.1643L18.989 17.0964L19.9924 16.2717L23.8654 18.731L22.1992 14.4578L23.2026 13.6331L27.556 17.7799L26.6576 18.5183L23.7034 15.606L25.2744 19.6497L24.5038 20.2831L20.8408 17.9589L23.1102 21.4285Z" fill="#00282F"/>
<path d="M29.9608 16.3639L28.9838 16.971L25.836 11.9058L26.813 11.2987L29.9608 16.3639Z" fill="#00282F"/>
<path d="M35.6108 13.4708L34.539 13.9844L33.6648 13.1326L31.4218 14.2077L31.5421 15.4209L30.4665 15.9365L30.0018 9.53653L30.9205 9.09622L35.6108 13.4708ZM31.0864 10.7583L31.3234 13.1676L32.9195 12.4026L31.1859 10.7106L31.0481 10.5507L31.0864 10.7583Z" fill="#00282F"/>
<path d="M38.929 12.319L37.5571 6.51541L39.6513 6.02034C40.2076 5.88884 40.7473 5.89646 41.2705 6.0432C41.793 6.18719 42.2416 6.44896 42.6163 6.82853C42.991 7.20809 43.2421 7.66775 43.3697 8.20749C43.4973 8.74724 43.4786 9.27069 43.3135 9.77785C43.1505 10.2816 42.868 10.7162 42.4659 11.0817C42.0659 11.4437 41.5892 11.6902 41.0356 11.821L38.929 12.319ZM40.8219 10.7507C41.1661 10.6693 41.4598 10.5155 41.7029 10.2894C41.9488 10.0627 42.1187 9.79132 42.2127 9.47543C42.3088 9.15614 42.3158 8.823 42.2338 8.47602C42.1517 8.12904 41.9963 7.83431 41.7674 7.59183C41.5385 7.34936 41.2634 7.18178 40.942 7.08911C40.6206 6.99644 40.2864 6.99112 39.9394 7.07314L38.9274 7.31238L39.7975 10.9928L40.8219 10.7507Z" fill="#00282F"/>
<path d="M49.4646 10.6282L45.1592 10.995L44.653 5.05293L48.8949 4.69155L48.9843 5.7404L45.8885 6.00414L46.0059 7.38287L48.48 7.17209L48.5643 8.16173L46.0902 8.37251L46.216 9.84851L49.3752 9.57936L49.4646 10.6282Z" fill="#00282F"/>
<path d="M55.2657 10.9457L54.1207 10.8363L54.5854 5.96876L52.8445 5.80257L52.9466 4.73356L57.5776 5.17566L57.4755 6.24467L55.7304 6.07808L55.2657 10.9457Z" fill="#00282F"/>
<path d="M62.3933 12.3571L61.2364 12.0848L61.09 10.8729L58.6689 10.3029L58.0014 11.3231L56.8404 11.0497L60.4939 5.77455L61.4855 6.00801L62.3933 12.3571ZM60.5719 7.40634L59.2448 9.43117L60.9677 9.83682L60.6793 7.43163L60.6723 7.22067L60.5719 7.40634Z" fill="#00282F"/>
<path d="M67.6409 14.3962L63.6269 12.7967L65.8344 7.25675L69.7893 8.83266L69.3996 9.81053L66.5133 8.66041L66.0011 9.94584L68.3078 10.865L67.9401 11.7877L65.6334 10.8685L65.0851 12.2446L68.0305 13.4183L67.6409 14.3962Z" fill="#00282F"/>
<path d="M73.2001 17.4979L72.0017 16.8146L71.6918 13.6134L70.4361 14.0505L69.6308 15.4627L68.6316 14.893L71.5855 9.71238L72.5848 10.2821L71.2098 12.6936L74.6423 11.4553L75.8665 12.1533L72.7734 13.2334L73.2001 17.4979Z" fill="#00282F"/>
<path d="M75.6616 19.457L74.896 18.8177L76.9261 12.7437L77.8775 13.5381L76.3245 17.9147L80.2755 15.5403L81.2106 16.321L79.1677 17.5294L78.4059 19.6471L82.4096 17.3221L83.3577 18.1138L77.7403 21.1926L76.9877 20.5641L77.7599 18.2949L75.6616 19.457Z" fill="#00282F"/>
<path d="M81.6953 25.5989C81.3362 25.1578 81.1138 24.6675 81.0283 24.1277C80.9445 23.5901 80.9991 23.0658 81.1922 22.5545C81.3871 22.0455 81.704 21.6123 82.1428 21.2549C82.5838 20.8957 83.0722 20.6732 83.608 20.5872C84.1455 20.5034 84.6679 20.5579 85.1752 20.7506C85.6864 20.9437 86.1216 21.2607 86.4808 21.7017C86.84 22.1428 87.0614 22.6321 87.1452 23.1696C87.233 23.7076 87.1805 24.2302 86.9878 24.7374C86.7969 25.2469 86.4809 25.6812 86.0399 26.0404C85.6011 26.3977 85.1118 26.6192 84.5721 26.7048C84.0341 26.7925 83.5095 26.7399 82.9983 26.5468C82.4888 26.3559 82.0545 26.0399 81.6953 25.5989ZM82.5511 24.902C82.7691 25.1697 83.0381 25.3611 83.3582 25.4763C83.6801 25.5938 84.0129 25.6238 84.3567 25.5664C84.7022 25.5113 85.0165 25.3685 85.2996 25.1379C85.5848 24.9057 85.7894 24.6259 85.9134 24.2987C86.0392 23.9736 86.0761 23.6425 86.0241 23.3053C85.9743 22.9663 85.8413 22.6641 85.6251 22.3986C85.4089 22.1331 85.1398 21.9417 84.818 21.8243C84.4961 21.7069 84.1624 21.6757 83.8168 21.7309C83.473 21.7882 83.1596 21.9322 82.8766 22.1627C82.5935 22.3932 82.3891 22.6709 82.2634 22.996C82.1394 23.3232 82.1023 23.6563 82.1521 23.9953C82.2019 24.3343 82.3348 24.6365 82.5511 24.902Z" fill="#00282F"/>
<path d="M84.8599 29.8342L84.3057 28.8506L89.5014 25.9232L90.0702 26.9328L87.9447 31.375L91.4578 29.3956L92.012 30.3793L86.8164 33.3066L86.2913 32.3748L88.4766 27.7966L84.8599 29.8342Z" fill="#00282F"/>
<path d="M90.0938 36.6098L88.996 33.8946L89.8499 33.5493L90.9477 36.2645L90.0938 36.6098Z" fill="#00282F"/>
<path d="M88.7774 38.1151L94.539 36.5761L95.0944 38.6552C95.2419 39.2074 95.2499 39.7471 95.1183 40.2743C94.9895 40.8008 94.7408 41.2568 94.3722 41.6423C94.0036 42.0278 93.5514 42.2921 93.0156 42.4352C92.4797 42.5783 91.956 42.5747 91.4443 42.4244C90.936 42.2761 90.4934 42.0062 90.1165 41.6148C89.743 41.2255 89.4829 40.756 89.3361 40.2065L88.7774 38.1151ZM90.3998 39.9619C90.4911 40.3036 90.6533 40.5928 90.8864 40.8293C91.1201 41.0685 91.3963 41.2305 91.7147 41.3153C92.0367 41.4021 92.3699 41.3995 92.7143 41.3075C93.0588 41.2155 93.3489 41.0516 93.5847 40.8158C93.8204 40.58 93.98 40.3002 94.0633 39.9762C94.1467 39.6523 94.1423 39.3181 94.0503 38.9736L93.782 37.9689L90.1282 38.9449L90.3998 39.9619Z" fill="#00282F"/>
<path d="M90.4837 47.0493C90.4297 46.4831 90.5169 45.9518 90.7453 45.4553C90.9739 44.9616 91.3105 44.5557 91.7548 44.2376C92.1995 43.9224 92.7035 43.7379 93.2669 43.6841C93.8331 43.6302 94.3629 43.7161 94.8563 43.9419C95.3499 44.1706 95.7543 44.5058 96.0693 44.9476C96.3874 45.392 96.5734 45.8973 96.6274 46.4635C96.6814 47.0297 96.5941 47.5596 96.3654 48.0533C96.1398 48.5495 95.8061 48.9551 95.3643 49.2701C94.9228 49.5879 94.4189 49.7739 93.8527 49.8278C93.2893 49.8816 92.7594 49.7942 92.2629 49.5658C91.7667 49.3403 91.3595 49.0053 91.0414 48.5609C90.7236 48.1194 90.5377 47.6155 90.4837 47.0493ZM91.5823 46.9445C91.6151 47.2882 91.7326 47.5968 91.9349 47.8703C92.1375 48.1466 92.3977 48.3563 92.7155 48.4994C93.0336 48.6453 93.3743 48.7009 93.7377 48.6663C94.1039 48.6313 94.4293 48.5122 94.7141 48.3088C94.9991 48.1082 95.2136 47.8533 95.3575 47.5439C95.5042 47.2343 95.5613 46.9091 95.5288 46.5682C95.4963 46.2274 95.3788 45.9188 95.1762 45.6425C94.9736 45.3662 94.7133 45.1551 94.3952 45.0092C94.0774 44.8661 93.7368 44.8119 93.3734 44.8465C93.0101 44.8812 92.6859 44.9988 92.4008 45.1994C92.1161 45.4027 91.9003 45.6592 91.7536 45.9689C91.6069 46.2785 91.5498 46.6037 91.5823 46.9445Z" fill="#00282F"/>
<path d="M22.7522 87.337C22.5831 87.1822 22.4429 86.9771 22.3314 86.7217C22.224 86.466 22.1587 86.1895 22.1356 85.8921L23.1552 85.7149C23.179 85.8901 23.219 86.0476 23.2752 86.1873C23.3355 86.3269 23.4084 86.4358 23.494 86.5142C23.6463 86.6536 23.8103 86.7155 23.9858 86.6997C24.1614 86.684 24.3323 86.5853 24.4985 86.4037L27.3445 83.2949L28.1899 84.0687L25.2922 87.2339C25.0457 87.5032 24.7775 87.6873 24.4874 87.7862C24.1995 87.887 23.9056 87.9 23.6059 87.8251C23.3081 87.7481 23.0235 87.5854 22.7522 87.337Z" fill="#00282F"/>
<path d="M28.4813 91.2226C28.005 90.9117 27.6441 90.5121 27.3985 90.0239C27.1552 89.5373 27.0479 89.0211 27.0764 88.4753C27.1073 87.9311 27.2774 87.4221 27.5869 86.9482C27.8978 86.472 28.2954 86.1115 28.7797 85.8667C29.2663 85.6234 29.7806 85.5165 30.3224 85.5458C30.8681 85.5744 31.3791 85.7441 31.8554 86.0551C32.3316 86.366 32.6914 86.7648 32.9346 87.2514C33.1818 87.7373 33.2907 88.2511 33.2613 88.7929C33.2343 89.3363 33.0654 89.8461 32.7544 90.3223C32.445 90.7962 32.0462 91.1559 31.558 91.4016C31.0722 91.6487 30.5564 91.758 30.0107 91.7295C29.4673 91.7025 28.9575 91.5336 28.4813 91.2226ZM29.0846 90.2986C29.3737 90.4873 29.6882 90.5879 30.0281 90.6003C30.3705 90.6143 30.6967 90.5418 31.0067 90.3826C31.3192 90.225 31.5752 89.9934 31.7747 89.6877C31.9758 89.3797 32.0857 89.051 32.1044 88.7016C32.1254 88.3537 32.0598 88.027 31.9078 87.7216C31.7573 87.4138 31.5387 87.1663 31.252 86.9791C30.9653 86.7919 30.6508 86.6913 30.3085 86.6773C29.9662 86.6633 29.6388 86.7351 29.3263 86.8927C29.0163 87.0519 28.7615 87.2843 28.5619 87.5899C28.3623 87.8956 28.252 88.2223 28.231 88.5702C28.2124 88.9197 28.2783 89.2483 28.4288 89.5561C28.5793 89.8639 28.7979 90.1114 29.0846 90.2986Z" fill="#00282F"/>
<path d="M37.3643 94.7503L36.1622 94.2584L36.06 92.0427C35.9426 92.0008 35.8538 91.9675 35.7935 91.9428L34.8704 91.565L34.1116 93.4192L33.047 92.9836L35.3057 87.4642L37.5841 88.3967C37.9586 88.5499 38.257 88.7622 38.4792 89.0335C38.7051 89.3033 38.8399 89.6092 38.8834 89.9511C38.9306 90.2914 38.8803 90.6423 38.7324 91.0037C38.5834 91.3677 38.3755 91.648 38.1085 91.8445C37.8427 92.0384 37.5378 92.1521 37.1939 92.1857L37.3643 94.7503ZM35.2546 90.6262L36.3742 91.0843C36.5523 91.1572 36.7262 91.1841 36.8961 91.1649C37.066 91.1458 37.2162 91.085 37.3469 90.9825C37.4785 90.8774 37.5797 90.7384 37.6505 90.5656C37.7234 90.3875 37.7473 90.2169 37.7223 90.0538C37.6973 89.8907 37.6294 89.7467 37.5184 89.6218C37.4112 89.4954 37.2711 89.3968 37.0983 89.326L35.9748 88.8663L35.2546 90.6262Z" fill="#00282F"/>
<path d="M43.9646 93.5586L45.0329 93.7791L44.5953 95.8992C44.2864 96.0521 43.9456 96.1494 43.573 96.1909C43.2031 96.233 42.8353 96.2163 42.4695 96.1408C41.9124 96.0259 41.4303 95.7862 41.0229 95.4219C40.619 95.0554 40.3303 94.6129 40.157 94.0946C39.9871 93.5742 39.9593 93.0368 40.0737 92.4825C40.1881 91.9283 40.4258 91.4486 40.7868 91.0435C41.1506 90.6389 41.5902 90.3497 42.1057 90.1758C42.624 90.0025 43.1617 89.9734 43.7187 90.0884C44.09 90.165 44.4316 90.302 44.7434 90.4992C45.0558 90.6937 45.3201 90.9317 45.5365 91.2133L44.6988 91.9332C44.5495 91.7464 44.3705 91.5852 44.1615 91.4496C43.9559 91.3118 43.734 91.2184 43.4956 91.1692C43.1603 91.1 42.8308 91.1215 42.5071 91.2338C42.1834 91.3462 41.9051 91.5329 41.6721 91.7939C41.439 92.055 41.2856 92.3643 41.2119 92.7218C41.1381 93.0793 41.1556 93.4282 41.2645 93.7685C41.374 94.106 41.5545 94.3932 41.8061 94.6301C42.0611 94.8647 42.3548 95.0163 42.6874 95.085C43.0144 95.1525 43.3352 95.1522 43.6497 95.0842L43.9646 93.5586Z" fill="#00282F"/>
<path d="M51.4178 96.7029L47.0986 96.5802L47.268 90.619L51.5236 90.7399L51.4937 91.7921L48.3879 91.7039L48.3486 93.087L50.8307 93.1575L50.8025 94.1504L48.3204 94.0798L48.2783 95.5606L51.4477 95.6507L51.4178 96.7029Z" fill="#00282F"/>
<path d="M60.6382 95.4616L59.3722 95.7517L58.0127 93.9991C57.8926 94.0324 57.8008 94.0563 57.7374 94.0708L56.7651 94.2936L57.2124 96.2464L56.0912 96.5033L54.7596 90.6902L57.1593 90.1405C57.5537 90.0502 57.9199 90.0519 58.2578 90.1458C58.5979 90.2363 58.8841 90.4087 59.1166 90.6632C59.3512 90.9143 59.5121 91.2301 59.5993 91.6108C59.6871 91.9942 59.6785 92.343 59.5734 92.6574C59.4677 92.969 59.2839 93.2376 59.0221 93.463L60.6382 95.4616ZM56.5386 93.3047L57.7177 93.0346C57.9053 92.9916 58.063 92.9134 58.1909 92.7999C58.3187 92.6865 58.4065 92.5502 58.4543 92.3912C58.5014 92.2295 58.5042 92.0576 58.4624 91.8755C58.4195 91.688 58.3408 91.5347 58.2265 91.4158C58.1121 91.2968 57.9737 91.2182 57.8111 91.18C57.6506 91.1384 57.4793 91.1384 57.2973 91.1801L56.114 91.4512L56.5386 93.3047Z" fill="#00282F"/>
<path d="M64.3697 94.6456L63.2933 95.051L61.1912 89.4702L62.2677 89.0647L64.3697 94.6456Z" fill="#00282F"/>
<path d="M69.565 92.5043C69.0672 92.7796 68.5452 92.9115 67.9988 92.9C67.4549 92.8872 66.9485 92.7404 66.4796 92.4598C66.0132 92.1777 65.643 91.7891 65.3691 91.2939C65.0938 90.7961 64.9613 90.276 64.9717 89.7335C64.9845 89.1896 65.1307 88.6851 65.4103 88.2201C65.691 87.7512 66.0801 87.3791 66.5779 87.1038C67.0756 86.8285 67.5964 86.6972 68.1403 86.7101C68.6853 86.7191 69.1903 86.8633 69.6554 87.1429C70.1229 87.4211 70.4943 87.809 70.7696 88.3068C71.0435 88.802 71.1748 89.3228 71.1633 89.8692C71.1543 90.4142 71.0095 90.9211 70.7288 91.39C70.4506 91.8576 70.0627 92.229 69.565 92.5043ZM69.0308 91.5386C69.3329 91.3715 69.569 91.1406 69.7391 90.846C69.9117 90.5501 70.0003 90.2279 70.0048 89.8794C70.0118 89.5295 69.9269 89.1949 69.7502 88.8754C69.5722 88.5535 69.3331 88.3026 69.0331 88.1225C68.7355 87.9411 68.4161 87.8461 68.0751 87.8375C67.7326 87.8264 67.4116 87.9037 67.112 88.0695C66.8124 88.2352 66.5763 88.466 66.4037 88.762C66.2311 89.0579 66.1413 89.3809 66.1343 89.7307C66.1298 90.0792 66.2159 90.4132 66.3926 90.7326C66.5692 91.052 66.8064 91.3024 67.104 91.4838C67.404 91.6639 67.7253 91.7594 68.0677 91.7705C68.4102 91.7816 68.7312 91.7043 69.0308 91.5386Z" fill="#00282F"/>
<path d="M75.3283 89.0183C74.9643 89.3152 74.5628 89.5259 74.1238 89.6503C73.6852 89.7707 73.2375 89.7926 72.7807 89.7161L72.8808 88.6704C73.21 88.7159 73.5256 88.6976 73.8276 88.6156C74.1295 88.5337 74.3989 88.3961 74.6357 88.2029C74.8835 88.0008 75.0375 87.7912 75.0978 87.5741C75.1602 87.3551 75.119 87.1569 74.9741 86.9793C74.8775 86.8609 74.762 86.7908 74.6274 86.7691C74.495 86.7456 74.3335 86.7624 74.1426 86.8194C73.9522 86.8725 73.7023 86.9668 73.3929 87.1023C73.0813 87.2397 72.7855 87.3404 72.5055 87.4044C72.2277 87.4668 71.9454 87.4632 71.6588 87.3939C71.3722 87.3246 71.1154 87.1507 70.8882 86.8722C70.6915 86.631 70.5729 86.3626 70.5325 86.0669C70.4904 85.769 70.5403 85.4653 70.6823 85.1559C70.8265 84.8447 71.0675 84.5514 71.4051 84.276C71.7275 84.0131 72.0704 83.8246 72.4339 83.7107C72.7979 83.5928 73.1686 83.5459 73.5463 83.5702L73.5355 84.5978C73.2994 84.5859 73.0516 84.6201 72.792 84.7003C72.5307 84.7784 72.3014 84.8979 72.104 85.0589C71.9637 85.1734 71.8555 85.2981 71.7794 85.4332C71.7038 85.5643 71.6663 85.6952 71.6671 85.8261C71.6701 85.9551 71.7146 86.0722 71.8004 86.1775C71.8845 86.2805 71.9882 86.3383 72.1116 86.3508C72.2351 86.3634 72.3715 86.347 72.5209 86.3019C72.6685 86.2545 72.8765 86.1761 73.1451 86.0666L73.2362 86.0306C73.6404 85.8725 73.9932 85.7655 74.2945 85.7096C74.5962 85.6497 74.88 85.6574 75.1459 85.7327C75.4122 85.804 75.65 85.9679 75.8592 86.2244C76.0935 86.5117 76.226 86.8217 76.2565 87.1547C76.2875 87.4836 76.2221 87.8109 76.0604 88.1363C75.899 88.4578 75.655 88.7518 75.3283 89.0183Z" fill="#00282F"/>
</svg>
