<svg width="430" height="720" viewBox="0 0 430 720" fill="none" xmlns="http://www.w3.org/2000/svg">
<path fill-rule="evenodd" clip-rule="evenodd" d="M-190.83 315.363C-191.363 409.825 -132.855 598.009 86.9575 586.743H90.1632L92.5137 587.181L93.8028 587.56L95.1676 588.621L95.9259 589.531V591.654L95.1676 592.64L93.8028 594.232C81.0938 603.437 43.1956 618.401 -15.8138 606.704C47.0207 636.564 236.654 620.546 285.628 425.441L286.969 421.736L287.895 419.946L289.006 417.785C289.418 417.333 290.315 416.366 290.611 416.119C290.908 415.872 291.969 415.151 292.463 414.822H294.439L295.55 415.316L296.352 416.427L297.032 418.65L297.649 420.81C302.088 441.568 300.302 478.363 275.862 529.86C332.475 464.649 354.155 281.182 196.343 185.53L193.462 183.245L191.206 181.164L189.992 179.314L188.777 177.52L188.314 175.726V173.76L189.182 172.025L191.206 171.216H197.336L201.385 171.619C222.532 175.047 269.098 197.449 318.34 254.333C272.386 180.11 117.865 55.0543 -66.7214 197.598L-69.0254 199.005L-70.8047 199.561H-72.9176L-74.4744 199.005L-75.0304 197.598L-74.7524 195.557L-74.1408 193.222L-73.1956 190.497C-55.8101 157.477 -11.4633 115.509 74.3635 94.9089C-24.0725 106.601 -211.754 213.475 -130.204 448.234L-129.633 449.927L-129.209 452.048V453.887L-129.633 455.797L-130.907 457.07H-132.887L-134.737 456.485L-137.025 454.679C-150.456 444.793 -177.88 403.159 -190.83 315.363ZM-124.076 303.663C-142.821 383.937 -91.7733 540.069 78.9432 532.764H81.9539L85.2213 533.125L87.5033 533.747L89.3186 534.629L90.1484 535.459V536.807L88.5406 538.674L86.4142 540.023L83.5098 541.475C59.1277 551.9 2.76219 556.698 -45.9099 533.747C14.5848 573.907 185.376 584.82 237.208 409.276L238.254 406.561L239.44 404.413C239.687 404.067 240.225 403.316 240.403 403.079C240.581 402.842 241.366 402.239 241.736 401.968H242.699L243.588 403.449L244.329 405.598L244.996 407.894L245.515 410.932C248.378 435.036 244.329 470.105 198.137 531.558C258.982 479.924 313.779 322.733 165.765 223.127L164.125 221.713L162.838 220.147L162.11 218.971L161.551 217.459L162.11 216.454L162.838 215.838H167.09L171.007 216.173C193.711 222.667 230.052 235.643 272.212 299.842C226.561 207.261 97.4894 133.014 -29.5421 232.114L-31.9427 233.905L-34.5791 235.263L-36.5764 236.142H-38.2542L-39.6922 235.263V233.106L-38.9732 230.63L-37.7748 227.834C-25.3866 205.605 3.76459 175.396 72.0357 156.965C-4.13987 162.489 -145.045 253.727 -84.0403 423.785L-83.0962 426.685L-82.5845 428.817V430.779L-83.0962 432.655L-84.0403 433.081L-86.6779 431.973L-89.0658 430.097C-105.385 416.079 -128.124 376.541 -124.076 303.663ZM14.8784 476.281C-104.063 420.738 -78.3885 291.841 -38.3967 249.96C-62.5763 284.801 -67.9389 332.526 -60.1883 349.452L-59.5491 350.829L-58.7134 351.861H-57.8776L-57.2877 351.468L-56.5994 350.583L-56.0094 349.452L-55.5125 347.404C-40.2012 223.288 75.6693 193.921 145.284 221.777C84.1787 207.484 55.302 223.419 43.8404 231.559L42.5541 232.587L41.9661 233.727V235.013L42.5541 235.748L44.0977 236.186H47.6656C179.492 212.52 234.51 326.251 228.424 388.767C223.495 332.217 202.988 305.238 187.523 294.644L185.899 293.658L184.466 293.31L183.579 293.658L183.173 294.644V296.151L183.579 297.601L184.466 299.668C248.766 414.986 160.64 501.958 95.9121 518.652C151.095 494.793 166.556 466.802 171.913 451.885L172.407 449.065V447.514L171.349 446.739H169.587L167.331 447.514L165.427 449.065L163.875 450.67C77.7103 543.26 -34.041 490.851 -69.0524 433.107C-33.5828 474.616 -1.02087 484.542 17.4941 484.542H19.4282L21.1862 484.015L21.8894 482.872V481.729L21.1862 480.762L19.4282 479.18L17.4941 477.862L14.8784 476.281ZM38.7906 292.612C38.7906 283.101 46.5011 275.39 56.0125 275.39C65.5239 275.39 73.2344 283.101 73.2344 292.612V382.534C73.2344 392.045 65.5239 399.756 56.0125 399.756C46.5011 399.756 38.7906 392.045 38.7906 382.534V292.612ZM-5.0073 303.937C-5.0073 294.426 2.70322 286.715 12.2146 286.715C21.726 286.715 29.4366 294.426 29.4366 303.937V382.534C29.4366 392.045 21.726 399.756 12.2146 399.756C2.70322 399.756 -5.0073 392.045 -5.0073 382.534V303.937ZM99.9001 279.356C90.3886 279.356 82.6781 287.066 82.6781 296.578V382.534C82.6781 392.045 90.3886 399.756 99.9001 399.756C109.411 399.756 117.122 392.045 117.122 382.534V296.578C117.122 287.066 109.411 279.356 99.9001 279.356ZM126.234 311.584C126.234 302.073 133.944 294.362 143.456 294.362C152.967 294.362 160.677 302.073 160.677 311.584V382.534C160.677 392.045 152.967 399.756 143.456 399.756C133.944 399.756 126.234 392.045 126.234 382.534V311.584ZM-18.1142 410.721L-18.3916 410.278C-18.8096 409.612 -19.1049 408.876 -19.2635 408.105C-19.388 407.5 -19.4268 406.88 -19.3786 406.264L-19.3529 405.935C-19.3166 405.471 -19.244 405.01 -19.1358 404.557L-16.6568 394.183C-16.5453 393.717 -16.3662 393.269 -16.1251 392.854L-16.066 392.753C-15.8403 392.365 -15.5536 392.015 -15.2169 391.718C-14.866 391.409 -14.4657 391.16 -14.0326 390.983L-13.9957 390.968C-13.4639 390.75 -12.8948 390.638 -12.3202 390.638H-11.6141C-11.1246 390.638 -10.6422 390.755 -10.207 390.979C-9.85773 391.158 -9.54609 391.403 -9.28889 391.7L-9.12727 391.886C-8.96552 392.073 -8.81996 392.273 -8.69213 392.484L-8.47052 392.851C-8.21735 393.269 -7.9973 393.707 -7.81242 394.16L-3.83253 403.908C-3.67848 404.285 -3.48433 404.645 -3.25342 404.981C-3.03762 405.294 -2.79084 405.586 -2.51679 405.85L-2.46992 405.896C-2.18621 406.17 -1.87494 406.413 -1.54106 406.623C-1.16452 406.86 -0.756152 407.054 -0.335129 407.197C0.188429 407.375 0.741551 407.481 1.29409 407.505L66.373 410.372L67.1422 410.458C67.7348 410.524 68.3134 410.683 68.8571 410.928C69.2114 411.087 69.5485 411.283 69.8633 411.511L69.9979 411.608C70.4678 411.949 70.8957 412.344 71.2727 412.785L71.6011 413.169L72.1409 413.986C72.3015 414.229 72.4342 414.489 72.5365 414.762C72.6994 415.196 72.7829 415.656 72.7829 416.12V432.2C72.7829 432.782 72.6244 433.353 72.3243 433.852C72.235 434.001 72.1338 434.142 72.0217 434.274L71.8548 434.47C71.4866 434.904 71.062 435.287 70.5923 435.609L70.092 435.951C69.2119 436.433 68.2395 436.722 67.2392 436.8L11.5472 441.124H10.418L9.786 441.042C9.3686 440.988 8.95741 440.894 8.55811 440.761L8.44405 440.723C8.11139 440.612 7.7905 440.469 7.48605 440.295C6.95549 439.991 6.48108 439.599 6.08359 439.135L-17.2832 411.85C-17.5877 411.495 -17.8655 411.117 -18.1142 410.721Z" fill="#FFD449" fill-opacity="0.15"/>
<path fill-rule="evenodd" clip-rule="evenodd" d="M72.1514 620.41C215.889 620.41 332.422 503.826 332.422 359.999C332.422 216.172 215.889 99.5879 72.1514 99.5879C-71.5862 99.5879 -188.119 216.172 -188.119 359.999C-188.119 503.826 -71.5862 620.41 72.1514 620.41ZM72.1514 632.519C222.583 632.519 344.531 510.508 344.531 359.999C344.531 209.49 222.583 87.4785 72.1514 87.4785C-78.2799 87.4785 -200.229 209.49 -200.229 359.999C-200.229 510.508 -78.2799 632.519 72.1514 632.519Z" fill="#FFD449" fill-opacity="0.15"/>
<path fill-rule="evenodd" clip-rule="evenodd" d="M72.1513 706.916C262.592 706.916 417.089 551.659 417.089 360C417.089 168.34 262.592 13.084 72.1513 13.084C-118.289 13.084 -272.786 168.34 -272.786 360C-272.786 551.659 -118.289 706.916 72.1513 706.916ZM72.1513 719.025C269.343 719.025 429.198 558.284 429.198 360C429.198 161.716 269.343 0.974609 72.1513 0.974609C-125.04 0.974609 -284.896 161.716 -284.896 360C-284.896 558.284 -125.04 719.025 72.1513 719.025Z" fill="#FFD449" fill-opacity="0.15"/>
<path d="M274.513 595.099L282.537 604.176C350.766 548.235 395.269 465.452 399.115 372.411H386.994C383.148 461.761 340.258 541.342 274.513 595.099Z" fill="#FFD449" fill-opacity="0.15"/>
<path d="M266.839 586.418L258.817 577.344C317.403 527.491 355.646 454.449 359.353 372.411H371.474C367.762 458.063 327.935 534.348 266.839 586.418Z" fill="#FFD449" fill-opacity="0.15"/>
<path d="M-120.976 585.557L-112.993 576.451C-171.028 526.588 -208.851 453.863 -212.492 372.246H-224.613C-220.965 457.493 -181.542 533.475 -120.976 585.557Z" fill="#FFD449" fill-opacity="0.15"/>
<path d="M-136.617 603.396L-128.632 594.289C-193.859 540.511 -236.351 461.215 -240.133 372.246H-252.253C-248.471 464.923 -204.35 547.434 -136.617 603.396Z" fill="#FFD449" fill-opacity="0.15"/>
<path d="M-210.302 312.293L-211.185 320.724L-219.626 322.853L-221.474 340.497L-213.654 344.299L-214.54 352.759L-255.159 331.672L-254.402 324.446L-210.302 312.293ZM-243.685 329.647L-228.161 337.209L-226.846 324.654L-243.603 328.865L-245.089 329.105L-243.685 329.647Z" fill="#FFD449" fill-opacity="0.15"/>
<path d="M-202.953 285.522C-203.977 289.448 -205.86 292.794 -208.605 295.562C-211.344 298.31 -214.592 300.206 -218.347 301.251C-222.097 302.275 -225.925 302.279 -229.831 301.261C-233.757 300.237 -237.096 298.366 -239.849 295.646C-242.597 292.907 -244.486 289.672 -245.516 285.941C-246.56 282.186 -246.571 278.345 -245.548 274.42C-244.855 271.764 -243.752 269.371 -242.238 267.242C-240.738 265.089 -238.943 263.283 -236.853 261.826L-232.015 267.873C-233.381 268.873 -234.593 270.121 -235.651 271.618C-236.723 273.091 -237.483 274.686 -237.931 276.405C-238.547 278.768 -238.514 281.123 -237.833 283.47C-237.151 285.817 -235.924 287.868 -234.15 289.623C-232.37 291.359 -230.221 292.556 -227.702 293.212C-225.183 293.869 -222.723 293.874 -220.323 293.227C-217.917 292.561 -215.844 291.37 -214.104 289.655C-212.364 287.939 -211.186 285.9 -210.57 283.537C-210.107 281.76 -209.962 280.046 -210.137 278.394C-210.331 276.738 -210.839 274.968 -211.662 273.085L-204.453 270.271C-203.326 272.588 -202.621 275.045 -202.338 277.642C-202.056 280.24 -202.261 282.866 -202.953 285.522Z" fill="#FFD449" fill-opacity="0.15"/>
<path d="M-182.93 230.489L-186.298 238.267L-194.99 237.77L-202.038 254.05L-195.716 260.02L-199.096 267.827L-231.533 235.54L-228.646 228.872L-182.93 230.489ZM-219.979 237.045L-207.433 248.91L-202.418 237.325L-219.666 236.323L-221.156 236.107L-219.979 237.045Z" fill="#FFD449" fill-opacity="0.15"/>
<path d="M-178.472 222.332L-214.333 199.46L-206.08 186.519C-203.888 183.082 -201.089 180.438 -197.683 178.589C-194.294 176.729 -190.698 175.838 -186.895 175.918C-183.092 175.998 -179.523 177.101 -176.188 179.228C-172.853 181.356 -170.347 184.127 -168.671 187.541C-167.001 190.928 -166.287 194.556 -166.527 198.424C-166.774 202.264 -167.989 205.894 -170.17 209.314L-178.472 222.332ZM-176.583 204.901C-175.226 202.774 -174.488 200.528 -174.368 198.163C-174.237 195.781 -174.716 193.548 -175.805 191.465C-176.901 189.354 -178.52 187.615 -180.664 186.248C-182.809 184.88 -185.068 184.145 -187.444 184.042C-189.82 183.939 -192.061 184.449 -194.165 185.572C-196.27 186.695 -198.006 188.329 -199.374 190.473L-203.362 196.726L-180.62 211.231L-176.583 204.901Z" fill="#FFD449" fill-opacity="0.15"/>
<path d="M-132.943 161.235L-153.131 184.521L-185.269 156.658L-165.378 133.716L-159.705 138.634L-174.222 155.377L-166.765 161.842L-155.164 148.461L-149.811 153.102L-161.412 166.483L-153.429 173.404L-138.616 156.317L-132.943 161.235Z" fill="#FFD449" fill-opacity="0.15"/>
<path d="M-123.201 151.58L-129.585 156.828L-152.594 120.682L-145.438 114.8L-117.814 132.34L-129.698 101.863L-122.542 95.9805L-91.4917 125.557L-97.8998 130.824L-118.97 110.052L-107.765 138.893L-113.261 143.41L-139.387 126.833L-123.201 151.58Z" fill="#FFD449" fill-opacity="0.15"/>
<path d="M-74.3403 115.457L-81.3085 119.787L-103.759 83.6604L-96.7909 79.3301L-74.3403 115.457Z" fill="#FFD449" fill-opacity="0.15"/>
<path d="M-34.0429 94.8223L-41.6867 98.4861L-47.9223 92.4107L-63.9198 100.078L-63.0622 108.732L-70.7333 112.409L-74.0474 66.7622L-67.4955 63.6218L-34.0429 94.8223ZM-66.3122 75.476L-64.622 92.6601L-53.2381 87.2036L-65.6024 75.1358L-66.5854 73.9955L-66.3122 75.476Z" fill="#FFD449" fill-opacity="0.15"/>
<path d="M-10.3762 86.6084L-20.1613 45.2151L-5.22441 41.6841C-1.25694 40.7462 2.59256 40.8006 6.32404 41.8472C10.0509 42.8741 13.2504 44.7412 15.9228 47.4484C18.5951 50.1555 20.3863 53.4339 21.2963 57.2836C22.2064 61.1332 22.0727 64.8666 20.8954 68.4838C19.7331 72.0767 17.718 75.1765 14.8502 77.7831C11.9973 80.3655 8.59692 82.1233 4.64909 83.0565L-10.3762 86.6084ZM3.12437 75.4223C5.57949 74.8419 7.67409 73.7453 9.40817 72.1326C11.1619 70.5152 12.3739 68.5799 13.0441 66.3269C13.7294 64.0496 13.7795 61.6736 13.1944 59.1988C12.6094 56.724 11.5007 54.6219 9.86832 52.8925C8.23592 51.1631 6.27354 49.9679 3.98123 49.3069C1.68892 48.646 -0.694621 48.608 -3.16938 49.193L-10.3874 50.8993L-4.18203 77.1495L3.12437 75.4223Z" fill="#FFD449" fill-opacity="0.15"/>
<path d="M64.7666 74.5473L34.0596 77.1633L30.4491 34.7827L60.7037 32.2053L61.341 39.686L39.2608 41.567L40.0986 51.4005L57.7446 49.8972L58.3459 56.9556L40.6999 58.4589L41.5967 68.9862L64.1294 67.0666L64.7666 74.5473Z" fill="#FFD449" fill-opacity="0.15"/>
<path d="M106.142 76.8115L97.9755 76.0318L101.29 41.3147L88.8737 40.1293L89.6016 32.5048L122.631 35.6581L121.903 43.2826L109.457 42.0944L106.142 76.8115Z" fill="#FFD449" fill-opacity="0.15"/>
<path d="M156.978 86.8803L148.727 84.9376L147.683 76.2945L130.415 72.2287L125.654 79.505L117.374 77.5554L143.431 39.9313L150.504 41.5965L156.978 86.8803ZM143.988 51.5698L134.523 66.0115L146.811 68.9047L144.754 51.7501L144.704 50.2455L143.988 51.5698Z" fill="#FFD449" fill-opacity="0.15"/>
<path d="M194.406 101.424L165.777 90.0161L181.521 50.5033L209.729 61.7432L206.95 68.7177L186.364 60.5147L182.71 69.6828L199.162 76.2384L196.54 82.8192L180.088 76.2636L176.177 86.0785L197.185 94.4495L194.406 101.424Z" fill="#FFD449" fill-opacity="0.15"/>
<path d="M234.056 123.546L225.509 118.672L223.299 95.8405L214.342 98.9579L208.599 109.03L201.472 104.967L222.541 68.017L229.668 72.0807L219.861 89.28L244.342 80.4482L253.073 85.4266L231.013 93.1298L234.056 123.546Z" fill="#FFD449" fill-opacity="0.15"/>
<path d="M251.612 137.519L246.151 132.959L260.631 89.638L267.417 95.3036L256.34 126.519L284.52 109.584L291.189 115.152L276.619 123.771L271.186 138.875L299.741 122.293L306.503 127.939L266.438 149.898L261.07 145.416L266.578 129.23L251.612 137.519Z" fill="#FFD449" fill-opacity="0.15"/>
<path d="M294.646 181.325C292.085 178.18 290.499 174.682 289.889 170.832C289.291 166.998 289.681 163.258 291.058 159.612C292.448 155.981 294.708 152.892 297.838 150.343C300.983 147.781 304.467 146.194 308.288 145.58C312.122 144.983 315.848 145.371 319.466 146.746C323.112 148.123 326.216 150.384 328.778 153.53C331.339 156.675 332.919 160.165 333.517 163.999C334.143 167.836 333.768 171.563 332.394 175.181C331.032 178.815 328.779 181.912 325.633 184.474C322.503 187.023 319.014 188.603 315.164 189.213C311.327 189.839 307.585 189.463 303.939 188.086C300.306 186.724 297.208 184.471 294.646 181.325ZM300.75 176.355C302.305 178.264 304.223 179.63 306.506 180.451C308.802 181.289 311.176 181.503 313.628 181.094C316.092 180.701 318.334 179.682 320.353 178.038C322.387 176.381 323.847 174.386 324.731 172.052C325.628 169.733 325.891 167.372 325.52 164.967C325.165 162.549 324.217 160.394 322.675 158.5C321.132 156.606 319.214 155.241 316.918 154.404C314.622 153.566 312.242 153.344 309.777 153.738C307.326 154.147 305.09 155.173 303.071 156.817C301.053 158.461 299.595 160.442 298.698 162.761C297.813 165.095 297.549 167.47 297.904 169.888C298.259 172.306 299.208 174.461 300.75 176.355Z" fill="#FFD449" fill-opacity="0.15"/>
<path d="M317.217 211.534L313.264 204.518L350.322 183.639L354.378 190.84L339.219 222.523L364.275 208.406L368.228 215.421L331.171 236.3L327.426 229.654L343.012 197L317.217 211.534Z" fill="#FFD449" fill-opacity="0.15"/>
<path d="M354.547 259.857L346.717 240.491L352.807 238.029L360.637 257.395L354.547 259.857Z" fill="#FFD449" fill-opacity="0.15"/>
<path d="M345.158 270.595L386.252 259.618L390.213 274.447C391.265 278.386 391.322 282.235 390.384 285.995C389.465 289.75 387.691 293.003 385.062 295.752C382.433 298.501 379.208 300.387 375.386 301.407C371.564 302.428 367.829 302.403 364.179 301.33C360.554 300.272 357.397 298.348 354.709 295.556C352.045 292.779 350.19 289.431 349.143 285.512L345.158 270.595ZM356.73 283.767C357.381 286.205 358.538 288.267 360.2 289.953C361.867 291.66 363.837 292.815 366.108 293.42C368.404 294.039 370.781 294.021 373.238 293.364C375.694 292.708 377.764 291.539 379.445 289.857C381.127 288.176 382.265 286.18 382.859 283.869C383.454 281.559 383.423 279.175 382.766 276.718L380.852 269.553L354.792 276.514L356.73 283.767Z" fill="#FFD449" fill-opacity="0.15"/>
<path d="M357.328 334.317C356.943 330.279 357.565 326.489 359.194 322.948C360.825 319.427 363.225 316.532 366.394 314.263C369.565 312.015 373.16 310.699 377.178 310.316C381.217 309.931 384.995 310.543 388.514 312.154C392.035 313.785 394.919 316.176 397.166 319.327C399.435 322.497 400.762 326.1 401.147 330.139C401.532 334.177 400.909 337.957 399.278 341.478C397.669 345.017 395.289 347.91 392.138 350.157C388.989 352.423 385.395 353.749 381.357 354.134C377.338 354.518 373.559 353.895 370.018 352.266C366.479 350.657 363.575 348.268 361.306 345.098C359.039 341.949 357.713 338.355 357.328 334.317ZM365.164 333.57C365.397 336.021 366.236 338.222 367.679 340.173C369.123 342.143 370.979 343.639 373.246 344.659C375.514 345.7 377.945 346.097 380.536 345.85C383.148 345.601 385.47 344.751 387.501 343.3C389.533 341.87 391.063 340.051 392.089 337.845C393.136 335.637 393.543 333.317 393.311 330.886C393.079 328.455 392.241 326.254 390.796 324.283C389.351 322.313 387.495 320.807 385.226 319.766C382.959 318.746 380.53 318.359 377.939 318.606C375.347 318.853 373.034 319.692 371.002 321.123C368.971 322.573 367.432 324.403 366.385 326.611C365.339 328.819 364.932 331.139 365.164 333.57Z" fill="#FFD449" fill-opacity="0.15"/>
<path d="M-125.755 621.661C-126.96 620.557 -127.961 619.094 -128.755 617.272C-129.521 615.449 -129.987 613.477 -130.152 611.356L-122.88 610.092C-122.71 611.342 -122.425 612.465 -122.024 613.461C-121.594 614.456 -121.074 615.233 -120.464 615.792C-119.377 616.787 -118.208 617.228 -116.956 617.116C-115.704 617.003 -114.485 616.3 -113.299 615.005L-93.0003 592.831L-86.9713 598.351L-107.638 620.926C-109.396 622.846 -111.309 624.159 -113.378 624.865C-115.432 625.584 -117.528 625.676 -119.666 625.142C-121.79 624.593 -123.819 623.433 -125.755 621.661Z" fill="#FFD449" fill-opacity="0.15"/>
<path d="M-84.893 649.373C-88.2896 647.156 -90.8639 644.306 -92.6157 640.824C-94.3506 637.353 -95.1163 633.671 -94.9129 629.779C-94.6925 625.898 -93.4789 622.267 -91.2721 618.887C-89.0542 615.49 -86.2183 612.919 -82.7644 611.173C-79.2935 609.438 -75.6259 608.675 -71.7614 608.885C-67.8689 609.088 -64.2244 610.299 -60.8277 612.517C-57.431 614.735 -54.8652 617.579 -53.1303 621.05C-51.3674 624.515 -50.5907 628.18 -50.8001 632.044C-50.9925 635.92 -52.1977 639.556 -54.4155 642.952C-56.6223 646.332 -59.4666 648.898 -62.9485 650.65C-66.4135 652.413 -70.0922 653.192 -73.9846 652.989C-77.8602 652.796 -81.4963 651.591 -84.893 649.373ZM-80.5897 642.783C-78.528 644.129 -76.2848 644.846 -73.8601 644.935C-71.4185 645.035 -69.092 644.517 -66.8805 643.382C-64.6521 642.258 -62.8263 640.606 -61.4029 638.426C-59.9684 636.229 -59.1848 633.885 -59.0519 631.392C-58.902 628.911 -59.3693 626.581 -60.4538 624.403C-61.5271 622.208 -63.0862 620.443 -65.131 619.107C-67.1757 617.772 -69.4189 617.055 -71.8605 616.955C-74.3021 616.855 -76.6371 617.367 -78.8655 618.491C-81.077 619.627 -82.8944 621.284 -84.3178 623.464C-85.7412 625.644 -86.5278 627.975 -86.6776 630.456C-86.8105 632.948 -86.3403 635.292 -85.2669 637.487C-84.1935 639.682 -82.6344 641.448 -80.5897 642.783Z" fill="#FFD449" fill-opacity="0.15"/>
<path d="M-21.5367 674.535L-30.1102 671.026L-30.8394 655.223C-31.6766 654.924 -32.31 654.687 -32.7396 654.511L-39.3238 651.817L-44.7357 665.041L-52.3286 661.934L-36.2191 622.569L-19.9686 629.219C-17.2976 630.312 -15.1695 631.826 -13.5845 633.761C-11.9732 635.685 -11.0123 637.867 -10.7019 640.305C-10.3651 642.733 -10.7241 645.236 -11.7789 647.813C-12.8414 650.41 -14.3246 652.409 -16.2284 653.81C-18.1245 655.193 -20.2991 656.004 -22.7521 656.243L-21.5367 674.535ZM-36.5835 645.12L-28.5983 648.388C-27.3282 648.908 -26.0873 649.1 -24.8756 648.963C-23.664 648.826 -22.5924 648.393 -21.6609 647.662C-20.7217 646.912 -19.9999 645.921 -19.4954 644.688C-18.9756 643.418 -18.8048 642.201 -18.983 641.038C-19.1611 639.875 -19.6458 638.848 -20.4371 637.957C-21.202 637.055 -22.2008 636.352 -23.4336 635.848L-31.4468 632.568L-36.5835 645.12Z" fill="#FFD449" fill-opacity="0.15"/>
<path d="M25.5391 666.034L33.1588 667.606L30.0379 682.727C27.8344 683.818 25.4038 684.511 22.7461 684.808C20.1081 685.108 17.4846 684.989 14.8755 684.451C10.9026 683.631 7.4636 681.921 4.55846 679.323C1.67717 676.708 -0.381489 673.553 -1.61746 669.856C-2.82959 666.144 -3.02768 662.311 -2.21176 658.358C-1.39583 654.405 0.299496 650.984 2.87421 648.094C5.4687 645.209 8.60434 643.146 12.2812 641.906C15.9777 640.67 19.8125 640.462 23.7854 641.282C26.434 641.829 28.8701 642.806 31.0939 644.213C33.3217 645.6 35.2072 647.298 36.7504 649.306L30.7757 654.441C29.7113 653.108 28.4339 651.958 26.9437 650.991C25.4773 650.009 23.8942 649.342 22.1943 648.991C19.8027 648.497 17.4526 648.651 15.144 649.452C12.8355 650.253 10.8502 651.585 9.18819 653.447C7.52621 655.309 6.43207 657.515 5.9058 660.065C5.37953 662.614 5.50477 665.103 6.28148 667.53C7.06227 669.938 8.34993 671.986 10.1445 673.675C11.9628 675.349 14.058 676.43 16.4298 676.92C18.7622 677.401 21.05 677.399 23.2933 676.914L25.5391 666.034Z" fill="#FFD449" fill-opacity="0.15"/>
<path d="M78.6979 688.461L47.892 687.586L49.1 645.069L79.452 645.931L79.2387 653.436L57.0875 652.807L56.8072 662.672L74.5101 663.175L74.3088 670.256L56.6061 669.753L56.306 680.314L78.9111 680.956L78.6979 688.461Z" fill="#FFD449" fill-opacity="0.15"/>
<path d="M144.46 679.608L135.431 681.676L125.735 669.176C124.878 669.414 124.223 669.585 123.771 669.688L116.836 671.277L120.027 685.205L112.03 687.037L102.532 645.577L119.648 641.656C122.461 641.012 125.073 641.024 127.483 641.694C129.908 642.339 131.95 643.569 133.608 645.384C135.281 647.175 136.429 649.428 137.051 652.142C137.677 654.877 137.616 657.365 136.866 659.607C136.112 661.83 134.801 663.745 132.934 665.353L144.46 679.608ZM115.221 664.224L123.631 662.298C124.969 661.991 126.093 661.433 127.005 660.624C127.917 659.815 128.544 658.843 128.884 657.709C129.22 656.555 129.24 655.329 128.942 654.031C128.636 652.693 128.075 651.6 127.259 650.752C126.444 649.903 125.456 649.343 124.296 649.07C123.152 648.773 121.93 648.773 120.632 649.071L112.192 651.004L115.221 664.224Z" fill="#FFD449" fill-opacity="0.15"/>
<path d="M171.075 673.788L163.397 676.68L148.405 636.876L156.082 633.984L171.075 673.788Z" fill="#FFD449" fill-opacity="0.15"/>
<path d="M208.128 658.516C204.579 660.48 200.855 661.42 196.958 661.339C193.079 661.247 189.467 660.2 186.123 658.199C182.796 656.187 180.156 653.415 178.202 649.883C176.239 646.333 175.294 642.624 175.368 638.754C175.46 634.875 176.502 631.277 178.496 627.96C180.498 624.615 183.274 621.962 186.824 619.998C190.373 618.035 194.088 617.099 197.967 617.19C201.854 617.254 205.456 618.283 208.773 620.277C212.108 622.261 214.757 625.028 216.72 628.578C218.674 632.11 219.61 635.825 219.528 639.722C219.464 643.609 218.431 647.225 216.429 650.569C214.445 653.904 211.678 656.553 208.128 658.516ZM204.319 651.628C206.473 650.437 208.157 648.79 209.371 646.689C210.602 644.578 211.234 642.28 211.266 639.794C211.315 637.299 210.71 634.912 209.45 632.634C208.18 630.338 206.475 628.548 204.335 627.264C202.212 625.97 199.935 625.293 197.502 625.231C195.06 625.152 192.77 625.704 190.633 626.886C188.496 628.068 186.812 629.714 185.581 631.825C184.35 633.936 183.71 636.239 183.66 638.734C183.628 641.22 184.242 643.602 185.502 645.88C186.762 648.158 188.453 649.944 190.576 651.238C192.716 652.522 195.008 653.204 197.45 653.283C199.892 653.362 202.182 652.81 204.319 651.628Z" fill="#FFD449" fill-opacity="0.15"/>
<path d="M249.234 633.653C246.638 635.771 243.775 637.273 240.644 638.16C237.515 639.019 234.322 639.175 231.064 638.63L231.778 631.171C234.126 631.496 236.377 631.366 238.531 630.781C240.685 630.196 242.606 629.215 244.295 627.837C246.062 626.396 247.161 624.901 247.59 623.352C248.036 621.791 247.742 620.377 246.708 619.11C246.02 618.265 245.195 617.766 244.236 617.611C243.291 617.443 242.139 617.563 240.778 617.97C239.42 618.348 237.637 619.021 235.431 619.988C233.208 620.967 231.099 621.685 229.101 622.142C227.12 622.587 225.107 622.562 223.063 622.067C221.019 621.573 219.187 620.333 217.566 618.346C216.163 616.626 215.318 614.711 215.03 612.602C214.729 610.478 215.085 608.312 216.098 606.105C217.126 603.886 218.845 601.794 221.253 599.829C223.552 597.954 225.998 596.61 228.591 595.797C231.187 594.956 233.831 594.622 236.525 594.795L236.448 602.125C234.764 602.04 232.996 602.283 231.145 602.856C229.281 603.413 227.645 604.265 226.238 605.413C225.237 606.23 224.465 607.119 223.923 608.083C223.383 609.018 223.116 609.952 223.122 610.885C223.143 611.805 223.46 612.64 224.073 613.391C224.672 614.126 225.412 614.538 226.292 614.628C227.173 614.717 228.146 614.601 229.211 614.278C230.264 613.941 231.748 613.381 233.663 612.6L234.313 612.343C237.196 611.216 239.712 610.453 241.861 610.054C244.013 609.627 246.037 609.682 247.934 610.219C249.833 610.727 251.529 611.896 253.021 613.726C254.692 615.775 255.637 617.986 255.855 620.361C256.076 622.707 255.61 625.041 254.456 627.362C253.305 629.655 251.565 631.752 249.234 633.653Z" fill="#FFD449" fill-opacity="0.15"/>
</svg>
